Gentium-ExtraBold.ufo
<glyph name="Ampersand" format="2">
  <advance width="1436"/>
  <unicode hex="0026"/>
  <outline>
    <contour>
      <point x="1403" y="707"/>
      <point x="1436" y="748" type="curve"/>
      <point x="1403" y="794" type="line"/>
      <point x="909" y="794" type="line"/>
      <point x="882" y="784"/>
      <point x="829" y="730"/>
      <point x="815" y="713" type="curve"/>
      <point x="847" y="675" type="line"/>
      <point x="925" y="675"/>
      <point x="997" y="614"/>
      <point x="997" y="502" type="curve" smooth="yes"/>
      <point x="997" y="334"/>
      <point x="796" y="124"/>
      <point x="588" y="124" type="curve" smooth="yes"/>
      <point x="479" y="124"/>
      <point x="352" y="186"/>
      <point x="352" y="373" type="curve" smooth="yes"/>
      <point x="352" y="528"/>
      <point x="406" y="649"/>
      <point x="648" y="802" type="curve" smooth="yes"/>
      <point x="805" y="901"/>
      <point x="978" y="1065"/>
      <point x="978" y="1204" type="curve" smooth="yes"/>
      <point x="978" y="1333"/>
      <point x="884" y="1450"/>
      <point x="671" y="1450" type="curve" smooth="yes"/>
      <point x="442" y="1450"/>
      <point x="257" y="1288"/>
      <point x="257" y="1073" type="curve" smooth="yes"/>
      <point x="257" y="592"/>
      <point x="937" y="-30"/>
      <point x="1071" y="-30" type="curve" smooth="yes"/>
      <point x="1100" y="-30"/>
      <point x="1274" y="14"/>
      <point x="1389" y="65" type="curve"/>
      <point x="1370" y="148" type="line"/>
      <point x="1306" y="133"/>
      <point x="1222" y="144"/>
      <point x="1148" y="206" type="curve" smooth="yes"/>
      <point x="904" y="410"/>
      <point x="514" y="831"/>
      <point x="514" y="1130" type="curve" smooth="yes"/>
      <point x="514" y="1235"/>
      <point x="542" y="1313"/>
      <point x="608" y="1313" type="curve" smooth="yes"/>
      <point x="658" y="1313"/>
      <point x="709" y="1264"/>
      <point x="709" y="1171" type="curve" smooth="yes"/>
      <point x="709" y="1083"/>
      <point x="669" y="973"/>
      <point x="546" y="905" type="curve" smooth="yes"/>
      <point x="201" y="714"/>
      <point x="60" y="532"/>
      <point x="60" y="352" type="curve" smooth="yes"/>
      <point x="60" y="102"/>
      <point x="227" y="-30"/>
      <point x="518" y="-30" type="curve" smooth="yes"/>
      <point x="897" y="-30"/>
      <point x="1198" y="311"/>
      <point x="1198" y="543" type="curve" smooth="yes"/>
      <point x="1198" y="583"/>
      <point x="1193" y="625"/>
      <point x="1165" y="660" type="curve"/>
      <point x="1210" y="658"/>
      <point x="1268" y="632"/>
      <point x="1317" y="609" type="curve"/>
      <point x="1350" y="632"/>
    </contour>
  </outline>
</glyph>
<glyph name="RtParen" format="2">
  <advance width="689"/>
  <unicode hex="0029"/>
  <outline>
    <contour>
      <point x="590" y="223"/>
      <point x="590" y="661" type="curve" smooth="yes"/>
      <point x="590" y="1085"/>
      <point x="425" y="1410"/>
      <point x="83" y="1599" type="curve"/>
      <point x="21" y="1514" type="line"/>
      <point x="205" y="1326"/>
      <point x="300" y="1022"/>
      <point x="300" y="633" type="curve" smooth="yes"/>
      <point x="300" y="205"/>
      <point x="175" y="-66"/>
      <point x="21" y="-231" type="curve"/>
      <point x="83" y="-316" type="line"/>
      <point x="398" y="-123"/>
    </contour>
  </outline>
</glyph>
<glyph name="Asterisk" format="2">
  <advance width="904"/>
  <unicode hex="002A"/>
  <outline>
    <contour>
      <point x="505" y="1230" type="line"/>
      <point x="563" y="1520" type="line"/>
      <point x="517" y="1561" type="line"/>
      <point x="488" y="1554"/>
      <point x="369" y="1508"/>
      <point x="340" y="1493" type="curve"/>
      <point x="394" y="1229" type="line"/>
      <point x="173" y="1423" type="line"/>
      <point x="115" y="1404" type="line"/>
      <point x="106" y="1375"/>
      <point x="87" y="1249"/>
      <point x="85" y="1217" type="curve"/>
      <point x="342" y="1132" type="line"/>
      <point x="62" y="1037" type="line"/>
      <point x="50" y="977" type="line"/>
      <point x="70" y="955"/>
      <point x="170" y="875"/>
      <point x="197" y="858" type="curve"/>
      <point x="398" y="1037" type="line"/>
      <point x="341" y="748" type="line"/>
      <point x="387" y="707" type="line"/>
      <point x="416" y="714"/>
      <point x="535" y="760"/>
      <point x="564" y="775" type="curve"/>
      <point x="510" y="1038" type="line"/>
      <point x="731" y="845" type="line"/>
      <point x="789" y="864" type="line"/>
      <point x="798" y="893"/>
      <point x="817" y="1019"/>
      <point x="819" y="1051" type="curve"/>
      <point x="563" y="1136" type="line"/>
      <point x="842" y="1231" type="line"/>
      <point x="854" y="1291" type="line"/>
      <point x="834" y="1313"/>
      <point x="734" y="1393"/>
      <point x="707" y="1410" type="curve"/>
    </contour>
  </outline>
</glyph>
<glyph name="DigitFour" format="2">
  <advance width="1061"/>
  <unicode hex="0034"/>
  <anchor x="530" y="-100" name="L"/>
  <anchor x="530" y="1370" name="U"/>
  <outline>
    <contour>
      <point x="956" y="407"/>
      <point x="984" y="450" type="curve"/>
      <point x="958" y="480" type="line"/>
      <point x="825" y="480" type="line"/>
      <point x="825" y="1200" type="line"/>
      <point x="778" y="1245" type="line"/>
      <point x="714" y="1222"/>
      <point x="597" y="1186"/>
      <point x="531" y="1164" type="curve"/>
      <point x="55" y="373" type="line"/>
      <point x="98" y="330" type="line"/>
      <point x="565" y="330" type="line"/>
      <point x="565" y="155" type="line" smooth="yes"/>
      <point x="565" y="132"/>
      <point x="529" y="112"/>
      <point x="355" y="83" type="curve"/>
      <point x="355" y="0" type="line"/>
      <point x="964" y="0" type="line"/>
      <point x="964" y="83" type="line"/>
      <point x="854" y="108"/>
      <point x="825" y="124"/>
      <point x="825" y="144" type="curve" smooth="yes"/>
      <point x="825" y="330" type="line"/>
      <point x="875" y="330" type="line"/>
      <point x="905" y="353"/>
    </contour>
    <contour>
      <point x="565" y="960" type="line"/>
      <point x="565" y="480" type="line"/>
      <point x="263" y="480" type="line"/>
    </contour>
  </outline>
</glyph>
<glyph name="LtnCapD" format="2">
  <advance width="1334"/>
  <unicode hex="0044"/>
  <anchor x="603" y="-100" name="L"/>
  <anchor x="603" y="1370" name="U"/>
  <outline>
    <contour>
      <point x="40" y="0" type="line"/>
      <point x="82" y="0" type="line" smooth="yes"/>
      <point x="264" y="0"/>
      <point x="394" y="0"/>
      <point x="550" y="0" type="curve" smooth="yes"/>
      <point x="639" y="0" type="line" smooth="yes"/>
      <point x="925" y="0"/>
      <point x="1253" y="176"/>
      <point x="1253" y="676" type="curve" smooth="yes"/>
      <point x="1253" y="1063"/>
      <point x="1019" y="1290"/>
      <point x="598" y="1290" type="curve" smooth="yes"/>
      <point x="420" y="1290"/>
      <point x="163" y="1263"/>
      <point x="26" y="1230" type="curve"/>
      <point x="40" y="1128" type="line"/>
      <point x="76" y="1133"/>
      <point x="123" y="1140"/>
      <point x="175" y="1147" type="curve"/>
      <point x="175" y="144" type="line" smooth="yes"/>
      <point x="175" y="126"/>
      <point x="130" y="101"/>
      <point x="40" y="83" type="curve"/>
    </contour>
    <contour>
      <point x="597" y="114" type="curve" smooth="yes"/>
      <point x="519" y="114"/>
      <point x="455" y="123"/>
      <point x="455" y="174" type="curve" smooth="yes"/>
      <point x="455" y="1174" type="line"/>
      <point x="479" y="1175"/>
      <point x="502" y="1176"/>
      <point x="523" y="1176" type="curve" smooth="yes"/>
      <point x="804" y="1176"/>
      <point x="953" y="991"/>
      <point x="953" y="637" type="curve" smooth="yes"/>
      <point x="953" y="262"/>
      <point x="741" y="114"/>
    </contour>
  </outline>
</glyph>
<glyph name="LtnCapE" format="2">
  <advance width="1096"/>
  <unicode hex="0045"/>
  <anchor x="547" y="0" name="H"/>
  <anchor x="547" y="-100" name="L"/>
  <anchor x="825" y="0" name="O"/>
  <anchor x="1096" y="1100" name="R"/>
  <anchor x="547" y="1370" name="U"/>
  <outline>
    <contour>
      <point x="985" y="1157"/>
      <point x="989" y="1225" type="curve"/>
      <point x="946" y="1260" type="line"/>
      <point x="432" y="1260" type="line"/>
      <point x="403" y="1130" type="line"/>
      <point x="781" y="1130" type="line" smooth="yes"/>
      <point x="830" y="1130"/>
      <point x="857" y="1053"/>
      <point x="863" y="930" type="curve"/>
      <point x="948" y="930" type="line"/>
      <point x="964" y="981"/>
    </contour>
    <contour>
      <point x="865" y="660"/>
      <point x="886" y="697" type="curve"/>
      <point x="850" y="735" type="line"/>
      <point x="411" y="735" type="line"/>
      <point x="389" y="621" type="line"/>
      <point x="596" y="621" type="line" smooth="yes"/>
      <point x="708" y="621"/>
      <point x="753" y="605"/>
      <point x="794" y="566" type="curve"/>
      <point x="823" y="587"/>
    </contour>
    <contour>
      <point x="1044" y="209"/>
      <point x="1054" y="324" type="curve"/>
      <point x="971" y="352" type="line"/>
      <point x="914" y="196"/>
      <point x="871" y="130"/>
      <point x="748" y="130" type="curve" smooth="yes"/>
      <point x="659" y="130" type="line" smooth="yes"/>
      <point x="483" y="130"/>
      <point x="455" y="155"/>
      <point x="455" y="194" type="curve" smooth="yes"/>
      <point x="455" y="1137" type="line" smooth="yes"/>
      <point x="455" y="1155"/>
      <point x="510" y="1168"/>
      <point x="600" y="1177" type="curve"/>
      <point x="600" y="1260" type="line"/>
      <point x="40" y="1260" type="line"/>
      <point x="40" y="1177" type="line"/>
      <point x="136" y="1158"/>
      <point x="175" y="1131"/>
      <point x="175" y="1115" type="curve" smooth="yes"/>
      <point x="175" y="144" type="line" smooth="yes"/>
      <point x="175" y="126"/>
      <point x="130" y="101"/>
      <point x="40" y="83" type="curve"/>
      <point x="40" y="0" type="line"/>
      <point x="1013" y="0" type="line"/>
      <point x="1024" y="39"/>
    </contour>
  </outline>
</glyph>
<glyph name="LtnCapF" format="2">
  <advance width="1059"/>
  <unicode hex="0046"/>
  <anchor x="518" y="-100" name="L"/>
  <anchor x="518" y="1370" name="U"/>
  <outline>
    <contour>
      <point x="995" y="1157"/>
      <point x="997" y="1225" type="curve"/>
      <point x="956" y="1260" type="line"/>
      <point x="432" y="1260" type="line"/>
      <point x="403" y="1130" type="line"/>
      <point x="789" y="1130" type="line" smooth="yes"/>
      <point x="840" y="1130"/>
      <point x="867" y="1053"/>
      <point x="871" y="930" type="curve"/>
      <point x="958" y="930" type="line"/>
      <point x="974" y="981"/>
    </contour>
    <contour>
      <point x="833" y="650"/>
      <point x="858" y="697" type="curve"/>
      <point x="819" y="735" type="line"/>
      <point x="383" y="735" type="line"/>
      <point x="238" y="621" type="line"/>
      <point x="567" y="621" type="line" smooth="yes"/>
      <point x="678" y="621"/>
      <point x="725" y="605"/>
      <point x="764" y="566" type="curve"/>
      <point x="792" y="587"/>
    </contour>
    <contour>
      <point x="40" y="0" type="line"/>
      <point x="620" y="0" type="line"/>
      <point x="620" y="83" type="line"/>
      <point x="489" y="108"/>
      <point x="455" y="128"/>
      <point x="455" y="144" type="curve" smooth="yes"/>
      <point x="455" y="1137" type="line" smooth="yes"/>
      <point x="455" y="1155"/>
      <point x="521" y="1168"/>
      <point x="600" y="1177" type="curve"/>
      <point x="600" y="1260" type="line"/>
      <point x="40" y="1260" type="line"/>
      <point x="40" y="1177" type="line"/>
      <point x="136" y="1158"/>
      <point x="175" y="1131"/>
      <point x="175" y="1115" type="curve" smooth="yes"/>
      <point x="175" y="144" type="line" smooth="yes"/>
      <point x="175" y="126"/>
      <point x="130" y="101"/>
      <point x="40" y="83" type="curve"/>
    </contour>
  </outline>
</glyph>
<glyph name="LowLine" format="2">
  <advance width="814"/>
  <unicode hex="005F"/>
  <outline>
    <contour>
      <point x="849" y="-193"/>
      <point x="857" y="-164" type="curve"/>
      <point x="822" y="-130" type="line"/>
      <point x="8" y="-130" type="line"/>
      <point x="-4" y="-156"/>
      <point x="-36" y="-222"/>
      <point x="-43" y="-251" type="curve"/>
      <point x="-8" y="-285" type="line"/>
      <point x="806" y="-285" type="line"/>
      <point x="816" y="-263"/>
    </contour>
  </outline>
</glyph>
<glyph name="LtnSmG" format="2">
  <advance width="1079"/>
  <unicode hex="0067"/>
  <anchor x="533" y="-470" name="H"/>
  <anchor x="533" y="-600" name="L"/>
  <anchor x="1079" y="900" name="R"/>
  <anchor x="533" y="1050" name="U"/>
  <outline>
    <contour>
      <point x="1060" y="-279"/>
      <point x="1060" y="-100" type="curve" smooth="yes"/>
      <point x="1060" y="44"/>
      <point x="973" y="108"/>
      <point x="652" y="150" type="curve" smooth="yes"/>
      <point x="444" y="177"/>
      <point x="436" y="194"/>
      <point x="436" y="216" type="curve" smooth="yes"/>
      <point x="436" y="227"/>
      <point x="444" y="270"/>
      <point x="554" y="350" type="curve"/>
      <point x="362" y="333" type="line"/>
      <point x="207" y="233"/>
      <point x="142" y="147"/>
      <point x="142" y="113" type="curve" smooth="yes"/>
      <point x="142" y="49"/>
      <point x="306" y="-19"/>
      <point x="568" y="-54" type="curve" smooth="yes"/>
      <point x="770" y="-81"/>
      <point x="800" y="-133"/>
      <point x="800" y="-177" type="curve" smooth="yes"/>
      <point x="800" y="-255"/>
      <point x="742" y="-335"/>
      <point x="592" y="-335" type="curve" smooth="yes"/>
      <point x="410" y="-335"/>
      <point x="280" y="-262"/>
      <point x="280" y="-180" type="curve" smooth="yes"/>
      <point x="280" y="-135"/>
      <point x="289" y="-82"/>
      <point x="464" y="30" type="curve"/>
      <point x="458" y="57"/>
      <point x="334" y="61"/>
      <point x="334" y="61" type="curve"/>
      <point x="73" y="-73"/>
      <point x="10" y="-146"/>
      <point x="10" y="-219" type="curve" smooth="yes"/>
      <point x="10" y="-413"/>
      <point x="301" y="-490"/>
      <point x="517" y="-490" type="curve" smooth="yes"/>
      <point x="782" y="-490"/>
    </contour>
    <contour>
      <point x="1073" y="893"/>
      <point x="1079" y="920" type="curve"/>
      <point x="1049" y="960" type="line"/>
      <point x="987" y="937"/>
      <point x="851" y="891"/>
      <point x="725" y="881" type="curve"/>
      <point x="762" y="784" type="line"/>
      <point x="875" y="780"/>
      <point x="950" y="788"/>
      <point x="1022" y="800" type="curve"/>
      <point x="1043" y="833"/>
    </contour>
    <contour>
      <point x="920" y="437"/>
      <point x="920" y="641" type="curve" smooth="yes"/>
      <point x="920" y="814"/>
      <point x="760" y="960"/>
      <point x="535" y="960" type="curve" smooth="yes"/>
      <point x="291" y="960"/>
      <point x="80" y="798"/>
      <point x="80" y="602" type="curve" smooth="yes"/>
      <point x="80" y="416"/>
      <point x="262" y="295"/>
      <point x="499" y="295" type="curve" smooth="yes"/>
      <point x="729" y="295"/>
    </contour>
    <contour>
      <point x="660" y="732"/>
      <point x="660" y="600" type="curve" smooth="yes"/>
      <point x="660" y="477"/>
      <point x="602" y="420"/>
      <point x="524" y="420" type="curve" smooth="yes"/>
      <point x="396" y="420"/>
      <point x="340" y="527"/>
      <point x="340" y="659" type="curve" smooth="yes"/>
      <point x="340" y="781"/>
      <point x="410" y="840"/>
      <point x="476" y="840" type="curve" smooth="yes"/>
      <point x="596" y="840"/>
    </contour>
  </outline>
</glyph>
<glyph name="LtnSmH" format="2">
  <advance width="1210"/>
  <unicode hex="0068"/>
  <anchor x="320" y="0" name="H"/>
  <anchor x="617" y="-100" name="L"/>
  <anchor x="617" y="1620" name="U"/>
  <outline>
    <contour>
      <point x="660" y="0" type="line"/>
      <point x="1190" y="0" type="line"/>
      <point x="1190" y="83" type="line"/>
      <point x="1085" y="110"/>
      <point x="1060" y="126"/>
      <point x="1060" y="144" type="curve" smooth="yes"/>
      <point x="1060" y="691" type="line" smooth="yes"/>
      <point x="1060" y="891"/>
      <point x="954" y="960"/>
      <point x="839" y="960" type="curve" smooth="yes"/>
      <point x="735" y="960"/>
      <point x="610" y="924"/>
      <point x="445" y="814" type="curve"/>
      <point x="445" y="1506" type="line"/>
      <point x="398" y="1550" type="line"/>
      <point x="292" y="1511"/>
      <point x="208" y="1491"/>
      <point x="45" y="1470" type="curve"/>
      <point x="45" y="1390" type="line"/>
      <point x="174" y="1375"/>
      <point x="175" y="1369"/>
      <point x="175" y="1258" type="curve" smooth="yes"/>
      <point x="175" y="144" type="line" smooth="yes"/>
      <point x="175" y="122"/>
      <point x="133" y="106"/>
      <point x="45" y="83" type="curve"/>
      <point x="45" y="0" type="line"/>
      <point x="575" y="0" type="line"/>
      <point x="575" y="83" type="line"/>
      <point x="489" y="101"/>
      <point x="445" y="124"/>
      <point x="445" y="144" type="curve" smooth="yes"/>
      <point x="445" y="669" type="line"/>
      <point x="546" y="725"/>
      <point x="610" y="760"/>
      <point x="682" y="760" type="curve" smooth="yes"/>
      <point x="760" y="760"/>
      <point x="790" y="715"/>
      <point x="790" y="553" type="curve" smooth="yes"/>
      <point x="790" y="144" type="line" smooth="yes"/>
      <point x="790" y="126"/>
      <point x="756" y="108"/>
      <point x="660" y="83" type="curve"/>
    </contour>
  </outline>
</glyph>
<glyph name="LtnSmK" format="2">
  <advance width="1164"/>
  <unicode hex="006B"/>
  <anchor x="301" y="0" name="H"/>
  <anchor x="609" y="-100" name="L"/>
  <anchor x="1164" y="900" name="R"/>
  <anchor x="609" y="1620" name="U"/>
  <outline>
    <contour>
      <point x="1080" y="841"/>
      <point x="1139" y="847" type="curve"/>
      <point x="1139" y="930" type="line"/>
      <point x="670" y="930" type="line"/>
      <point x="670" y="847" type="line"/>
      <point x="740" y="847"/>
      <point x="780" y="838"/>
      <point x="693" y="759" type="curve" smooth="yes"/>
      <point x="435" y="526" type="line"/>
      <point x="582" y="496" type="line"/>
      <point x="959" y="775" type="line" smooth="yes"/>
      <point x="1017" y="818"/>
    </contour>
    <contour>
      <point x="45" y="0" type="line"/>
      <point x="555" y="0" type="line"/>
      <point x="555" y="83" type="line"/>
      <point x="456" y="114"/>
      <point x="445" y="124"/>
      <point x="445" y="144" type="curve" smooth="yes"/>
      <point x="445" y="1506" type="line"/>
      <point x="398" y="1550" type="line"/>
      <point x="301" y="1509"/>
      <point x="187" y="1489"/>
      <point x="45" y="1470" type="curve"/>
      <point x="45" y="1390" type="line"/>
      <point x="160" y="1377"/>
      <point x="175" y="1375"/>
      <point x="175" y="1256" type="curve" smooth="yes"/>
      <point x="175" y="144" type="line" smooth="yes"/>
      <point x="175" y="120"/>
      <point x="133" y="106"/>
      <point x="45" y="83" type="curve"/>
    </contour>
    <contour>
      <point x="1096" y="20"/>
      <point x="1174" y="38" type="curve"/>
      <point x="1168" y="121" type="line"/>
      <point x="1090" y="115"/>
      <point x="1062" y="118"/>
      <point x="1024" y="161" type="curve" smooth="yes"/>
      <point x="631" y="602" type="line"/>
      <point x="437" y="526" type="line"/>
      <point x="795" y="43" type="line" smooth="yes"/>
      <point x="824" y="4"/>
      <point x="864" y="-10"/>
      <point x="920" y="-10" type="curve" smooth="yes"/>
      <point x="948" y="-10"/>
    </contour>
  </outline>
</glyph>
<glyph name="LtnSmT" format="2">
  <advance width="775"/>
  <unicode hex="0074"/>
  <anchor x="378" y="0" name="H"/>
  <anchor x="378" y="-100" name="L"/>
  <anchor x="570" y="900" name="R"/>
  <anchor x="378" y="1320" name="U"/>
  <outline>
    <contour>
      <point x="565" y="30"/>
      <point x="756" y="167" type="curve"/>
      <point x="707" y="248" type="line"/>
      <point x="593" y="185"/>
      <point x="544" y="170"/>
      <point x="497" y="170" type="curve" smooth="yes"/>
      <point x="457" y="170"/>
      <point x="420" y="217"/>
      <point x="420" y="347" type="curve" smooth="yes"/>
      <point x="420" y="795" type="line"/>
      <point x="492" y="795" type="line" smooth="yes"/>
      <point x="551" y="795"/>
      <point x="623" y="776"/>
      <point x="655" y="760" type="curve"/>
      <point x="682" y="782"/>
      <point x="731" y="844"/>
      <point x="756" y="891" type="curve"/>
      <point x="717" y="930" type="line"/>
      <point x="420" y="930" type="line"/>
      <point x="420" y="1255" type="line"/>
      <point x="379" y="1290" type="line"/>
      <point x="150" y="1126" type="line"/>
      <point x="150" y="930" type="line"/>
      <point x="78" y="930" type="line"/>
      <point x="0" y="833" type="line"/>
      <point x="31" y="795" type="line"/>
      <point x="150" y="795" type="line"/>
      <point x="150" y="251" type="line" smooth="yes"/>
      <point x="150" y="65"/>
      <point x="251" y="-30"/>
      <point x="373" y="-30" type="curve" smooth="yes"/>
      <point x="443" y="-30"/>
    </contour>
  </outline>
</glyph>
<glyph name="VertLine" format="2">
  <advance width="500"/>
  <unicode hex="007C"/>
  <outline>
    <contour>
      <point x="316" y="-364"/>
      <point x="340" y="-343" type="curve"/>
      <point x="340" y="1638" type="line"/>
      <point x="294" y="1670" type="line"/>
      <point x="255" y="1660"/>
      <point x="197" y="1633"/>
      <point x="160" y="1611" type="curve"/>
      <point x="160" y="-372" type="line"/>
      <point x="205" y="-405" type="line"/>
      <point x="238" y="-394"/>
    </contour>
  </outline>
</glyph>
<glyph name="InvExclamationMrk" format="2">
  <advance width="658"/>
  <unicode hex="00A1"/>
  <outline>
    <contour>
      <point x="502" y="708"/>
      <point x="502" y="818" type="curve" smooth="yes"/>
      <point x="502" y="920"/>
      <point x="423" y="960"/>
      <point x="342" y="960" type="curve" smooth="yes"/>
      <point x="234" y="960"/>
      <point x="144" y="899"/>
      <point x="144" y="787" type="curve" smooth="yes"/>
      <point x="144" y="685"/>
      <point x="227" y="644"/>
      <point x="303" y="644" type="curve" smooth="yes"/>
      <point x="408" y="644"/>
    </contour>
    <contour>
      <point x="421" y="-471"/>
      <point x="482" y="-438" type="curve"/>
      <point x="395" y="519" type="line"/>
      <point x="366" y="540" type="line"/>
      <point x="333" y="530"/>
      <point x="277" y="519"/>
      <point x="252" y="501" type="curve"/>
      <point x="163" y="-525" type="line"/>
      <point x="216" y="-560" type="line"/>
      <point x="271" y="-541"/>
    </contour>
  </outline>
</glyph>
<glyph name="CopyrightSgn" format="2">
  <advance width="1508"/>
  <unicode hex="00A9"/>
  <outline>
    <contour>
      <point x="753" y="-30" type="curve" smooth="yes"/>
      <point x="1143" y="-30"/>
      <point x="1428" y="287"/>
      <point x="1428" y="677" type="curve" smooth="yes"/>
      <point x="1428" y="1067"/>
      <point x="1143" y="1382"/>
      <point x="753" y="1382" type="curve" smooth="yes"/>
      <point x="363" y="1382"/>
      <point x="80" y="1067"/>
      <point x="80" y="677" type="curve" smooth="yes"/>
      <point x="80" y="287"/>
      <point x="363" y="-30"/>
    </contour>
    <contour>
      <point x="731" y="239" type="curve" smooth="yes"/>
      <point x="838" y="239"/>
      <point x="936" y="262"/>
      <point x="1084" y="426" type="curve"/>
      <point x="1034" y="487" type="line"/>
      <point x="917" y="404"/>
      <point x="873" y="394"/>
      <point x="810" y="394" type="curve" smooth="yes"/>
      <point x="691" y="394"/>
      <point x="584" y="508"/>
      <point x="584" y="684" type="curve" smooth="yes"/>
      <point x="584" y="897"/>
      <point x="659" y="996"/>
      <point x="778" y="996" type="curve" smooth="yes"/>
      <point x="878" y="996"/>
      <point x="913" y="896"/>
      <point x="932" y="788" type="curve"/>
      <point x="997" y="779" type="line"/>
      <point x="1019" y="811"/>
      <point x="1076" y="1001"/>
      <point x="1071" y="1029" type="curve"/>
      <point x="1033" y="1069"/>
      <point x="922" y="1106"/>
      <point x="838" y="1106" type="curve" smooth="yes"/>
      <point x="560" y="1106"/>
      <point x="362" y="895"/>
      <point x="362" y="651" type="curve" smooth="yes"/>
      <point x="362" y="398"/>
      <point x="540" y="239"/>
    </contour>
    <contour>
      <point x="753" y="102" type="curve" smooth="yes"/>
      <point x="438" y="102"/>
      <point x="210" y="359"/>
      <point x="210" y="677" type="curve" smooth="yes"/>
      <point x="210" y="992"/>
      <point x="438" y="1250"/>
      <point x="753" y="1250" type="curve" smooth="yes"/>
      <point x="1071" y="1250"/>
      <point x="1298" y="992"/>
      <point x="1298" y="677" type="curve" smooth="yes"/>
      <point x="1298" y="359"/>
      <point x="1071" y="102"/>
    </contour>
  </outline>
</glyph>
<glyph name="LftPtngDblAngQuotMrk" format="2">
  <advance width="1074"/>
  <unicode hex="00AB"/>
  <outline>
    <contour>
      <point x="480" y="430" type="curve"/>
      <point x="891" y="-3" type="line"/>
      <point x="954" y="47" type="line"/>
      <point x="763" y="467" type="line"/>
      <point x="760" y="465"/>
      <point x="954" y="883"/>
      <point x="953" y="883" type="curve"/>
      <point x="891" y="933" type="line"/>
      <point x="482" y="503" type="line" smooth="yes"/>
      <point x="480" y="500"/>
      <point x="480" y="430"/>
    </contour>
    <contour>
      <point x="60" y="430" type="curve"/>
      <point x="471" y="-3" type="line"/>
      <point x="534" y="47" type="line"/>
      <point x="343" y="467" type="line"/>
      <point x="340" y="465"/>
      <point x="534" y="883"/>
      <point x="533" y="883" type="curve"/>
      <point x="471" y="933" type="line"/>
      <point x="62" y="503" type="line" smooth="yes"/>
      <point x="60" y="500"/>
      <point x="60" y="430"/>
    </contour>
  </outline>
</glyph>
<glyph name="RegisteredSgn" format="2">
  <advance width="730"/>
  <unicode hex="00AE"/>
  <outline>
    <contour>
      <point x="716" y="883"/>
      <point x="716" y="1084" type="curve" smooth="yes"/>
      <point x="716" y="1285"/>
      <point x="566" y="1450"/>
      <point x="364" y="1450" type="curve" smooth="yes"/>
      <point x="163" y="1450"/>
      <point x="15" y="1285"/>
      <point x="15" y="1084" type="curve" smooth="yes"/>
      <point x="15" y="883"/>
      <point x="163" y="718"/>
      <point x="364" y="718" type="curve" smooth="yes"/>
      <point x="566" y="718"/>
    </contour>
    <contour>
      <point x="637" y="1242"/>
      <point x="637" y="1084" type="curve" smooth="yes"/>
      <point x="637" y="925"/>
      <point x="523" y="797"/>
      <point x="364" y="797" type="curve" smooth="yes"/>
      <point x="207" y="797"/>
      <point x="93" y="925"/>
      <point x="93" y="1084" type="curve" smooth="yes"/>
      <point x="93" y="1242"/>
      <point x="207" y="1371"/>
      <point x="364" y="1371" type="curve" smooth="yes"/>
      <point x="523" y="1371"/>
    </contour>
    <contour>
      <point x="519" y="1116"/>
      <point x="519" y="1196" type="curve" smooth="yes"/>
      <point x="519" y="1250"/>
      <point x="473" y="1294"/>
      <point x="353" y="1294" type="curve" smooth="yes"/>
      <point x="298" y="1294"/>
      <point x="242" y="1288"/>
      <point x="203" y="1279" type="curve"/>
      <point x="207" y="1244" type="line"/>
      <point x="250" y="1250"/>
      <point x="305" y="1256"/>
      <point x="342" y="1256" type="curve" smooth="yes"/>
      <point x="398" y="1256"/>
      <point x="430" y="1226"/>
      <point x="430" y="1187" type="curve" smooth="yes"/>
      <point x="430" y="1136"/>
      <point x="407" y="1109"/>
      <point x="340" y="1109" type="curve" smooth="yes"/>
      <point x="328" y="1109"/>
      <point x="319" y="1110"/>
      <point x="305" y="1113" type="curve"/>
      <point x="307" y="1071" type="line"/>
      <point x="320" y="1068"/>
      <point x="333" y="1066"/>
      <point x="344" y="1066" type="curve" smooth="yes"/>
      <point x="464" y="1066"/>
    </contour>
    <contour>
      <point x="534" y="892"/>
      <point x="561" y="900" type="curve"/>
      <point x="558" y="924" type="line"/>
      <point x="529" y="922"/>
      <point x="521" y="926"/>
      <point x="512" y="940" type="curve" smooth="yes"/>
      <point x="406" y="1097" type="line"/>
      <point x="345" y="1083" type="line"/>
      <point x="438" y="894" type="line" smooth="yes"/>
      <point x="442" y="885"/>
      <point x="453" y="879"/>
      <point x="465" y="879" type="curve" smooth="yes"/>
      <point x="480" y="879"/>
    </contour>
    <contour>
      <point x="205" y="883" type="line"/>
      <point x="356" y="883" type="line"/>
      <point x="356" y="908" type="line"/>
      <point x="326" y="914"/>
      <point x="321" y="920"/>
      <point x="321" y="925" type="curve" smooth="yes"/>
      <point x="321" y="1275" type="line"/>
      <point x="243" y="1275" type="line"/>
      <point x="243" y="925" type="line" smooth="yes"/>
      <point x="243" y="919"/>
      <point x="233" y="914"/>
      <point x="205" y="908" type="curve"/>
    </contour>
  </outline>
</glyph>
<glyph name="PlusMinusSgn" format="2">
  <advance width="870"/>
  <unicode hex="00B1"/>
  <outline>
    <contour>
      <point x="812" y="707"/>
      <point x="820" y="736" type="curve"/>
      <point x="785" y="770" type="line"/>
      <point x="101" y="770" type="line"/>
      <point x="89" y="744"/>
      <point x="57" y="678"/>
      <point x="50" y="649" type="curve"/>
      <point x="85" y="615" type="line"/>
      <point x="769" y="615" type="line"/>
      <point x="779" y="637"/>
    </contour>
    <contour>
      <point x="489" y="338"/>
      <point x="515" y="351" type="curve"/>
      <point x="515" y="1042" type="line"/>
      <point x="481" y="1075" type="line"/>
      <point x="452" y="1068"/>
      <point x="385" y="1044"/>
      <point x="360" y="1036" type="curve"/>
      <point x="360" y="342" type="line"/>
      <point x="395" y="310" type="line"/>
      <point x="424" y="316"/>
    </contour>
    <contour>
      <point x="812" y="197"/>
      <point x="820" y="226" type="curve"/>
      <point x="785" y="260" type="line"/>
      <point x="101" y="260" type="line"/>
      <point x="89" y="234"/>
      <point x="57" y="168"/>
      <point x="50" y="139" type="curve"/>
      <point x="85" y="105" type="line"/>
      <point x="769" y="105" type="line"/>
      <point x="779" y="127"/>
    </contour>
  </outline>
</glyph>
<glyph name="MicroSgn" format="2">
  <advance width="1185"/>
  <unicode hex="00B5"/>
  <outline>
    <contour>
      <point x="1185" y="102" type="curve"/>
      <point x="1155" y="187" type="line"/>
      <point x="1111" y="165"/>
      <point x="1088" y="159"/>
      <point x="1059" y="159" type="curve" smooth="yes"/>
      <point x="1031" y="159"/>
      <point x="1020" y="184"/>
      <point x="1020" y="308" type="curve" smooth="yes"/>
      <point x="1020" y="348"/>
      <point x="1020" y="736"/>
      <point x="1020" y="759" type="curve" smooth="yes"/>
      <point x="1022" y="842"/>
      <point x="1031" y="877"/>
      <point x="1036" y="911" type="curve"/>
      <point x="1036" y="911"/>
      <point x="998" y="960"/>
      <point x="998" y="960" type="curve"/>
      <point x="916" y="935"/>
      <point x="791" y="912"/>
      <point x="712" y="900" type="curve"/>
      <point x="730" y="875"/>
      <point x="750" y="791"/>
      <point x="750" y="748" type="curve" smooth="yes"/>
      <point x="750" y="716"/>
      <point x="750" y="245"/>
      <point x="750" y="216" type="curve" smooth="yes"/>
      <point x="750" y="87"/>
      <point x="793" y="-31"/>
      <point x="883" y="-31" type="curve" smooth="yes"/>
      <point x="958" y="-31"/>
      <point x="1107" y="42"/>
    </contour>
    <contour>
      <point x="811" y="234" type="curve"/>
      <point x="796" y="373" type="line"/>
      <point x="675" y="206"/>
      <point x="624" y="181"/>
      <point x="573" y="181" type="curve" smooth="yes"/>
      <point x="528" y="181"/>
      <point x="430" y="259"/>
      <point x="430" y="386" type="curve" smooth="yes"/>
      <point x="430" y="400"/>
      <point x="430" y="899"/>
      <point x="430" y="907" type="curve"/>
      <point x="419" y="921"/>
      <point x="383" y="960"/>
      <point x="382" y="960" type="curve" smooth="yes"/>
      <point x="272" y="924"/>
      <point x="165" y="902"/>
      <point x="41" y="894" type="curve"/>
      <point x="41" y="814" type="line"/>
      <point x="167" y="801"/>
      <point x="160" y="784"/>
      <point x="160" y="681" type="curve" smooth="yes"/>
      <point x="160" y="669"/>
      <point x="160" y="482"/>
      <point x="160" y="462" type="curve" smooth="yes"/>
      <point x="160" y="214"/>
      <point x="387" y="-31"/>
      <point x="500" y="-31" type="curve" smooth="yes"/>
      <point x="602" y="-31"/>
      <point x="681" y="40"/>
    </contour>
    <contour>
      <point x="292" y="337"/>
      <point x="301" y="459" type="curve"/>
      <point x="293" y="512"/>
      <point x="160" y="615"/>
      <point x="160" y="615" type="curve"/>
      <point x="160" y="544"/>
      <point x="160" y="-432"/>
      <point x="160" y="-461" type="curve"/>
      <point x="209" y="-500" type="line"/>
      <point x="241" y="-484"/>
      <point x="442" y="-402"/>
      <point x="481" y="-389" type="curve"/>
      <point x="398" y="-305"/>
      <point x="303" y="-150"/>
      <point x="303" y="76" type="curve"/>
      <point x="305" y="232"/>
    </contour>
  </outline>
</glyph>
<glyph name="PilcrowSgn" format="2">
  <advance width="1276"/>
  <unicode hex="00B6"/>
  <outline>
    <contour>
      <point x="1144" y="1260"/>
      <point x="1144" y="1260" type="curve"/>
      <point x="1144" y="1260"/>
      <point x="666" y="1290"/>
      <point x="549" y="1290" type="curve" smooth="yes"/>
      <point x="229" y="1290"/>
      <point x="30" y="1130"/>
      <point x="30" y="903" type="curve" smooth="yes"/>
      <point x="30" y="653"/>
      <point x="247" y="516"/>
      <point x="545" y="516" type="curve" smooth="yes"/>
      <point x="680" y="516"/>
      <point x="717" y="553"/>
      <point x="717" y="553" type="curve"/>
      <point x="709" y="648" type="line"/>
      <point x="709" y="648"/>
      <point x="674" y="640"/>
      <point x="588" y="640" type="curve" smooth="yes"/>
      <point x="404" y="640"/>
      <point x="326" y="793"/>
      <point x="326" y="938" type="curve" smooth="yes"/>
      <point x="326" y="1087"/>
      <point x="461" y="1166"/>
      <point x="580" y="1166" type="curve" smooth="yes"/>
      <point x="652" y="1166"/>
      <point x="869" y="1156"/>
      <point x="998" y="1107" type="curve"/>
      <point x="1009" y="1097"/>
    </contour>
    <contour>
      <point x="495" y="-250" type="line"/>
      <point x="1206" y="-250" type="line"/>
      <point x="1206" y="-167" type="line"/>
      <point x="1109" y="-148"/>
      <point x="1070" y="-122"/>
      <point x="1070" y="-105" type="curve" smooth="yes"/>
      <point x="1070" y="1115" type="line" smooth="yes"/>
      <point x="1070" y="1134"/>
      <point x="1116" y="1158"/>
      <point x="1206" y="1177" type="curve"/>
      <point x="1206" y="1260" type="line"/>
      <point x="487" y="1260" type="line"/>
      <point x="487" y="1177" type="line"/>
      <point x="584" y="1158"/>
      <point x="633" y="1197"/>
      <point x="633" y="1181" type="curve" smooth="yes"/>
      <point x="631" y="-105" type="line" smooth="yes"/>
      <point x="631" y="-124"/>
      <point x="586" y="-148"/>
      <point x="495" y="-167" type="curve"/>
    </contour>
    <contour>
      <point x="892" y="1164" type="line"/>
      <point x="892" y="-105" type="line" smooth="yes"/>
      <point x="892" y="-120"/>
      <point x="867" y="-132"/>
      <point x="851" y="-136" type="curve"/>
      <point x="838" y="-132"/>
      <point x="812" y="-120"/>
      <point x="812" y="-105" type="curve" smooth="yes"/>
      <point x="812" y="1183" type="line"/>
    </contour>
  </outline>
</glyph>
<glyph name="MascOrdIndicator" format="2">
  <advance width="574"/>
  <unicode hex="00BA"/>
  <outline>
    <contour>
      <point x="544" y="872"/>
      <point x="544" y="1009" type="curve" smooth="yes"/>
      <point x="544" y="1154"/>
      <point x="446" y="1272"/>
      <point x="297" y="1272" type="curve" smooth="yes"/>
      <point x="136" y="1272"/>
      <point x="30" y="1127"/>
      <point x="30" y="988" type="curve" smooth="yes"/>
      <point x="30" y="842"/>
      <point x="124" y="731"/>
      <point x="277" y="731" type="curve" smooth="yes"/>
      <point x="422" y="731"/>
    </contour>
    <contour>
      <point x="39" y="586" type="line"/>
      <point x="534" y="586" type="line"/>
      <point x="534" y="679" type="line"/>
      <point x="39" y="679" type="line"/>
    </contour>
    <contour>
      <point x="394" y="1095"/>
      <point x="394" y="983" type="curve" smooth="yes"/>
      <point x="394" y="870"/>
      <point x="374" y="800"/>
      <point x="292" y="800" type="curve" smooth="yes"/>
      <point x="230" y="800"/>
      <point x="180" y="901"/>
      <point x="180" y="1014" type="curve" smooth="yes"/>
      <point x="180" y="1127"/>
      <point x="203" y="1203"/>
      <point x="282" y="1203" type="curve" smooth="yes"/>
      <point x="360" y="1203"/>
    </contour>
  </outline>
</glyph>
<glyph name="VulgFracOneQuarter" format="2">
  <advance width="1300"/>
  <unicode hex="00BC"/>
  <outline>
    <contour>
      <point x="306" y="3" type="curve"/>
      <point x="1234" y="1207" type="line"/>
      <point x="1209" y="1235" type="line"/>
      <point x="1180" y="1229"/>
      <point x="1096" y="1214"/>
      <point x="1070" y="1203" type="curve"/>
      <point x="138" y="0" type="line"/>
      <point x="163" y="-30" type="line"/>
      <point x="199" y="-21"/>
      <point x="275" y="-12"/>
    </contour>
    <contour>
      <point x="1235" y="195"/>
      <point x="1251" y="216" type="curve"/>
      <point x="1236" y="231" type="line"/>
      <point x="1160" y="231" type="line"/>
      <point x="1160" y="576" type="line"/>
      <point x="1133" y="598" type="line"/>
      <point x="1097" y="587"/>
      <point x="1030" y="569"/>
      <point x="993" y="559" type="curve"/>
      <point x="721" y="179" type="line"/>
      <point x="746" y="158" type="line"/>
      <point x="1013" y="158" type="line"/>
      <point x="1013" y="74" type="line" smooth="yes"/>
      <point x="1013" y="63"/>
      <point x="992" y="54"/>
      <point x="892" y="40" type="curve"/>
      <point x="892" y="0" type="line"/>
      <point x="1239" y="0" type="line"/>
      <point x="1239" y="40" type="line"/>
      <point x="1177" y="52"/>
      <point x="1160" y="60"/>
      <point x="1160" y="69" type="curve" smooth="yes"/>
      <point x="1160" y="158" type="line"/>
      <point x="1189" y="158" type="line"/>
      <point x="1206" y="169"/>
    </contour>
    <contour>
      <point x="1013" y="461" type="line"/>
      <point x="1013" y="231" type="line"/>
      <point x="840" y="231" type="line"/>
    </contour>
    <contour>
      <point x="85" y="637" type="line"/>
      <point x="536" y="637" type="line"/>
      <point x="536" y="682" type="line"/>
      <point x="421" y="694"/>
      <point x="393" y="712"/>
      <point x="393" y="725" type="curve" smooth="yes"/>
      <point x="393" y="1213" type="line"/>
      <point x="367" y="1235" type="line"/>
      <point x="310" y="1215"/>
      <point x="133" y="1164"/>
      <point x="68" y="1153" type="curve"/>
      <point x="85" y="1109" type="line"/>
      <point x="186" y="1127"/>
      <point x="220" y="1124"/>
      <point x="229" y="1116" type="curve" smooth="yes"/>
      <point x="238" y="1107"/>
      <point x="239" y="1094"/>
      <point x="239" y="1069" type="curve" smooth="yes"/>
      <point x="239" y="725" type="line" smooth="yes"/>
      <point x="239" y="711"/>
      <point x="205" y="694"/>
      <point x="85" y="682" type="curve"/>
    </contour>
  </outline>
</glyph>
<glyph name="MultSgn" format="2">
  <advance width="840"/>
  <unicode hex="00D7"/>
  <outline>
    <contour>
      <point x="731" y="279"/>
      <point x="758" y="290" type="curve"/>
      <point x="758" y="331" type="line"/>
      <point x="216" y="873" type="line"/>
      <point x="187" y="866"/>
      <point x="105" y="850"/>
      <point x="79" y="838" type="curve"/>
      <point x="80" y="789" type="line"/>
      <point x="622" y="247" type="line"/>
      <point x="649" y="253"/>
    </contour>
    <contour>
      <point x="83" y="334" type="line"/>
      <point x="83" y="290" type="line"/>
      <point x="120" y="268"/>
      <point x="191" y="253"/>
      <point x="216" y="247" type="curve"/>
      <point x="755" y="786" type="line"/>
      <point x="755" y="830" type="line"/>
      <point x="729" y="848"/>
      <point x="651" y="866"/>
      <point x="622" y="873" type="curve"/>
    </contour>
  </outline>
</glyph>
<glyph name="LtnCapOStrk" format="2">
  <advance width="1289"/>
  <unicode hex="00D8"/>
  <anchor x="634" y="-100" name="L"/>
  <anchor x="634" y="1370" name="U"/>
  <outline>
    <contour>
      <point x="1218" y="285"/>
      <point x="1218" y="647" type="curve" smooth="yes"/>
      <point x="1218" y="973"/>
      <point x="1023" y="1290"/>
      <point x="663" y="1290" type="curve" smooth="yes"/>
      <point x="299" y="1290"/>
      <point x="50" y="975"/>
      <point x="50" y="612" type="curve" smooth="yes"/>
      <point x="50" y="276"/>
      <point x="263" y="-30"/>
      <point x="605" y="-30" type="curve" smooth="yes"/>
      <point x="937" y="-30"/>
    </contour>
    <contour>
      <point x="933" y="905"/>
      <point x="933" y="629" type="curve" smooth="yes"/>
      <point x="933" y="276"/>
      <point x="815" y="110"/>
      <point x="654" y="110" type="curve" smooth="yes"/>
      <point x="479" y="110"/>
      <point x="335" y="342"/>
      <point x="335" y="641" type="curve" smooth="yes"/>
      <point x="335" y="967"/>
      <point x="427" y="1155"/>
      <point x="604" y="1155" type="curve" smooth="yes"/>
      <point x="801" y="1155"/>
    </contour>
    <contour>
      <point x="267" y="-2" type="curve"/>
      <point x="1208" y="1275" type="line"/>
      <point x="1175" y="1313" type="line"/>
      <point x="1134" y="1309"/>
      <point x="1040" y="1286"/>
      <point x="1003" y="1264" type="curve"/>
      <point x="60" y="-15" type="line"/>
      <point x="93" y="-53" type="line"/>
      <point x="126" y="-49"/>
      <point x="243" y="-23"/>
    </contour>
  </outline>
</glyph>
<glyph name="LtnSmDCaron" format="2">
  <advance width="1380"/>
  <unicode hex="010F"/>
  <anchor x="820" y="0" name="H"/>
  <anchor x="525" y="-100" name="L"/>
  <anchor x="495" y="1050" name="U"/>
  <outline>
    <component base="LtnSmD"/>
    <contour>
      <point x="1216" y="1076" type="curve"/>
      <point x="1280" y="1209"/>
      <point x="1354" y="1383"/>
      <point x="1380" y="1514" type="curve"/>
      <point x="1344" y="1550" type="line"/>
      <point x="1296" y="1544"/>
      <point x="1165" y="1503"/>
      <point x="1115" y="1476" type="curve"/>
      <point x="1125" y="1376"/>
      <point x="1118" y="1236"/>
      <point x="1080" y="1035" type="curve"/>
      <point x="1121" y="1042"/>
      <point x="1179" y="1056"/>
    </contour>
  </outline>
</glyph>
<glyph name="LtnSmEOgonek" format="2">
  <advance width="1006"/>
  <unicode hex="0119"/>
  <anchor x="508" y="-600" name="L"/>
  <anchor x="510" y="1050" name="U"/>
  <outline>
    <contour>
      <point x="817" y="-369"/>
      <point x="885" y="-299" type="curve"/>
      <point x="851" y="-222" type="line"/>
      <point x="795" y="-273"/>
      <point x="754" y="-286"/>
      <point x="721" y="-286" type="curve" smooth="yes"/>
      <point x="680" y="-286"/>
      <point x="645" y="-263"/>
      <point x="645" y="-214" type="curve" smooth="yes"/>
      <point x="645" y="-100"/>
      <point x="792" y="53"/>
      <point x="940" y="195" type="curve"/>
      <point x="934" y="205"/>
      <point x="900" y="257"/>
      <point x="883" y="266" type="curve"/>
      <point x="724" y="163"/>
      <point x="660" y="150"/>
      <point x="576" y="150" type="curve" smooth="yes"/>
      <point x="430" y="150"/>
      <point x="340" y="274"/>
      <point x="340" y="457" type="curve" smooth="yes"/>
      <point x="340" y="460" type="line"/>
      <point x="796" y="460" type="line"/>
      <point x="839" y="477"/>
      <point x="922" y="520"/>
      <point x="946" y="547" type="curve"/>
      <point x="946" y="777"/>
      <point x="816" y="960"/>
      <point x="554" y="960" type="curve" smooth="yes"/>
      <point x="443" y="960"/>
      <point x="335" y="916"/>
      <point x="261" y="861" type="curve" smooth="yes"/>
      <point x="126" y="760"/>
      <point x="60" y="624"/>
      <point x="60" y="444" type="curve" smooth="yes"/>
      <point x="60" y="162"/>
      <point x="250" y="-30"/>
      <point x="485" y="-30" type="curve" smooth="yes"/>
      <point x="522" y="-30"/>
      <point x="555" y="-26"/>
      <point x="586" y="-19" type="curve"/>
      <point x="445" y="-106"/>
      <point x="376" y="-203"/>
      <point x="376" y="-299" type="curve" smooth="yes"/>
      <point x="376" y="-410"/>
      <point x="489" y="-444"/>
      <point x="562" y="-444" type="curve" smooth="yes"/>
      <point x="689" y="-444"/>
    </contour>
    <contour>
      <point x="397" y="835"/>
      <point x="516" y="835" type="curve"/>
      <point x="640" y="835"/>
      <point x="682" y="698"/>
      <point x="682" y="616" type="curve" smooth="yes"/>
      <point x="682" y="588"/>
      <point x="674" y="580"/>
      <point x="644" y="580" type="curve" smooth="yes"/>
      <point x="342" y="580" type="line"/>
      <point x="353" y="739"/>
    </contour>
  </outline>
</glyph>
<glyph name="LtnCapHStrk" format="2">
  <advance width="1419"/>
  <unicode hex="0126"/>
  <anchor x="700" y="-100" name="L"/>
  <anchor x="700" y="1370" name="U"/>
  <outline>
    <contour>
      <point x="810" y="0" type="line"/>
      <point x="1360" y="0" type="line"/>
      <point x="1360" y="83" type="line"/>
      <point x="1264" y="101"/>
      <point x="1225" y="128"/>
      <point x="1225" y="144" type="curve" smooth="yes"/>
      <point x="1225" y="1115" type="line" smooth="yes"/>
      <point x="1225" y="1134"/>
      <point x="1270" y="1158"/>
      <point x="1360" y="1177" type="curve"/>
      <point x="1360" y="1260" type="line"/>
      <point x="810" y="1260" type="line"/>
      <point x="810" y="1177" type="line"/>
      <point x="906" y="1158"/>
      <point x="945" y="1131"/>
      <point x="945" y="1115" type="curve" smooth="yes"/>
      <point x="945" y="144" type="line" smooth="yes"/>
      <point x="945" y="126"/>
      <point x="900" y="101"/>
      <point x="810" y="83" type="curve"/>
    </contour>
    <contour>
      <point x="427" y="595" type="line"/>
      <point x="965" y="595" type="line"/>
      <point x="965" y="725" type="line"/>
      <point x="427" y="725" type="line"/>
    </contour>
    <contour>
      <point x="40" y="0" type="line"/>
      <point x="590" y="0" type="line"/>
      <point x="590" y="83" type="line"/>
      <point x="493" y="101"/>
      <point x="455" y="128"/>
      <point x="455" y="144" type="curve" smooth="yes"/>
      <point x="455" y="1115" type="line" smooth="yes"/>
      <point x="455" y="1134"/>
      <point x="500" y="1158"/>
      <point x="590" y="1177" type="curve"/>
      <point x="590" y="1260" type="line"/>
      <point x="40" y="1260" type="line"/>
      <point x="40" y="1177" type="line"/>
      <point x="136" y="1158"/>
      <point x="175" y="1131"/>
      <point x="175" y="1115" type="curve" smooth="yes"/>
      <point x="175" y="144" type="line" smooth="yes"/>
      <point x="175" y="126"/>
      <point x="130" y="101"/>
      <point x="40" y="83" type="curve"/>
    </contour>
    <contour>
      <point x="1375" y="874" type="line"/>
      <point x="1414" y="979" type="line"/>
      <point x="1392" y="1004" type="line"/>
      <point x="25" y="1004" type="line"/>
      <point x="14" y="983"/>
      <point x="-9" y="917"/>
      <point x="-15" y="896" type="curve"/>
      <point x="8" y="874" type="line"/>
    </contour>
  </outline>
</glyph>
<glyph name="LtnSmLCaron" format="2">
  <advance width="825"/>
  <unicode hex="013E"/>
  <anchor x="285" y="0" name="H"/>
  <anchor x="285" y="-100" name="L"/>
  <anchor x="285" y="1690" name="U"/>
  <outline>
    <component base="LtnSmL"/>
    <contour>
      <point x="661" y="1076" type="curve"/>
      <point x="725" y="1209"/>
      <point x="799" y="1383"/>
      <point x="825" y="1514" type="curve"/>
      <point x="789" y="1550" type="line"/>
      <point x="741" y="1544"/>
      <point x="610" y="1503"/>
      <point x="560" y="1476" type="curve"/>
      <point x="570" y="1376"/>
      <point x="563" y="1236"/>
      <point x="525" y="1035" type="curve"/>
      <point x="566" y="1042"/>
      <point x="624" y="1056"/>
    </contour>
  </outline>
</glyph>
<glyph name="LtnSmEng" format="2">
  <advance width="1160"/>
  <unicode hex="014B"/>
  <anchor x="626" y="-600" name="L"/>
  <anchor x="626" y="1050" name="U"/>
  <outline>
    <contour>
      <point x="1060" y="-145"/>
      <point x="1060" y="118" type="curve"/>
      <point x="1060" y="711" type="line" smooth="yes"/>
      <point x="1060" y="861"/>
      <point x="974" y="960"/>
      <point x="839" y="960" type="curve" smooth="yes"/>
      <point x="735" y="960"/>
      <point x="607" y="924"/>
      <point x="440" y="806" type="curve"/>
      <point x="430" y="916" type="line"/>
      <point x="385" y="961" type="line"/>
      <point x="311" y="924"/>
      <point x="135" y="895"/>
      <point x="45" y="891" type="curve"/>
      <point x="45" y="810" type="line"/>
      <point x="169" y="796"/>
      <point x="175" y="795"/>
      <point x="175" y="681" type="curve" smooth="yes"/>
      <point x="175" y="144" type="line" smooth="yes"/>
      <point x="175" y="122"/>
      <point x="133" y="106"/>
      <point x="45" y="83" type="curve"/>
      <point x="45" y="0" type="line"/>
      <point x="575" y="0" type="line"/>
      <point x="575" y="83" type="line"/>
      <point x="489" y="101"/>
      <point x="445" y="124"/>
      <point x="445" y="144" type="curve" smooth="yes"/>
      <point x="445" y="669" type="line"/>
      <point x="574" y="746"/>
      <point x="635" y="760"/>
      <point x="692" y="760" type="curve" smooth="yes"/>
      <point x="766" y="760"/>
      <point x="790" y="715"/>
      <point x="790" y="573" type="curve" smooth="yes"/>
      <point x="790" y="35" type="line" smooth="yes"/>
      <point x="790" y="-295"/>
      <point x="677" y="-315"/>
      <point x="632" y="-315" type="curve" smooth="yes"/>
      <point x="571" y="-315"/>
      <point x="479" y="-241"/>
      <point x="422" y="-170" type="curve"/>
      <point x="374" y="-189"/>
      <point x="205" y="-338"/>
      <point x="205" y="-371" type="curve" smooth="yes"/>
      <point x="205" y="-410"/>
      <point x="352" y="-490"/>
      <point x="502" y="-490" type="curve" smooth="yes"/>
      <point x="653" y="-490"/>
      <point x="765" y="-418"/>
      <point x="838" y="-361" type="curve" smooth="yes"/>
      <point x="975" y="-255"/>
    </contour>
  </outline>
</glyph>
<glyph name="LtnCapBHook" format="2">
  <advance width="1566"/>
  <unicode hex="0181"/>
  <anchor x="743" y="-100" name="L"/>
  <anchor x="743" y="1370" name="U"/>
  <outline>
    <contour>
      <point x="812" y="-14"/>
      <point x="929" y="-14" type="curve" smooth="yes"/>
      <point x="1271" y="-14"/>
      <point x="1466" y="129"/>
      <point x="1466" y="356" type="curve" smooth="yes"/>
      <point x="1466" y="541"/>
      <point x="1330" y="681"/>
      <point x="1115" y="723" type="curve"/>
      <point x="1281" y="778"/>
      <point x="1355" y="877"/>
      <point x="1355" y="1020" type="curve" smooth="yes"/>
      <point x="1355" y="1096"/>
      <point x="1307" y="1163"/>
      <point x="1247" y="1203" type="curve" smooth="yes"/>
      <point x="1152" y="1266"/>
      <point x="1007" y="1290"/>
      <point x="779" y="1290" type="curve" smooth="yes"/>
      <point x="239" y="1290"/>
      <point x="20" y="1166"/>
      <point x="20" y="963" type="curve" smooth="yes"/>
      <point x="20" y="871"/>
      <point x="66" y="777"/>
      <point x="115" y="756" type="curve"/>
      <point x="170" y="767"/>
      <point x="376" y="854"/>
      <point x="383" y="870" type="curve"/>
      <point x="342" y="889"/>
      <point x="304" y="947"/>
      <point x="304" y="1006" type="curve" smooth="yes"/>
      <point x="304" y="1126"/>
      <point x="475" y="1176"/>
      <point x="713" y="1176" type="curve" smooth="yes"/>
      <point x="914" y="1176"/>
      <point x="967" y="1159"/>
      <point x="1004" y="1126" type="curve" smooth="yes"/>
      <point x="1050" y="1085"/>
      <point x="1069" y="1036"/>
      <point x="1069" y="971" type="curve" smooth="yes"/>
      <point x="1069" y="856"/>
      <point x="1032" y="745"/>
      <point x="769" y="745" type="curve" smooth="yes"/>
      <point x="671" y="745" type="line"/>
      <point x="661" y="597" type="line"/>
      <point x="725" y="607"/>
      <point x="792" y="629"/>
      <point x="880" y="629" type="curve" smooth="yes"/>
      <point x="1112" y="629"/>
      <point x="1172" y="489"/>
      <point x="1172" y="342" type="curve" smooth="yes"/>
      <point x="1172" y="192"/>
      <point x="1079" y="100"/>
      <point x="887" y="100" type="curve" smooth="yes"/>
      <point x="827" y="100"/>
      <point x="786" y="116"/>
      <point x="745" y="138" type="curve"/>
      <point x="403" y="0" type="line"/>
      <point x="403" y="0"/>
    </contour>
    <contour>
      <point x="340" y="83" type="curve"/>
      <point x="340" y="0" type="line"/>
      <point x="900" y="0" type="line"/>
      <point x="900" y="63" type="line"/>
      <point x="803" y="81"/>
      <point x="755" y="128"/>
      <point x="755" y="144" type="curve" smooth="yes"/>
      <point x="755" y="1231" type="line"/>
      <point x="475" y="1210" type="line"/>
      <point x="475" y="144" type="line" smooth="yes"/>
      <point x="475" y="126"/>
      <point x="430" y="101"/>
    </contour>
  </outline>
</glyph>
<glyph name="LtnSmBTopbar" format="2">
  <advance width="1120"/>
  <unicode hex="0183"/>
  <anchor x="524" y="-100" name="L"/>
  <anchor x="558" y="1690" name="U"/>
  <outline>
    <contour>
      <point x="957" y="1413"/>
      <point x="961" y="1481" type="curve"/>
      <point x="922" y="1520" type="line"/>
      <point x="260" y="1520" type="line"/>
      <point x="208" y="1496"/>
      <point x="145" y="1471"/>
      <point x="80" y="1450" type="curve"/>
      <point x="92" y="1429"/>
      <point x="120" y="1302"/>
      <point x="120" y="1147" type="curve" smooth="yes"/>
      <point x="120" y="96" type="line"/>
      <point x="264" y="16"/>
      <point x="458" y="-30"/>
      <point x="509" y="-30" type="curve" smooth="yes"/>
      <point x="774" y="-30"/>
      <point x="1050" y="300"/>
      <point x="1050" y="512" type="curve" smooth="yes"/>
      <point x="1050" y="804"/>
      <point x="909" y="960"/>
      <point x="727" y="960" type="curve" smooth="yes"/>
      <point x="651" y="960"/>
      <point x="523" y="927"/>
      <point x="390" y="827" type="curve"/>
      <point x="390" y="1153" type="line" smooth="yes"/>
      <point x="390" y="1235"/>
      <point x="389" y="1316"/>
      <point x="380" y="1390" type="curve"/>
      <point x="740" y="1390" type="line" smooth="yes"/>
      <point x="791" y="1390"/>
      <point x="801" y="1320"/>
      <point x="809" y="1150" type="curve"/>
      <point x="897" y="1150" type="line"/>
      <point x="917" y="1226"/>
    </contour>
    <contour>
      <point x="800" y="684"/>
      <point x="800" y="418" type="curve"/>
      <point x="800" y="264"/>
      <point x="739" y="150"/>
      <point x="607" y="150" type="curve" smooth="yes"/>
      <point x="560" y="150"/>
      <point x="486" y="179"/>
      <point x="390" y="223" type="curve"/>
      <point x="390" y="700" type="line"/>
      <point x="482" y="756"/>
      <point x="540" y="775"/>
      <point x="587" y="775" type="curve" smooth="yes"/>
      <point x="716" y="775"/>
    </contour>
  </outline>
</glyph>
<glyph name="LtnCapOpnO" format="2">
  <advance width="1149"/>
  <unicode hex="0186"/>
  <anchor x="559" y="-100" name="L"/>
  <anchor x="559" y="1370" name="U"/>
  <outline>
    <contour>
      <point x="162" y="-30"/>
      <point x="471" y="-30" type="curve" smooth="yes"/>
      <point x="831" y="-30"/>
      <point x="1088" y="258"/>
      <point x="1088" y="678" type="curve" smooth="yes"/>
      <point x="1088" y="1065"/>
      <point x="831" y="1290"/>
      <point x="544" y="1290" type="curve" smooth="yes"/>
      <point x="409" y="1290"/>
      <point x="210" y="1240"/>
      <point x="30" y="1071" type="curve"/>
      <point x="36" y="1063"/>
      <point x="72" y="1002"/>
      <point x="86" y="996" type="curve"/>
      <point x="246" y="1099"/>
      <point x="353" y="1120"/>
      <point x="424" y="1120" type="curve" smooth="yes"/>
      <point x="615" y="1120"/>
      <point x="803" y="995"/>
      <point x="803" y="641" type="curve" smooth="yes"/>
      <point x="803" y="231"/>
      <point x="672" y="125"/>
      <point x="526" y="125" type="curve" smooth="yes"/>
      <point x="398" y="125"/>
      <point x="305" y="218"/>
      <point x="305" y="319" type="curve" smooth="yes"/>
      <point x="305" y="393"/>
      <point x="320" y="452"/>
      <point x="396" y="497" type="curve"/>
      <point x="357" y="586" type="line"/>
      <point x="310" y="569"/>
      <point x="160" y="513"/>
      <point x="101" y="482" type="curve"/>
      <point x="56" y="431"/>
      <point x="41" y="350"/>
      <point x="41" y="294" type="curve" smooth="yes"/>
      <point x="41" y="142"/>
    </contour>
  </outline>
</glyph>
<glyph name="LtnSmCHook" format="2">
  <advance width="1056"/>
  <unicode hex="0188"/>
  <anchor x="518" y="0" name="H"/>
  <anchor x="518" y="-100" name="L"/>
  <anchor x="945" y="900" name="R"/>
  <anchor x="396" y="1050" name="U"/>
  <outline>
    <contour>
      <point x="485" y="-30" type="curve" smooth="yes"/>
      <point x="610" y="-30"/>
      <point x="736" y="-4"/>
      <point x="910" y="190" type="curve"/>
      <point x="851" y="261" type="line"/>
      <point x="713" y="164"/>
      <point x="652" y="150"/>
      <point x="577" y="150" type="curve" smooth="yes"/>
      <point x="437" y="150"/>
      <point x="330" y="268"/>
      <point x="330" y="475" type="curve" smooth="yes"/>
      <point x="330" y="736"/>
      <point x="430" y="830"/>
      <point x="540" y="830" type="curve" smooth="yes"/>
      <point x="637" y="830"/>
      <point x="690" y="756"/>
      <point x="741" y="597" type="curve"/>
      <point x="818" y="587" type="line"/>
      <point x="843" y="624"/>
      <point x="911" y="848"/>
      <point x="905" y="881" type="curve"/>
      <point x="860" y="928"/>
      <point x="698" y="960"/>
      <point x="610" y="960" type="curve" smooth="yes"/>
      <point x="283" y="960"/>
      <point x="60" y="731"/>
      <point x="60" y="444" type="curve" smooth="yes"/>
      <point x="60" y="147"/>
      <point x="260" y="-30"/>
    </contour>
    <contour>
      <point x="845" y="820" type="curve"/>
      <point x="845" y="967" type="line" smooth="yes"/>
      <point x="845" y="1109"/>
      <point x="856" y="1209"/>
      <point x="919" y="1209" type="curve" smooth="yes"/>
      <point x="966" y="1209"/>
      <point x="1008" y="1116"/>
      <point x="1025" y="1045" type="curve"/>
      <point x="1094" y="1079"/>
      <point x="1206" y="1223"/>
      <point x="1206" y="1255" type="curve" smooth="yes"/>
      <point x="1206" y="1300"/>
      <point x="1100" y="1376"/>
      <point x="974" y="1376" type="curve" smooth="yes"/>
      <point x="882" y="1376"/>
      <point x="805" y="1324"/>
      <point x="740" y="1249" type="curve" smooth="yes"/>
      <point x="675" y="1174"/>
      <point x="655" y="1095"/>
      <point x="655" y="962" type="curve" smooth="yes"/>
      <point x="655" y="878" type="line"/>
      <point x="694" y="856"/>
      <point x="802" y="837"/>
    </contour>
  </outline>
</glyph>
<glyph name="LtnCapOpnE" format="2">
  <advance width="1088"/>
  <unicode hex="0190"/>
  <anchor x="544" y="-100" name="L"/>
  <anchor x="544" y="1370" name="U"/>
  <outline>
    <contour>
      <point x="869" y="46"/>
      <point x="1028" y="211" type="curve"/>
      <point x="970" y="288" type="line"/>
      <point x="834" y="182"/>
      <point x="715" y="155"/>
      <point x="603" y="155" type="curve" smooth="yes"/>
      <point x="429" y="155"/>
      <point x="340" y="248"/>
      <point x="340" y="354" type="curve" smooth="yes"/>
      <point x="340" y="475"/>
      <point x="459" y="596"/>
      <point x="731" y="610" type="curve"/>
      <point x="731" y="720" type="line"/>
      <point x="459" y="731"/>
      <point x="353" y="839"/>
      <point x="353" y="948" type="curve" smooth="yes"/>
      <point x="353" y="1075"/>
      <point x="456" y="1150"/>
      <point x="575" y="1150" type="curve" smooth="yes"/>
      <point x="693" y="1150"/>
      <point x="778" y="1060"/>
      <point x="821" y="963" type="curve"/>
      <point x="904" y="945" type="line"/>
      <point x="932" y="998"/>
      <point x="995" y="1130"/>
      <point x="1014" y="1186" type="curve"/>
      <point x="928" y="1257"/>
      <point x="771" y="1290"/>
      <point x="628" y="1290" type="curve" smooth="yes"/>
      <point x="501" y="1290"/>
      <point x="375" y="1255"/>
      <point x="289" y="1202" type="curve" smooth="yes"/>
      <point x="170" y="1130"/>
      <point x="93" y="1020"/>
      <point x="93" y="905" type="curve" smooth="yes"/>
      <point x="93" y="774"/>
      <point x="160" y="680"/>
      <point x="287" y="635" type="curve"/>
      <point x="163" y="580"/>
      <point x="60" y="448"/>
      <point x="60" y="293" type="curve" smooth="yes"/>
      <point x="60" y="160"/>
      <point x="180" y="-30"/>
      <point x="507" y="-30" type="curve" smooth="yes"/>
      <point x="709" y="-30"/>
    </contour>
  </outline>
</glyph>
<glyph name="LtnSmHv" format="2">
  <advance width="1781"/>
  <unicode hex="0195"/>
  <anchor x="922" y="-100" name="L"/>
  <anchor x="926" y="1690" name="U"/>
  <outline>
    <contour>
      <point x="790" y="454" type="line"/>
      <point x="1060" y="454" type="line"/>
      <point x="1060" y="691" type="line" smooth="yes"/>
      <point x="1060" y="841"/>
      <point x="998" y="960"/>
      <point x="839" y="960" type="curve" smooth="yes"/>
      <point x="711" y="960"/>
      <point x="579" y="905"/>
      <point x="445" y="814" type="curve"/>
      <point x="445" y="1506" type="line"/>
      <point x="398" y="1550" type="line"/>
      <point x="322" y="1521"/>
      <point x="167" y="1481"/>
      <point x="45" y="1470" type="curve"/>
      <point x="45" y="1390" type="line"/>
      <point x="174" y="1375"/>
      <point x="175" y="1369"/>
      <point x="175" y="1258" type="curve" smooth="yes"/>
      <point x="175" y="144" type="line" smooth="yes"/>
      <point x="175" y="122"/>
      <point x="133" y="106"/>
      <point x="45" y="83" type="curve"/>
      <point x="45" y="0" type="line"/>
      <point x="575" y="0" type="line"/>
      <point x="575" y="83" type="line"/>
      <point x="489" y="101"/>
      <point x="445" y="124"/>
      <point x="445" y="144" type="curve" smooth="yes"/>
      <point x="445" y="669" type="line"/>
      <point x="550" y="725"/>
      <point x="610" y="760"/>
      <point x="682" y="760" type="curve" smooth="yes"/>
      <point x="770" y="760"/>
      <point x="790" y="695"/>
      <point x="790" y="553" type="curve" smooth="yes"/>
    </contour>
    <contour>
      <point x="1726" y="265"/>
      <point x="1726" y="544" type="curve"/>
      <point x="1726" y="810"/>
      <point x="1595" y="922"/>
      <point x="1486" y="960" type="curve"/>
      <point x="1411" y="946"/>
      <point x="1254" y="897"/>
      <point x="1211" y="877" type="curve"/>
      <point x="1233" y="800" type="line"/>
      <point x="1383" y="794"/>
      <point x="1474" y="657"/>
      <point x="1474" y="451" type="curve" smooth="yes"/>
      <point x="1474" y="279"/>
      <point x="1398" y="130"/>
      <point x="1254" y="130" type="curve" smooth="yes"/>
      <point x="1143" y="130"/>
      <point x="1060" y="208"/>
      <point x="1060" y="412" type="curve" smooth="yes"/>
      <point x="1060" y="641" type="line"/>
      <point x="950" y="549"/>
      <point x="790" y="648"/>
      <point x="790" y="521" type="curve" smooth="yes"/>
      <point x="790" y="329" type="line" smooth="yes"/>
      <point x="790" y="79"/>
      <point x="928" y="-30"/>
      <point x="1173" y="-30" type="curve" smooth="yes"/>
      <point x="1526" y="-30"/>
    </contour>
  </outline>
</glyph>
<glyph name="LtnCapIStrk" format="2">
  <advance width="690"/>
  <unicode hex="0197"/>
  <anchor x="336" y="-100" name="L"/>
  <anchor x="336" y="1370" name="U"/>
  <outline>
    <contour>
      <point x="605" y="595" type="line"/>
      <point x="645" y="702" type="line"/>
      <point x="620" y="725" type="line"/>
      <point x="475" y="725" type="line"/>
      <point x="475" y="1115" type="line" smooth="yes"/>
      <point x="475" y="1134"/>
      <point x="520" y="1158"/>
      <point x="610" y="1177" type="curve"/>
      <point x="610" y="1260" type="line"/>
      <point x="60" y="1260" type="line"/>
      <point x="60" y="1177" type="line"/>
      <point x="156" y="1158"/>
      <point x="195" y="1131"/>
      <point x="195" y="1115" type="curve" smooth="yes"/>
      <point x="195" y="725" type="line"/>
      <point x="65" y="725" type="line"/>
      <point x="57" y="704"/>
      <point x="34" y="639"/>
      <point x="28" y="619" type="curve"/>
      <point x="50" y="595" type="line"/>
      <point x="195" y="595" type="line"/>
      <point x="195" y="144" type="line" smooth="yes"/>
      <point x="195" y="126"/>
      <point x="150" y="101"/>
      <point x="60" y="83" type="curve"/>
      <point x="60" y="0" type="line"/>
      <point x="610" y="0" type="line"/>
      <point x="610" y="83" type="line"/>
      <point x="514" y="101"/>
      <point x="475" y="128"/>
      <point x="475" y="144" type="curve" smooth="yes"/>
      <point x="475" y="595" type="line"/>
    </contour>
  </outline>
</glyph>
<glyph name="LtnCapKHook" format="2">
  <advance width="1333"/>
  <unicode hex="0198"/>
  <anchor x="681" y="-100" name="L"/>
  <anchor x="681" y="1370" name="U"/>
  <outline>
    <contour>
      <point x="1072" y="786" type="line"/>
      <point x="1135" y="803"/>
      <point x="1294" y="871"/>
      <point x="1301" y="893" type="curve"/>
      <point x="1309" y="923"/>
      <point x="1323" y="991"/>
      <point x="1323" y="1026" type="curve" smooth="yes"/>
      <point x="1323" y="1185"/>
      <point x="1227" y="1270"/>
      <point x="1100" y="1270" type="curve" smooth="yes"/>
      <point x="972" y="1270"/>
      <point x="872" y="1214"/>
      <point x="787" y="1103" type="curve" smooth="yes"/>
      <point x="437" y="643" type="line"/>
      <point x="924" y="29" type="line" smooth="yes"/>
      <point x="951" y="-4"/>
      <point x="979" y="-14"/>
      <point x="1018" y="-14" type="curve" smooth="yes"/>
      <point x="1082" y="-14"/>
      <point x="1216" y="32"/>
      <point x="1294" y="57" type="curve"/>
      <point x="1287" y="140" type="line"/>
      <point x="1218" y="132"/>
      <point x="1179" y="128"/>
      <point x="1135" y="177" type="curve"/>
      <point x="655" y="676" type="line"/>
      <point x="960" y="1034" type="line" smooth="yes"/>
      <point x="980" y="1058"/>
      <point x="1003" y="1079"/>
      <point x="1035" y="1079" type="curve" smooth="yes"/>
      <point x="1065" y="1079"/>
      <point x="1088" y="1065"/>
      <point x="1088" y="997" type="curve" smooth="yes"/>
      <point x="1088" y="957"/>
      <point x="1058" y="883"/>
      <point x="1034" y="845" type="curve"/>
    </contour>
    <contour>
      <point x="40" y="0" type="line"/>
      <point x="590" y="0" type="line"/>
      <point x="590" y="83" type="line"/>
      <point x="493" y="101"/>
      <point x="455" y="128"/>
      <point x="455" y="144" type="curve" smooth="yes"/>
      <point x="455" y="1115" type="line" smooth="yes"/>
      <point x="455" y="1134"/>
      <point x="500" y="1158"/>
      <point x="590" y="1177" type="curve"/>
      <point x="590" y="1260" type="line"/>
      <point x="40" y="1260" type="line"/>
      <point x="40" y="1177" type="line"/>
      <point x="136" y="1158"/>
      <point x="175" y="1131"/>
      <point x="175" y="1115" type="curve" smooth="yes"/>
      <point x="175" y="144" type="line" smooth="yes"/>
      <point x="175" y="126"/>
      <point x="130" y="101"/>
      <point x="40" y="83" type="curve"/>
    </contour>
  </outline>
</glyph>
<glyph name="LtnCapOi" format="2">
  <advance width="1873"/>
  <unicode hex="01A2"/>
  <anchor x="676" y="-100" name="L"/>
  <anchor x="877" y="1370" name="U"/>
  <outline>
    <contour>
      <point x="1006" y="958" type="line"/>
      <point x="1056" y="972"/>
      <point x="1138" y="992"/>
      <point x="1272" y="992" type="curve" smooth="yes"/>
      <point x="1347" y="992"/>
      <point x="1368" y="943"/>
      <point x="1368" y="715" type="curve" smooth="yes"/>
      <point x="1368" y="-206" type="line" smooth="yes"/>
      <point x="1368" y="-224"/>
      <point x="1283" y="-252"/>
      <point x="1183" y="-267" type="curve"/>
      <point x="1183" y="-350" type="line"/>
      <point x="1793" y="-350" type="line"/>
      <point x="1793" y="-267" type="line"/>
      <point x="1697" y="-249"/>
      <point x="1648" y="-222"/>
      <point x="1648" y="-206" type="curve" smooth="yes"/>
      <point x="1648" y="1253" type="line"/>
      <point x="1587" y="1290" type="line"/>
      <point x="1470" y="1229"/>
      <point x="1171" y="1102"/>
      <point x="988" y="1086" type="curve"/>
    </contour>
    <contour>
      <point x="614" y="1135" type="curve" smooth="yes"/>
      <point x="715" y="1135"/>
      <point x="797" y="1090"/>
      <point x="873" y="1004" type="curve"/>
      <point x="873" y="318" type="line"/>
      <point x="792" y="211"/>
      <point x="685" y="160"/>
      <point x="624" y="160" type="curve" smooth="yes"/>
      <point x="469" y="160"/>
      <point x="334" y="342"/>
      <point x="334" y="641" type="curve" smooth="yes"/>
      <point x="334" y="967"/>
      <point x="457" y="1135"/>
    </contour>
    <contour>
      <point x="1118" y="1074" type="line"/>
      <point x="921" y="1254"/>
      <point x="805" y="1290"/>
      <point x="643" y="1290" type="curve" smooth="yes"/>
      <point x="339" y="1290"/>
      <point x="50" y="955"/>
      <point x="50" y="592" type="curve" smooth="yes"/>
      <point x="50" y="256"/>
      <point x="244" y="-30"/>
      <point x="555" y="-30" type="curve" smooth="yes"/>
      <point x="759" y="-30"/>
      <point x="940" y="92"/>
      <point x="1118" y="302" type="curve"/>
    </contour>
  </outline>
</glyph>
<glyph name="LtnSmOi" format="2">
  <advance width="1581"/>
  <unicode hex="01A3"/>
  <anchor x="586" y="-100" name="L"/>
  <anchor x="760" y="1050" name="U"/>
  <outline>
    <contour>
      <point x="456" y="-30" type="curve" smooth="yes"/>
      <point x="602" y="-30"/>
      <point x="824" y="102"/>
      <point x="945" y="236" type="curve"/>
      <point x="945" y="771" type="line"/>
      <point x="832" y="910"/>
      <point x="666" y="960"/>
      <point x="555" y="960" type="curve" smooth="yes"/>
      <point x="455" y="960"/>
      <point x="351" y="915"/>
      <point x="274" y="865" type="curve" smooth="yes"/>
      <point x="137" y="776"/>
      <point x="60" y="635"/>
      <point x="60" y="445" type="curve" smooth="yes"/>
      <point x="60" y="163"/>
      <point x="234" y="-30"/>
    </contour>
    <contour>
      <point x="530" y="830" type="curve" smooth="yes"/>
      <point x="592" y="830"/>
      <point x="654" y="796"/>
      <point x="695" y="748" type="curve"/>
      <point x="695" y="258" type="line"/>
      <point x="664" y="218"/>
      <point x="576" y="170"/>
      <point x="537" y="170" type="curve" smooth="yes"/>
      <point x="424" y="170"/>
      <point x="330" y="304"/>
      <point x="330" y="515" type="curve" smooth="yes"/>
      <point x="330" y="728"/>
      <point x="411" y="830"/>
    </contour>
    <contour>
      <point x="1000" y="-480" type="line"/>
      <point x="1570" y="-480" type="line"/>
      <point x="1570" y="-397" type="line"/>
      <point x="1467" y="-378"/>
      <point x="1440" y="-355"/>
      <point x="1440" y="-335" type="curve" smooth="yes"/>
      <point x="1440" y="915" type="line"/>
      <point x="1393" y="960" type="line"/>
      <point x="1276" y="899"/>
      <point x="978" y="774"/>
      <point x="823" y="759" type="curve"/>
      <point x="843" y="648" type="line"/>
      <point x="935" y="674"/>
      <point x="1002" y="688"/>
      <point x="1051" y="688" type="curve" smooth="yes"/>
      <point x="1146" y="688"/>
      <point x="1170" y="635"/>
      <point x="1170" y="513" type="curve" smooth="yes"/>
      <point x="1170" y="-335" type="line" smooth="yes"/>
      <point x="1170" y="-357"/>
      <point x="1125" y="-377"/>
      <point x="1000" y="-397" type="curve"/>
    </contour>
  </outline>
</glyph>
<glyph name="LtnSmPHook" format="2">
  <advance width="1120"/>
  <unicode hex="01A5"/>
  <anchor x="774" y="-100" name="L"/>
  <anchor x="574" y="1490" name="U"/>
  <outline>
    <contour>
      <point x="1060" y="502" type="curve" smooth="yes"/>
      <point x="1060" y="824"/>
      <point x="897" y="960"/>
      <point x="715" y="960" type="curve" smooth="yes"/>
      <point x="639" y="960"/>
      <point x="548" y="937"/>
      <point x="400" y="821" type="curve"/>
      <point x="400" y="836" type="line" smooth="yes"/>
      <point x="400" y="1123"/>
      <point x="423" y="1201"/>
      <point x="509" y="1201" type="curve" smooth="yes"/>
      <point x="607" y="1201"/>
      <point x="675" y="1103"/>
      <point x="730" y="1034" type="curve"/>
      <point x="769" y="1052"/>
      <point x="907" y="1188"/>
      <point x="907" y="1230" type="curve" smooth="yes"/>
      <point x="907" y="1265"/>
      <point x="767" y="1376"/>
      <point x="608" y="1376" type="curve" smooth="yes"/>
      <point x="457" y="1376"/>
      <point x="343" y="1296"/>
      <point x="269" y="1224" type="curve" smooth="yes"/>
      <point x="135" y="1094"/>
      <point x="130" y="968"/>
      <point x="130" y="731" type="curve" smooth="yes"/>
      <point x="130" y="-335" type="line" smooth="yes"/>
      <point x="130" y="-358"/>
      <point x="88" y="-376"/>
      <point x="0" y="-397" type="curve"/>
      <point x="0" y="-480" type="line"/>
      <point x="569" y="-480" type="line"/>
      <point x="569" y="-397" type="line"/>
      <point x="444" y="-378"/>
      <point x="400" y="-356"/>
      <point x="400" y="-335" type="curve" smooth="yes"/>
      <point x="400" y="78" type="line"/>
      <point x="524" y="-4"/>
      <point x="590" y="-30"/>
      <point x="668" y="-30" type="curve" smooth="yes"/>
      <point x="823" y="-30"/>
      <point x="1060" y="230"/>
    </contour>
    <contour>
      <point x="805" y="426" type="curve"/>
      <point x="805" y="250"/>
      <point x="746" y="150"/>
      <point x="656" y="150" type="curve" smooth="yes"/>
      <point x="594" y="150"/>
      <point x="549" y="153"/>
      <point x="400" y="233" type="curve"/>
      <point x="400" y="700" type="line"/>
      <point x="499" y="761"/>
      <point x="534" y="775"/>
      <point x="578" y="775" type="curve" smooth="yes"/>
      <point x="687" y="775"/>
      <point x="805" y="689"/>
    </contour>
  </outline>
</glyph>
<glyph name="LtnSmTnTwo" format="2">
  <advance width="876"/>
  <unicode hex="01A8"/>
  <anchor x="426" y="-100" name="L"/>
  <anchor x="440" y="1050" name="U"/>
  <outline>
    <contour>
      <point x="71" y="412"/>
      <point x="71" y="243" type="curve" smooth="yes"/>
      <point x="71" y="50"/>
      <point x="215" y="-30"/>
      <point x="435" y="-30" type="curve"/>
      <point x="578" y="-30"/>
      <point x="708" y="6"/>
      <point x="797" y="65" type="curve"/>
      <point x="815" y="73"/>
      <point x="804" y="263"/>
      <point x="778" y="353" type="curve"/>
      <point x="695" y="342" type="line"/>
      <point x="679" y="230"/>
      <point x="593" y="100"/>
      <point x="455" y="100" type="curve" smooth="yes"/>
      <point x="388" y="100"/>
      <point x="321" y="133"/>
      <point x="321" y="227" type="curve" smooth="yes"/>
      <point x="321" y="304"/>
      <point x="397" y="355"/>
      <point x="519" y="419" type="curve" smooth="yes"/>
      <point x="630" y="476"/>
      <point x="797" y="563"/>
      <point x="797" y="730" type="curve" smooth="yes"/>
      <point x="797" y="898"/>
      <point x="651" y="960"/>
      <point x="440" y="960" type="curve" smooth="yes"/>
      <point x="326" y="960"/>
      <point x="157" y="900"/>
      <point x="103" y="853" type="curve" smooth="yes"/>
      <point x="87" y="838"/>
      <point x="147" y="654"/>
      <point x="164" y="633" type="curve"/>
      <point x="247" y="641" type="line"/>
      <point x="267" y="758"/>
      <point x="330" y="840"/>
      <point x="446" y="840" type="curve" smooth="yes"/>
      <point x="534" y="840"/>
      <point x="557" y="785"/>
      <point x="557" y="750" type="curve" smooth="yes"/>
      <point x="557" y="694"/>
      <point x="497" y="648"/>
      <point x="386" y="589" type="curve"/>
      <point x="270" y="530"/>
    </contour>
  </outline>
</glyph>
<glyph name="LtnSmTHook" format="2">
  <advance width="803"/>
  <unicode hex="01AD"/>
  <anchor x="430" y="-100" name="L"/>
  <anchor x="478" y="1440" name="U"/>
  <outline>
    <contour>
      <point x="383" y="-30" type="curve" smooth="yes"/>
      <point x="453" y="-30"/>
      <point x="575" y="30"/>
      <point x="766" y="167" type="curve"/>
      <point x="717" y="248" type="line"/>
      <point x="603" y="185"/>
      <point x="554" y="170"/>
      <point x="507" y="170" type="curve" smooth="yes"/>
      <point x="467" y="170"/>
      <point x="430" y="217"/>
      <point x="430" y="347" type="curve" smooth="yes"/>
      <point x="430" y="795" type="line"/>
      <point x="502" y="795" type="line" smooth="yes"/>
      <point x="561" y="795"/>
      <point x="633" y="776"/>
      <point x="665" y="760" type="curve"/>
      <point x="692" y="782"/>
      <point x="741" y="844"/>
      <point x="766" y="891" type="curve"/>
      <point x="727" y="930" type="line"/>
      <point x="430" y="930" type="line"/>
      <point x="430" y="967" type="line" smooth="yes"/>
      <point x="430" y="1109"/>
      <point x="440" y="1209"/>
      <point x="503" y="1209" type="curve" smooth="yes"/>
      <point x="550" y="1209"/>
      <point x="592" y="1116"/>
      <point x="609" y="1045" type="curve"/>
      <point x="678" y="1079"/>
      <point x="790" y="1223"/>
      <point x="790" y="1255" type="curve" smooth="yes"/>
      <point x="790" y="1300"/>
      <point x="684" y="1376"/>
      <point x="558" y="1376" type="curve" smooth="yes"/>
      <point x="466" y="1376"/>
      <point x="372" y="1319"/>
      <point x="304" y="1249" type="curve" smooth="yes"/>
      <point x="208" y="1150"/>
      <point x="160" y="1045"/>
      <point x="160" y="942" type="curve" smooth="yes"/>
      <point x="160" y="930" type="line"/>
      <point x="88" y="930" type="line"/>
      <point x="10" y="833" type="line"/>
      <point x="41" y="795" type="line"/>
      <point x="160" y="795" type="line"/>
      <point x="160" y="251" type="line" smooth="yes"/>
      <point x="160" y="65"/>
      <point x="261" y="-30"/>
    </contour>
  </outline>
</glyph>
<glyph name="LtnCapYHook.RtHook" format="2">
  <advance width="1477"/>
  <unicode hex="01B3"/>
  <anchor x="638" y="-100" name="L"/>
  <anchor x="675" y="0" name="O"/>
  <anchor x="638" y="1370" name="U"/>
  <outline>
    <contour>
      <point x="344" y="0" type="line"/>
      <point x="934" y="0" type="line"/>
      <point x="934" y="83" type="line"/>
      <point x="809" y="108"/>
      <point x="778" y="138"/>
      <point x="778" y="155" type="curve" smooth="yes"/>
      <point x="778" y="523" type="line"/>
      <point x="1053" y="1155" type="line" smooth="yes"/>
      <point x="1084" y="1227"/>
      <point x="1122" y="1261"/>
      <point x="1173" y="1261" type="curve" smooth="yes"/>
      <point x="1221" y="1261"/>
      <point x="1252" y="1227"/>
      <point x="1252" y="1167" type="curve" smooth="yes"/>
      <point x="1252" y="1119"/>
      <point x="1217" y="1061"/>
      <point x="1198" y="1025" type="curve"/>
      <point x="1226" y="956" type="line"/>
      <point x="1266" y="967"/>
      <point x="1441" y="1049"/>
      <point x="1455" y="1083" type="curve" smooth="yes"/>
      <point x="1461" y="1099"/>
      <point x="1477" y="1175"/>
      <point x="1477" y="1221" type="curve" smooth="yes"/>
      <point x="1477" y="1338"/>
      <point x="1404" y="1440"/>
      <point x="1246" y="1440" type="curve" smooth="yes"/>
      <point x="1087" y="1440"/>
      <point x="960" y="1303"/>
      <point x="897" y="1156" type="curve" smooth="yes"/>
      <point x="698" y="693" type="line"/>
      <point x="605" y="885"/>
      <point x="487" y="1092"/>
      <point x="387" y="1221" type="curve" smooth="yes"/>
      <point x="366" y="1247"/>
      <point x="328" y="1270"/>
      <point x="279" y="1270" type="curve" smooth="yes"/>
      <point x="224" y="1270"/>
      <point x="78" y="1250"/>
      <point x="0" y="1239" type="curve"/>
      <point x="4" y="1156" type="line"/>
      <point x="115" y="1156"/>
      <point x="133" y="1140"/>
      <point x="158" y="1111" type="curve"/>
      <point x="252" y="982"/>
      <point x="402" y="733"/>
      <point x="498" y="518" type="curve"/>
      <point x="498" y="155" type="line" smooth="yes"/>
      <point x="498" y="136"/>
      <point x="465" y="108"/>
      <point x="344" y="83" type="curve"/>
    </contour>
  </outline>
</glyph>
<glyph name="LtnSmYHook.RtHook" format="2">
  <advance width="1346"/>
  <unicode hex="01B4"/>
  <anchor x="830" y="-100" name="L"/>
  <anchor x="293" y="-400" name="O"/>
  <anchor x="553" y="1050" name="U"/>
  <outline>
    <contour>
      <point x="486" y="847" type="curve"/>
      <point x="486" y="930" type="line"/>
      <point x="10" y="930" type="line"/>
      <point x="10" y="847" type="line"/>
      <point x="76" y="832"/>
      <point x="109" y="816"/>
      <point x="121" y="779" type="curve"/>
      <point x="458" y="-24" type="line"/>
      <point x="428" y="-101" type="line" smooth="yes"/>
      <point x="368" y="-260"/>
      <point x="297" y="-280"/>
      <point x="215" y="-280" type="curve" smooth="yes"/>
      <point x="186" y="-280"/>
      <point x="133" y="-265"/>
      <point x="81" y="-232" type="curve"/>
      <point x="29" y="-265"/>
      <point x="-75" y="-407"/>
      <point x="-75" y="-426" type="curve" smooth="yes"/>
      <point x="-75" y="-460"/>
      <point x="57" y="-500"/>
      <point x="138" y="-500" type="curve" smooth="yes"/>
      <point x="268" y="-500"/>
      <point x="469" y="-421"/>
      <point x="584" y="-103" type="curve" smooth="yes"/>
      <point x="937" y="871" type="line" smooth="yes"/>
      <point x="989" y="1014"/>
      <point x="1056" y="1079"/>
      <point x="1156" y="1079" type="curve" smooth="yes"/>
      <point x="1187" y="1079"/>
      <point x="1248" y="1065"/>
      <point x="1294" y="1032" type="curve"/>
      <point x="1349" y="1067"/>
      <point x="1446" y="1199"/>
      <point x="1446" y="1228" type="curve" smooth="yes"/>
      <point x="1446" y="1252"/>
      <point x="1318" y="1300"/>
      <point x="1237" y="1300" type="curve" smooth="yes"/>
      <point x="1107" y="1300"/>
      <point x="905" y="1229"/>
      <point x="778" y="863" type="curve" smooth="yes"/>
      <point x="591" y="322" type="line"/>
      <point x="403" y="779" type="line" smooth="yes"/>
      <point x="386" y="822"/>
      <point x="383" y="834"/>
    </contour>
  </outline>
</glyph>
<glyph name="LtnCapEzh" format="2">
  <advance width="1120"/>
  <unicode hex="01B7"/>
  <anchor x="564" y="-100" name="L"/>
  <anchor x="564" y="1370" name="U"/>
  <outline>
    <contour>
      <point x="643" y="775" type="line"/>
      <point x="995" y="1207" type="line"/>
      <point x="960" y="1260" type="line"/>
      <point x="361" y="1260" type="line" smooth="yes"/>
      <point x="275" y="1260"/>
      <point x="212" y="1260"/>
      <point x="155" y="1276" type="curve"/>
      <point x="115" y="895" type="line"/>
      <point x="212" y="873" type="line"/>
      <point x="239" y="996"/>
      <point x="304" y="1120"/>
      <point x="352" y="1120" type="curve" smooth="yes"/>
      <point x="661" y="1120" type="line"/>
      <point x="281" y="654" type="line"/>
      <point x="338" y="585" type="line"/>
    </contour>
    <contour>
      <point x="1040" y="155"/>
      <point x="1040" y="437" type="curve" smooth="yes"/>
      <point x="1040" y="671"/>
      <point x="906" y="806"/>
      <point x="712" y="806" type="curve" smooth="yes"/>
      <point x="598" y="806"/>
      <point x="379" y="714"/>
      <point x="281" y="655" type="curve"/>
      <point x="287" y="644"/>
      <point x="329" y="593"/>
      <point x="338" y="586" type="curve"/>
      <point x="438" y="648"/>
      <point x="475" y="655"/>
      <point x="548" y="655" type="curve" smooth="yes"/>
      <point x="681" y="655"/>
      <point x="790" y="546"/>
      <point x="790" y="386" type="curve" smooth="yes"/>
      <point x="790" y="226"/>
      <point x="700" y="123"/>
      <point x="531" y="123" type="curve" smooth="yes"/>
      <point x="420" y="123"/>
      <point x="315" y="203"/>
      <point x="247" y="338" type="curve"/>
      <point x="174" y="303"/>
      <point x="88" y="161"/>
      <point x="88" y="136" type="curve" smooth="yes"/>
      <point x="88" y="80"/>
      <point x="262" y="-27"/>
      <point x="492" y="-27" type="curve" smooth="yes"/>
      <point x="746" y="-27"/>
    </contour>
  </outline>
</glyph>
<glyph name="LtnLateralClick" format="2">
  <advance width="835"/>
  <unicode hex="01C1"/>
  <anchor x="418" y="-600" name="L"/>
  <anchor x="415" y="1690" name="U"/>
  <outline>
    <contour>
      <point x="648" y="-459"/>
      <point x="672" y="-438" type="curve"/>
      <point x="672" y="1518" type="line"/>
      <point x="626" y="1550" type="line"/>
      <point x="587" y="1540"/>
      <point x="529" y="1513"/>
      <point x="492" y="1491" type="curve"/>
      <point x="492" y="-467" type="line"/>
      <point x="537" y="-500" type="line"/>
      <point x="570" y="-489"/>
    </contour>
    <contour>
      <point x="317" y="-459"/>
      <point x="341" y="-438" type="curve"/>
      <point x="341" y="1518" type="line"/>
      <point x="295" y="1550" type="line"/>
      <point x="256" y="1540"/>
      <point x="198" y="1513"/>
      <point x="161" y="1491" type="curve"/>
      <point x="161" y="-467" type="line"/>
      <point x="206" y="-500" type="line"/>
      <point x="239" y="-489"/>
    </contour>
  </outline>
</glyph>
<glyph name="LtnAlveolarClick" format="2">
  <advance width="792"/>
  <unicode hex="01C2"/>
  <anchor x="395" y="-600" name="L"/>
  <anchor x="395" y="1690" name="U"/>
  <outline>
    <contour>
      <point x="349" y="-500" type="line"/>
      <point x="382" y="-489"/>
      <point x="460" y="-459"/>
      <point x="484" y="-438" type="curve"/>
      <point x="484" y="1518" type="line"/>
      <point x="438" y="1550" type="line"/>
      <point x="399" y="1540"/>
      <point x="341" y="1513"/>
      <point x="304" y="1491" type="curve"/>
      <point x="304" y="-467" type="line"/>
    </contour>
    <contour>
      <point x="55" y="349" type="line"/>
      <point x="729" y="349" type="line"/>
      <point x="739" y="371"/>
      <point x="764" y="416"/>
      <point x="772" y="445" type="curve"/>
      <point x="737" y="479" type="line"/>
      <point x="63" y="479" type="line"/>
      <point x="50" y="453"/>
      <point x="27" y="412"/>
      <point x="20" y="383" type="curve"/>
    </contour>
    <contour>
      <point x="55" y="629" type="line"/>
      <point x="729" y="629" type="line"/>
      <point x="739" y="651"/>
      <point x="764" y="696"/>
      <point x="772" y="725" type="curve"/>
      <point x="737" y="759" type="line"/>
      <point x="63" y="759" type="line"/>
      <point x="50" y="733"/>
      <point x="27" y="692"/>
      <point x="20" y="663" type="curve"/>
    </contour>
  </outline>
</glyph>
<glyph name="LtnSmQPDigraph" format="2">
  <advance width="1729"/>
  <unicode hex="0239"/>
  <anchor x="824" y="-600" name="L"/>
  <anchor x="824" y="1050" name="U"/>
  <outline>
    <contour>
      <point x="1009" y="234" type="curve"/>
      <point x="1009" y="78" type="line"/>
      <point x="1116" y="8"/>
      <point x="1187" y="-30"/>
      <point x="1277" y="-30" type="curve" smooth="yes"/>
      <point x="1425" y="-30"/>
      <point x="1669" y="220"/>
      <point x="1669" y="502" type="curve" smooth="yes"/>
      <point x="1669" y="794"/>
      <point x="1529" y="960"/>
      <point x="1324" y="960" type="curve" smooth="yes"/>
      <point x="1211" y="960"/>
      <point x="1108" y="900"/>
      <point x="1003" y="817" type="curve"/>
      <point x="1009" y="700" type="line"/>
      <point x="1091" y="747"/>
      <point x="1119" y="775"/>
      <point x="1187" y="775" type="curve" smooth="yes"/>
      <point x="1316" y="775"/>
      <point x="1414" y="659"/>
      <point x="1414" y="426" type="curve" smooth="yes"/>
      <point x="1414" y="213"/>
      <point x="1334" y="150"/>
      <point x="1266" y="150" type="curve" smooth="yes"/>
      <point x="1194" y="150"/>
      <point x="1133" y="164"/>
    </contour>
    <contour>
      <point x="563" y="-480" type="line"/>
      <point x="1178" y="-480" type="line"/>
      <point x="1178" y="-397" type="line"/>
      <point x="1056" y="-379"/>
      <point x="1009" y="-356"/>
      <point x="1009" y="-335" type="curve" smooth="yes"/>
      <point x="1009" y="687" type="line" smooth="yes"/>
      <point x="1009" y="764"/>
      <point x="1025" y="867"/>
      <point x="1040" y="920" type="curve"/>
      <point x="999" y="960" type="line"/>
      <point x="966" y="927"/>
      <point x="775" y="862"/>
      <point x="732" y="848" type="curve"/>
      <point x="732" y="-335" type="line" smooth="yes"/>
      <point x="732" y="-358"/>
      <point x="688" y="-378"/>
      <point x="563" y="-397" type="curve"/>
    </contour>
    <contour>
      <point x="694" y="84"/>
      <point x="809" y="200" type="curve"/>
      <point x="803" y="210"/>
      <point x="779" y="289"/>
      <point x="762" y="297" type="curve"/>
      <point x="668" y="207"/>
      <point x="612" y="180"/>
      <point x="547" y="180" type="curve" smooth="yes"/>
      <point x="417" y="180"/>
      <point x="330" y="288"/>
      <point x="330" y="515" type="curve" smooth="yes"/>
      <point x="330" y="695"/>
      <point x="386" y="820"/>
      <point x="530" y="820" type="curve" smooth="yes"/>
      <point x="601" y="820"/>
      <point x="701" y="761"/>
      <point x="742" y="677" type="curve"/>
      <point x="785" y="703"/>
      <point x="803" y="760"/>
      <point x="803" y="840" type="curve"/>
      <point x="699" y="944"/>
      <point x="631" y="960"/>
      <point x="551" y="960" type="curve" smooth="yes"/>
      <point x="480" y="960"/>
      <point x="353" y="924"/>
      <point x="274" y="865" type="curve" smooth="yes"/>
      <point x="190" y="802"/>
      <point x="60" y="698"/>
      <point x="60" y="444" type="curve" smooth="yes"/>
      <point x="60" y="147"/>
      <point x="248" y="-30"/>
      <point x="416" y="-30" type="curve" smooth="yes"/>
      <point x="584" y="-30"/>
    </contour>
  </outline>
</glyph>
<glyph name="LtnSmGlottalStop" format="2">
  <advance width="920"/>
  <unicode hex="0242"/>
  <anchor x="445" y="-100" name="L"/>
  <anchor x="445" y="1050" name="U"/>
  <outline>
    <contour>
      <point x="150" y="0" type="line"/>
      <point x="740" y="0" type="line"/>
      <point x="740" y="83" type="line"/>
      <point x="631" y="101"/>
      <point x="580" y="124"/>
      <point x="580" y="144" type="curve" smooth="yes"/>
      <point x="580" y="315" type="line" smooth="yes"/>
      <point x="580" y="510"/>
      <point x="860" y="508"/>
      <point x="860" y="725" type="curve" smooth="yes"/>
      <point x="860" y="862"/>
      <point x="748" y="960"/>
      <point x="512" y="960" type="curve" smooth="yes"/>
      <point x="249" y="960"/>
      <point x="50" y="831"/>
      <point x="50" y="643" type="curve" smooth="yes"/>
      <point x="50" y="633"/>
      <point x="51" y="615"/>
      <point x="56" y="600" type="curve"/>
      <point x="83" y="570" type="line"/>
      <point x="152" y="576"/>
      <point x="297" y="611"/>
      <point x="350" y="638" type="curve"/>
      <point x="339" y="657"/>
      <point x="334" y="687"/>
      <point x="334" y="706" type="curve" smooth="yes"/>
      <point x="334" y="790"/>
      <point x="398" y="834"/>
      <point x="444" y="834" type="curve" smooth="yes"/>
      <point x="513" y="834"/>
      <point x="580" y="784"/>
      <point x="580" y="660" type="curve" smooth="yes"/>
      <point x="580" y="470"/>
      <point x="310" y="485"/>
      <point x="310" y="256" type="curve" smooth="yes"/>
      <point x="310" y="144" type="line" smooth="yes"/>
      <point x="310" y="122"/>
      <point x="265" y="103"/>
      <point x="150" y="83" type="curve"/>
    </contour>
  </outline>
</glyph>
<glyph name="LtnCapTurnedV" format="2">
  <advance width="1371"/>
  <unicode hex="0245"/>
  <anchor x="675" y="-100" name="L"/>
  <anchor x="685" y="1370" name="U"/>
  <outline>
    <contour>
      <point x="805" y="0" type="line"/>
      <point x="1340" y="0" type="line"/>
      <point x="1340" y="83" type="line"/>
      <point x="1256" y="94"/>
      <point x="1222" y="114"/>
      <point x="1208" y="149" type="curve" smooth="yes"/>
      <point x="748" y="1290" type="line"/>
      <point x="673" y="1272"/>
      <point x="559" y="1230"/>
      <point x="538" y="1171" type="curve" smooth="yes"/>
      <point x="165" y="149" type="line" smooth="yes"/>
      <point x="152" y="112"/>
      <point x="100" y="100"/>
      <point x="10" y="83" type="curve"/>
      <point x="10" y="0" type="line"/>
      <point x="446" y="0" type="line"/>
      <point x="446" y="83" type="line"/>
      <point x="337" y="96"/>
      <point x="310" y="110"/>
      <point x="324" y="149" type="curve" smooth="yes"/>
      <point x="607" y="947" type="line"/>
      <point x="923" y="147" type="line" smooth="yes"/>
      <point x="938" y="109"/>
      <point x="911" y="91"/>
      <point x="805" y="83" type="curve"/>
    </contour>
  </outline>
</glyph>
<glyph name="LtnSmQHookTail" format="2">
  <advance width="1145"/>
  <unicode hex="024B"/>
  <anchor x="347" y="-100" name="L"/>
  <anchor x="597" y="1050" name="U"/>
  <outline>
    <contour>
      <point x="634" y="24"/>
      <point x="809" y="200" type="curve"/>
      <point x="803" y="210"/>
      <point x="779" y="289"/>
      <point x="762" y="297" type="curve"/>
      <point x="668" y="207"/>
      <point x="612" y="180"/>
      <point x="537" y="180" type="curve" smooth="yes"/>
      <point x="427" y="180"/>
      <point x="330" y="288"/>
      <point x="330" y="515" type="curve" smooth="yes"/>
      <point x="330" y="735"/>
      <point x="411" y="820"/>
      <point x="530" y="820" type="curve" smooth="yes"/>
      <point x="601" y="820"/>
      <point x="701" y="761"/>
      <point x="742" y="677" type="curve"/>
      <point x="785" y="703"/>
      <point x="801" y="760"/>
      <point x="801" y="840" type="curve"/>
      <point x="697" y="944"/>
      <point x="631" y="960"/>
      <point x="551" y="960" type="curve" smooth="yes"/>
      <point x="460" y="960"/>
      <point x="349" y="917"/>
      <point x="274" y="865" type="curve" smooth="yes"/>
      <point x="180" y="800"/>
      <point x="60" y="678"/>
      <point x="60" y="444" type="curve" smooth="yes"/>
      <point x="60" y="147"/>
      <point x="248" y="-30"/>
      <point x="406" y="-30" type="curve" smooth="yes"/>
      <point x="554" y="-30"/>
    </contour>
    <contour>
      <point x="735" y="818" type="curve"/>
      <point x="735" y="-207" type="line" smooth="yes"/>
      <point x="735" y="-351"/>
      <point x="816" y="-490"/>
      <point x="1038" y="-490" type="curve" smooth="yes"/>
      <point x="1320" y="-490"/>
      <point x="1494" y="-286"/>
      <point x="1494" y="-177" type="curve"/>
      <point x="1464" y="-116" type="line"/>
      <point x="1426" y="-113"/>
      <point x="1220" y="-164"/>
      <point x="1197" y="-192" type="curve"/>
      <point x="1205" y="-204"/>
      <point x="1209" y="-219"/>
      <point x="1209" y="-233" type="curve" smooth="yes"/>
      <point x="1209" y="-283"/>
      <point x="1183" y="-365"/>
      <point x="1112" y="-365" type="curve" smooth="yes"/>
      <point x="1036" y="-365"/>
      <point x="1005" y="-289"/>
      <point x="1005" y="-136" type="curve" smooth="yes"/>
      <point x="1005" y="717" type="line" smooth="yes"/>
      <point x="1005" y="838"/>
      <point x="1036" y="920"/>
      <point x="1036" y="920" type="curve"/>
      <point x="995" y="960" type="line"/>
      <point x="962" y="927"/>
      <point x="778" y="832"/>
    </contour>
  </outline>
</glyph>
<glyph name="LtnSmAlpha" format="2">
  <advance width="1125"/>
  <unicode hex="0251"/>
  <anchor x="517" y="0" name="H"/>
  <anchor x="590" y="-100" name="L"/>
  <anchor x="850" y="0" name="O"/>
  <anchor x="1164" y="900" name="R"/>
  <anchor x="590" y="1050" name="U"/>
  <outline>
    <contour>
      <point x="1005" y="47"/>
      <point x="1121" y="125" type="curve"/>
      <point x="1121" y="125"/>
      <point x="1087" y="209"/>
      <point x="1087" y="207" type="curve"/>
      <point x="1020" y="176"/>
      <point x="997" y="176"/>
      <point x="982" y="189" type="curve" smooth="yes"/>
      <point x="968" y="201"/>
      <point x="965" y="254"/>
      <point x="965" y="334" type="curve" smooth="yes"/>
      <point x="965" y="683" type="line" smooth="yes"/>
      <point x="965" y="794"/>
      <point x="994" y="920"/>
      <point x="994" y="920" type="curve"/>
      <point x="950" y="960" type="line"/>
      <point x="867" y="902"/>
      <point x="754" y="850"/>
      <point x="695" y="828" type="curve"/>
      <point x="695" y="272" type="line" smooth="yes"/>
      <point x="695" y="49"/>
      <point x="729" y="-30"/>
      <point x="798" y="-30" type="curve" smooth="yes"/>
      <point x="847" y="-30"/>
    </contour>
    <contour>
      <point x="614" y="23"/>
      <point x="770" y="200" type="curve"/>
      <point x="764" y="210"/>
      <point x="740" y="289"/>
      <point x="723" y="297" type="curve"/>
      <point x="610" y="190"/>
      <point x="569" y="180"/>
      <point x="517" y="180" type="curve" smooth="yes"/>
      <point x="426" y="180"/>
      <point x="330" y="283"/>
      <point x="330" y="510" type="curve" smooth="yes"/>
      <point x="330" y="760"/>
      <point x="440" y="820"/>
      <point x="530" y="820" type="curve" smooth="yes"/>
      <point x="600" y="820"/>
      <point x="679" y="761"/>
      <point x="702" y="677" type="curve"/>
      <point x="743" y="703"/>
      <point x="760" y="770"/>
      <point x="760" y="850" type="curve"/>
      <point x="688" y="935"/>
      <point x="620" y="960"/>
      <point x="540" y="960" type="curve" smooth="yes"/>
      <point x="234" y="960"/>
      <point x="60" y="679"/>
      <point x="60" y="439" type="curve" smooth="yes"/>
      <point x="60" y="132"/>
      <point x="228" y="-30"/>
      <point x="405" y="-30" type="curve" smooth="yes"/>
      <point x="525" y="-30"/>
    </contour>
  </outline>
</glyph>
<glyph name="LtnSmOpnO" format="2">
  <advance width="995"/>
  <unicode hex="0254"/>
  <anchor x="457" y="0" name="H"/>
  <anchor x="497" y="-100" name="L"/>
  <anchor x="513" y="0" name="O"/>
  <anchor x="995" y="900" name="R"/>
  <anchor x="497" y="1050" name="U"/>
  <outline>
    <contour>
      <point x="935" y="204"/>
      <point x="935" y="490" type="curve" smooth="yes"/>
      <point x="935" y="787"/>
      <point x="723" y="960"/>
      <point x="499" y="960" type="curve" smooth="yes"/>
      <point x="346" y="960"/>
      <point x="215" y="911"/>
      <point x="83" y="739" type="curve"/>
      <point x="89" y="728"/>
      <point x="126" y="677"/>
      <point x="143" y="669" type="curve"/>
      <point x="260" y="767"/>
      <point x="332" y="780"/>
      <point x="408" y="780" type="curve" smooth="yes"/>
      <point x="528" y="780"/>
      <point x="665" y="687"/>
      <point x="665" y="460" type="curve" smooth="yes"/>
      <point x="665" y="210"/>
      <point x="594" y="100"/>
      <point x="484" y="100" type="curve" smooth="yes"/>
      <point x="400" y="100"/>
      <point x="350" y="167"/>
      <point x="350" y="252" type="curve" smooth="yes"/>
      <point x="350" y="309"/>
      <point x="386" y="374"/>
      <point x="423" y="409" type="curve"/>
      <point x="392" y="486" type="line"/>
      <point x="341" y="476"/>
      <point x="160" y="425"/>
      <point x="110" y="409" type="curve"/>
      <point x="82" y="380"/>
      <point x="60" y="321"/>
      <point x="60" y="258" type="curve" smooth="yes"/>
      <point x="60" y="94"/>
      <point x="223" y="-30"/>
      <point x="453" y="-30" type="curve" smooth="yes"/>
      <point x="731" y="-30"/>
    </contour>
  </outline>
</glyph>
<glyph name="LtnSmDHook" format="2">
  <advance width="1175"/>
  <unicode hex="0257"/>
  <anchor x="569" y="-100" name="L"/>
  <anchor x="569" y="1690" name="U"/>
  <outline>
    <contour>
      <point x="849" y="-31" type="curve" smooth="yes"/>
      <point x="886" y="-31"/>
      <point x="1048" y="42"/>
      <point x="1171" y="124" type="curve"/>
      <point x="1138" y="207" type="line"/>
      <point x="1058" y="176"/>
      <point x="1050" y="172"/>
      <point x="1038" y="186" type="curve" smooth="yes"/>
      <point x="1023" y="205"/>
      <point x="1015" y="220"/>
      <point x="1015" y="314" type="curve" smooth="yes"/>
      <point x="1015" y="1167" type="line" smooth="yes"/>
      <point x="1015" y="1309"/>
      <point x="1026" y="1409"/>
      <point x="1089" y="1409" type="curve" smooth="yes"/>
      <point x="1136" y="1409"/>
      <point x="1178" y="1316"/>
      <point x="1195" y="1245" type="curve"/>
      <point x="1264" y="1279"/>
      <point x="1375" y="1423"/>
      <point x="1375" y="1455" type="curve" smooth="yes"/>
      <point x="1375" y="1500"/>
      <point x="1270" y="1576"/>
      <point x="1144" y="1576" type="curve" smooth="yes"/>
      <point x="1052" y="1576"/>
      <point x="958" y="1519"/>
      <point x="890" y="1449" type="curve" smooth="yes"/>
      <point x="794" y="1350"/>
      <point x="745" y="1235"/>
      <point x="745" y="1062" type="curve" smooth="yes"/>
      <point x="745" y="312" type="line" smooth="yes"/>
      <point x="745" y="34"/>
      <point x="796" y="-31"/>
    </contour>
    <contour>
      <point x="436" y="-30" type="curve" smooth="yes"/>
      <point x="574" y="-30"/>
      <point x="644" y="24"/>
      <point x="819" y="200" type="curve"/>
      <point x="813" y="210"/>
      <point x="789" y="289"/>
      <point x="772" y="297" type="curve"/>
      <point x="678" y="207"/>
      <point x="622" y="180"/>
      <point x="547" y="180" type="curve" smooth="yes"/>
      <point x="437" y="180"/>
      <point x="330" y="298"/>
      <point x="330" y="505" type="curve" smooth="yes"/>
      <point x="330" y="725"/>
      <point x="420" y="820"/>
      <point x="540" y="820" type="curve" smooth="yes"/>
      <point x="641" y="820"/>
      <point x="701" y="771"/>
      <point x="752" y="687" type="curve"/>
      <point x="795" y="713"/>
      <point x="811" y="770"/>
      <point x="811" y="850" type="curve"/>
      <point x="707" y="954"/>
      <point x="631" y="960"/>
      <point x="551" y="960" type="curve" smooth="yes"/>
      <point x="272" y="960"/>
      <point x="60" y="734"/>
      <point x="60" y="444" type="curve" smooth="yes"/>
      <point x="60" y="147"/>
      <point x="248" y="-30"/>
    </contour>
  </outline>
</glyph>
<glyph name="LtnSmRevE" format="2">
  <advance width="1006"/>
  <unicode hex="0258"/>
  <anchor x="495" y="-100" name="L"/>
  <anchor x="1019" y="900" name="R"/>
  <anchor x="495" y="1050" name="U"/>
  <outline>
    <contour>
      <point x="60" y="757"/>
      <point x="60" y="547" type="curve"/>
      <point x="84" y="520"/>
      <point x="167" y="477"/>
      <point x="210" y="460" type="curve"/>
      <point x="824" y="460" type="line"/>
      <point x="822" y="580" type="line"/>
      <point x="362" y="580" type="line" smooth="yes"/>
      <point x="332" y="580"/>
      <point x="324" y="588"/>
      <point x="324" y="616" type="curve" smooth="yes"/>
      <point x="324" y="728"/>
      <point x="383" y="835"/>
      <point x="467" y="835" type="curve" smooth="yes"/>
      <point x="597" y="835"/>
      <point x="676" y="672"/>
      <point x="676" y="457" type="curve" smooth="yes"/>
      <point x="676" y="277"/>
      <point x="584" y="150"/>
      <point x="430" y="150" type="curve" smooth="yes"/>
      <point x="346" y="150"/>
      <point x="282" y="163"/>
      <point x="123" y="266" type="curve"/>
      <point x="106" y="257"/>
      <point x="72" y="205"/>
      <point x="66" y="195" type="curve"/>
      <point x="194" y="20"/>
      <point x="324" y="-30"/>
      <point x="491" y="-30" type="curve" smooth="yes"/>
      <point x="612" y="-30"/>
      <point x="777" y="40"/>
      <point x="854" y="150" type="curve" smooth="yes"/>
      <point x="925" y="252"/>
      <point x="946" y="367"/>
      <point x="946" y="504" type="curve" smooth="yes"/>
      <point x="946" y="746"/>
      <point x="806" y="960"/>
      <point x="522" y="960" type="curve" smooth="yes"/>
      <point x="220" y="960"/>
    </contour>
  </outline>
</glyph>
<glyph name="LtnSmSchwaHook" format="2">
  <advance width="1327"/>
  <unicode hex="025A"/>
  <anchor x="460" y="0" name="H"/>
  <anchor x="665" y="-100" name="L"/>
  <anchor x="490" y="0" name="O"/>
  <anchor x="665" y="1050" name="U"/>
  <outline>
    <contour>
      <point x="822" y="618"/>
      <point x="944" y="708" type="curve"/>
      <point x="939" y="685"/>
      <point x="938" y="674"/>
      <point x="938" y="659" type="curve" smooth="yes"/>
      <point x="938" y="569"/>
      <point x="984" y="536"/>
      <point x="1041" y="536" type="curve" smooth="yes"/>
      <point x="1117" y="536"/>
      <point x="1189" y="595"/>
      <point x="1287" y="686" type="curve"/>
      <point x="1265" y="749" type="line"/>
      <point x="1230" y="727"/>
      <point x="1180" y="702"/>
      <point x="1134" y="701" type="curve" smooth="yes"/>
      <point x="1102" y="700"/>
      <point x="1080" y="718"/>
      <point x="1081" y="767" type="curve" smooth="yes"/>
      <point x="1082" y="804"/>
      <point x="1099" y="867"/>
      <point x="1137" y="914" type="curve"/>
      <point x="1088" y="960" type="line"/>
      <point x="921" y="823"/>
      <point x="766" y="719"/>
      <point x="516" y="575" type="curve" smooth="yes"/>
      <point x="10" y="283"/>
      <point x="10" y="281"/>
      <point x="10" y="227" type="curve" smooth="yes"/>
      <point x="10" y="122"/>
      <point x="157" y="-30"/>
      <point x="416" y="-30" type="curve" smooth="yes"/>
      <point x="545" y="-30"/>
      <point x="667" y="28"/>
      <point x="742" y="110" type="curve" smooth="yes"/>
      <point x="833" y="208"/>
      <point x="885" y="348"/>
      <point x="885" y="505" type="curve" smooth="yes"/>
      <point x="885" y="802"/>
      <point x="674" y="960"/>
      <point x="469" y="960" type="curve" smooth="yes"/>
      <point x="276" y="960"/>
      <point x="167" y="907"/>
      <point x="5" y="735" type="curve"/>
      <point x="13" y="724"/>
      <point x="45" y="674"/>
      <point x="62" y="666" type="curve"/>
      <point x="199" y="764"/>
      <point x="294" y="780"/>
      <point x="367" y="780" type="curve" smooth="yes"/>
      <point x="485" y="780"/>
      <point x="606" y="683"/>
      <point x="606" y="454" type="curve" smooth="yes"/>
      <point x="606" y="173"/>
      <point x="541" y="94"/>
      <point x="434" y="94" type="curve" smooth="yes"/>
      <point x="336" y="94"/>
      <point x="279" y="184"/>
      <point x="279" y="225" type="curve" smooth="yes"/>
      <point x="279" y="287"/>
      <point x="279" y="289"/>
      <point x="547" y="448" type="curve" smooth="yes"/>
      <point x="704" y="541"/>
    </contour>
  </outline>
</glyph>
<glyph name="LtnSmRevOpnEHook" format="2">
  <advance width="1307"/>
  <unicode hex="025D"/>
  <anchor x="460" y="-100" name="L"/>
  <anchor x="460" y="1050" name="U"/>
  <outline>
    <contour>
      <point x="83" y="262" type="curve"/>
      <point x="25" y="191" type="line"/>
      <point x="156" y="36"/>
      <point x="318" y="-30"/>
      <point x="443" y="-30" type="curve" smooth="yes"/>
      <point x="676" y="-30"/>
      <point x="859" y="118"/>
      <point x="859" y="291" type="curve" smooth="yes"/>
      <point x="859" y="412"/>
      <point x="766" y="504"/>
      <point x="629" y="517" type="curve"/>
      <point x="728" y="551"/>
      <point x="826" y="627"/>
      <point x="826" y="726" type="curve" smooth="yes"/>
      <point x="826" y="887"/>
      <point x="635" y="960"/>
      <point x="469" y="960" type="curve" smooth="yes"/>
      <point x="286" y="960"/>
      <point x="156" y="912"/>
      <point x="65" y="841" type="curve"/>
      <point x="59" y="808"/>
      <point x="121" y="643"/>
      <point x="143" y="606" type="curve"/>
      <point x="227" y="617" type="line"/>
      <point x="230" y="724"/>
      <point x="287" y="835"/>
      <point x="429" y="835" type="curve" smooth="yes"/>
      <point x="518" y="835"/>
      <point x="566" y="771"/>
      <point x="566" y="697" type="curve" smooth="yes"/>
      <point x="566" y="605"/>
      <point x="486" y="549"/>
      <point x="323" y="532" type="curve"/>
      <point x="306" y="444" type="line"/>
      <point x="456" y="431"/>
      <point x="575" y="384"/>
      <point x="575" y="284" type="curve" smooth="yes"/>
      <point x="575" y="200"/>
      <point x="507" y="150"/>
      <point x="402" y="150" type="curve" smooth="yes"/>
      <point x="326" y="150"/>
      <point x="223" y="153"/>
    </contour>
    <contour>
      <point x="1096" y="869"/>
      <point x="1134" y="914" type="curve"/>
      <point x="1086" y="960" type="line"/>
      <point x="1008" y="897"/>
      <point x="889" y="840"/>
      <point x="729" y="780" type="curve"/>
      <point x="757" y="662" type="line"/>
      <point x="833" y="706"/>
      <point x="906" y="737"/>
      <point x="952" y="746" type="curve"/>
      <point x="942" y="723"/>
      <point x="935" y="686"/>
      <point x="935" y="656" type="curve" smooth="yes"/>
      <point x="935" y="568"/>
      <point x="984" y="536"/>
      <point x="1038" y="536" type="curve" smooth="yes"/>
      <point x="1110" y="536"/>
      <point x="1192" y="595"/>
      <point x="1284" y="686" type="curve"/>
      <point x="1262" y="749" type="line"/>
      <point x="1195" y="709"/>
      <point x="1159" y="701"/>
      <point x="1131" y="701" type="curve" smooth="yes"/>
      <point x="1094" y="701"/>
      <point x="1078" y="722"/>
      <point x="1078" y="767" type="curve" smooth="yes"/>
      <point x="1078" y="800"/>
    </contour>
  </outline>
</glyph>
<glyph name="LtnSmGHook" format="2">
  <advance width="1201"/>
  <unicode hex="0260"/>
  <anchor x="550" y="-600" name="L"/>
  <anchor x="598" y="1050" name="U"/>
  <outline>
    <contour>
      <point x="456" y="-500" type="curve" smooth="yes"/>
      <point x="639" y="-500"/>
      <point x="1022" y="-326"/>
      <point x="1011" y="130" type="curve" smooth="yes"/>
      <point x="990" y="967" type="line" smooth="yes"/>
      <point x="986" y="1109"/>
      <point x="1001" y="1209"/>
      <point x="1064" y="1209" type="curve" smooth="yes"/>
      <point x="1111" y="1209"/>
      <point x="1153" y="1116"/>
      <point x="1170" y="1045" type="curve"/>
      <point x="1239" y="1079"/>
      <point x="1351" y="1223"/>
      <point x="1351" y="1255" type="curve" smooth="yes"/>
      <point x="1351" y="1300"/>
      <point x="1245" y="1376"/>
      <point x="1119" y="1376" type="curve" smooth="yes"/>
      <point x="1027" y="1376"/>
      <point x="933" y="1319"/>
      <point x="865" y="1249" type="curve" smooth="yes"/>
      <point x="769" y="1150"/>
      <point x="724" y="1034"/>
      <point x="724" y="921" type="curve" smooth="yes"/>
      <point x="724" y="900" type="line"/>
      <point x="658" y="950"/>
      <point x="612" y="960"/>
      <point x="551" y="960" type="curve" smooth="yes"/>
      <point x="234" y="960"/>
      <point x="60" y="635"/>
      <point x="60" y="406" type="curve" smooth="yes"/>
      <point x="60" y="129"/>
      <point x="236" y="-30"/>
      <point x="416" y="-30" type="curve" smooth="yes"/>
      <point x="533" y="-30"/>
      <point x="616" y="8"/>
      <point x="734" y="152" type="curve"/>
      <point x="736" y="37" type="line" smooth="yes"/>
      <point x="741" y="-300"/>
      <point x="644" y="-330"/>
      <point x="542" y="-330" type="curve" smooth="yes"/>
      <point x="447" y="-330"/>
      <point x="375" y="-272"/>
      <point x="288" y="-161" type="curve"/>
      <point x="245" y="-172"/>
      <point x="80" y="-317"/>
      <point x="80" y="-344" type="curve" smooth="yes"/>
      <point x="80" y="-397"/>
      <point x="252" y="-500"/>
    </contour>
    <contour>
      <point x="537" y="180" type="curve" smooth="yes"/>
      <point x="427" y="180"/>
      <point x="330" y="283"/>
      <point x="330" y="466" type="curve" smooth="yes"/>
      <point x="330" y="674"/>
      <point x="400" y="820"/>
      <point x="550" y="820" type="curve" smooth="yes"/>
      <point x="620" y="820"/>
      <point x="685" y="765"/>
      <point x="727" y="685" type="curve"/>
      <point x="732" y="284" type="line"/>
      <point x="630" y="182"/>
      <point x="575" y="180"/>
    </contour>
  </outline>
</glyph>
<glyph name="LtnSmGamma" format="2">
  <advance width="1050"/>
  <unicode hex="0263"/>
  <anchor x="537" y="-600" name="L"/>
  <anchor x="540" y="1050" name="U"/>
  <outline>
    <contour>
      <point x="959" y="828"/>
      <point x="1039" y="847" type="curve"/>
      <point x="1039" y="930" type="line"/>
      <point x="675" y="930" type="line"/>
      <point x="675" y="847" type="line"/>
      <point x="774" y="832"/>
      <point x="790" y="817"/>
      <point x="770" y="779" type="curve" smooth="yes"/>
      <point x="364" y="9" type="line" smooth="yes"/>
      <point x="282" y="-147"/>
      <point x="258" y="-207"/>
      <point x="258" y="-284" type="curve" smooth="yes"/>
      <point x="258" y="-394"/>
      <point x="365" y="-490"/>
      <point x="523" y="-490" type="curve" smooth="yes"/>
      <point x="722" y="-490"/>
      <point x="845" y="-343"/>
      <point x="845" y="-215" type="curve" smooth="yes"/>
      <point x="845" y="-106"/>
      <point x="815" y="-42"/>
      <point x="735" y="117" type="curve" smooth="yes"/>
      <point x="401" y="779" type="line" smooth="yes"/>
      <point x="381" y="819"/>
      <point x="383" y="834"/>
      <point x="486" y="847" type="curve"/>
      <point x="486" y="930" type="line"/>
      <point x="10" y="930" type="line"/>
      <point x="10" y="847" type="line"/>
      <point x="76" y="832"/>
      <point x="94" y="813"/>
      <point x="111" y="779" type="curve" smooth="yes"/>
      <point x="497" y="1" type="line" smooth="yes"/>
      <point x="574" y="-153"/>
      <point x="592" y="-204"/>
      <point x="592" y="-262" type="curve" smooth="yes"/>
      <point x="592" y="-313"/>
      <point x="557" y="-348"/>
      <point x="506" y="-348" type="curve" smooth="yes"/>
      <point x="454" y="-348"/>
      <point x="419" y="-313"/>
      <point x="419" y="-261" type="curve" smooth="yes"/>
      <point x="419" y="-216"/>
      <point x="462" y="-136"/>
      <point x="561" y="58" type="curve" smooth="yes"/>
      <point x="929" y="779" type="line" smooth="yes"/>
      <point x="948" y="816"/>
    </contour>
  </outline>
</glyph>
<glyph name="LtnSmTurnedH" format="2">
  <advance width="1176"/>
  <unicode hex="0265"/>
  <anchor x="446" y="-100" name="L"/>
  <anchor x="623" y="1050" name="U"/>
  <outline>
    <contour>
      <point x="1176" y="-430" type="curve"/>
      <point x="1176" y="-350" type="line"/>
      <point x="1053" y="-337"/>
      <point x="1046" y="-331"/>
      <point x="1046" y="-195" type="curve"/>
      <point x="1046" y="915" type="line"/>
      <point x="999" y="959" type="line"/>
      <point x="893" y="920"/>
      <point x="809" y="900"/>
      <point x="646" y="879" type="curve"/>
      <point x="646" y="799" type="line"/>
      <point x="775" y="784"/>
      <point x="776" y="778"/>
      <point x="776" y="667" type="curve" smooth="yes"/>
      <point x="776" y="261" type="line"/>
      <point x="677" y="205"/>
      <point x="610" y="170"/>
      <point x="539" y="170" type="curve" smooth="yes"/>
      <point x="461" y="170"/>
      <point x="431" y="215"/>
      <point x="431" y="377" type="curve" smooth="yes"/>
      <point x="431" y="915" type="line"/>
      <point x="384" y="959" type="line"/>
      <point x="278" y="920"/>
      <point x="194" y="900"/>
      <point x="31" y="879" type="curve"/>
      <point x="31" y="799" type="line"/>
      <point x="160" y="784"/>
      <point x="161" y="778"/>
      <point x="161" y="667" type="curve" smooth="yes"/>
      <point x="161" y="239" type="line" smooth="yes"/>
      <point x="161" y="39"/>
      <point x="267" y="-30"/>
      <point x="382" y="-30" type="curve" smooth="yes"/>
      <point x="486" y="-30"/>
      <point x="611" y="6"/>
      <point x="776" y="116" type="curve"/>
      <point x="776" y="-455" type="line"/>
      <point x="791" y="-470"/>
      <point x="806" y="-485"/>
      <point x="821" y="-500" type="curve"/>
      <point x="947" y="-463"/>
      <point x="1010" y="-452"/>
    </contour>
  </outline>
</glyph>
<glyph name="LtnSmHHook" format="2">
  <advance width="1210"/>
  <unicode hex="0266"/>
  <anchor x="618" y="-100" name="L"/>
  <anchor x="657" y="1690" name="U"/>
  <outline>
    <contour>
      <point x="660" y="0" type="line"/>
      <point x="1190" y="0" type="line"/>
      <point x="1190" y="83" type="line"/>
      <point x="1085" y="110"/>
      <point x="1060" y="126"/>
      <point x="1060" y="144" type="curve" smooth="yes"/>
      <point x="1060" y="691" type="line" smooth="yes"/>
      <point x="1060" y="891"/>
      <point x="954" y="960"/>
      <point x="839" y="960" type="curve" smooth="yes"/>
      <point x="735" y="960"/>
      <point x="610" y="924"/>
      <point x="445" y="814" type="curve"/>
      <point x="445" y="926" type="line" smooth="yes"/>
      <point x="445" y="1307"/>
      <point x="538" y="1385"/>
      <point x="624" y="1385" type="curve" smooth="yes"/>
      <point x="722" y="1385"/>
      <point x="810" y="1282"/>
      <point x="865" y="1213" type="curve"/>
      <point x="904" y="1231"/>
      <point x="1042" y="1362"/>
      <point x="1042" y="1404" type="curve" smooth="yes"/>
      <point x="1042" y="1439"/>
      <point x="882" y="1550"/>
      <point x="723" y="1550" type="curve" smooth="yes"/>
      <point x="572" y="1550"/>
      <point x="428" y="1470"/>
      <point x="354" y="1398" type="curve" smooth="yes"/>
      <point x="220" y="1268"/>
      <point x="175" y="1142"/>
      <point x="175" y="821" type="curve" smooth="yes"/>
      <point x="175" y="144" type="line" smooth="yes"/>
      <point x="175" y="122"/>
      <point x="133" y="106"/>
      <point x="45" y="83" type="curve"/>
      <point x="45" y="0" type="line"/>
      <point x="575" y="0" type="line"/>
      <point x="575" y="83" type="line"/>
      <point x="489" y="101"/>
      <point x="445" y="124"/>
      <point x="445" y="144" type="curve" smooth="yes"/>
      <point x="445" y="669" type="line"/>
      <point x="547" y="725"/>
      <point x="610" y="760"/>
      <point x="682" y="760" type="curve" smooth="yes"/>
      <point x="760" y="760"/>
      <point x="790" y="715"/>
      <point x="790" y="553" type="curve" smooth="yes"/>
      <point x="790" y="144" type="line" smooth="yes"/>
      <point x="790" y="126"/>
      <point x="756" y="108"/>
      <point x="660" y="83" type="curve"/>
    </contour>
  </outline>
</glyph>
<glyph name="LtnSmCapI" format="2">
  <advance width="680"/>
  <unicode hex="026A"/>
  <anchor x="339" y="0" name="H"/>
  <anchor x="339" y="-100" name="L"/>
  <anchor x="387" y="0" name="O"/>
  <anchor x="685" y="900" name="R"/>
  <anchor x="339" y="1050" name="U"/>
  <outline>
    <contour>
      <point x="65" y="0" type="line"/>
      <point x="615" y="0" type="line"/>
      <point x="615" y="83" type="line"/>
      <point x="518" y="101"/>
      <point x="475" y="128"/>
      <point x="475" y="144" type="curve" smooth="yes"/>
      <point x="475" y="786" type="line" smooth="yes"/>
      <point x="475" y="804"/>
      <point x="525" y="829"/>
      <point x="615" y="847" type="curve"/>
      <point x="615" y="930" type="line"/>
      <point x="65" y="930" type="line"/>
      <point x="65" y="847" type="line"/>
      <point x="162" y="829"/>
      <point x="205" y="802"/>
      <point x="205" y="786" type="curve" smooth="yes"/>
      <point x="205" y="144" type="line" smooth="yes"/>
      <point x="205" y="126"/>
      <point x="155" y="101"/>
      <point x="65" y="83" type="curve"/>
    </contour>
  </outline>
</glyph>
<glyph name="LtnSmLMiddleTilde" format="2">
  <advance width="822"/>
  <unicode hex="026B"/>
  <anchor x="411" y="-100" name="L"/>
  <anchor x="411" y="1690" name="U"/>
  <outline>
    <contour>
      <point x="136" y="0" type="line"/>
      <point x="686" y="0" type="line"/>
      <point x="686" y="83" type="line"/>
      <point x="577" y="101"/>
      <point x="546" y="124"/>
      <point x="546" y="144" type="curve" smooth="yes"/>
      <point x="546" y="1506" type="line"/>
      <point x="500" y="1550" type="line"/>
      <point x="388" y="1507"/>
      <point x="292" y="1489"/>
      <point x="146" y="1470" type="curve"/>
      <point x="146" y="1390" type="line"/>
      <point x="258" y="1377"/>
      <point x="276" y="1377"/>
      <point x="276" y="1256" type="curve" smooth="yes"/>
      <point x="276" y="144" type="line" smooth="yes"/>
      <point x="276" y="122"/>
      <point x="251" y="103"/>
      <point x="136" y="83" type="curve"/>
    </contour>
    <contour>
      <point x="775" y="809"/>
      <point x="822" y="917" type="curve"/>
      <point x="738" y="950" type="line"/>
      <point x="693" y="872"/>
      <point x="654" y="837"/>
      <point x="593" y="837" type="curve" smooth="yes"/>
      <point x="499" y="837"/>
      <point x="400" y="940"/>
      <point x="269" y="940" type="curve" smooth="yes"/>
      <point x="141" y="940"/>
      <point x="47" y="749"/>
      <point x="0" y="640" type="curve"/>
      <point x="83" y="610" type="line"/>
      <point x="132" y="684"/>
      <point x="163" y="723"/>
      <point x="226" y="723" type="curve" smooth="yes"/>
      <point x="334" y="723"/>
      <point x="430" y="620"/>
      <point x="552" y="620" type="curve" smooth="yes"/>
      <point x="681" y="620"/>
    </contour>
  </outline>
</glyph>
<glyph name="LtnSmTurnedMLngLeg" format="2">
  <advance width="1720"/>
  <unicode hex="0270"/>
  <anchor x="755" y="-100" name="L"/>
  <anchor x="825" y="1050" name="U"/>
  <outline>
    <contour>
      <point x="1700" y="-420" type="curve"/>
      <point x="1700" y="-340" type="line"/>
      <point x="1586" y="-327"/>
      <point x="1570" y="-323"/>
      <point x="1570" y="-206" type="curve" smooth="yes"/>
      <point x="1570" y="911" type="line" smooth="yes"/>
      <point x="1570" y="912"/>
      <point x="1532" y="960"/>
      <point x="1532" y="960" type="curve"/>
      <point x="1456" y="936"/>
      <point x="1341" y="915"/>
      <point x="1181" y="904" type="curve"/>
      <point x="1181" y="824" type="line"/>
      <point x="1299" y="813"/>
      <point x="1300" y="808"/>
      <point x="1300" y="696" type="curve" smooth="yes"/>
      <point x="1300" y="327" type="line"/>
      <point x="1223" y="204"/>
      <point x="1148" y="160"/>
      <point x="1088" y="160" type="curve" smooth="yes"/>
      <point x="1025" y="160"/>
      <point x="995" y="182"/>
      <point x="995" y="337" type="curve" smooth="yes"/>
      <point x="995" y="911" type="line"/>
      <point x="957" y="960" type="line"/>
      <point x="852" y="926"/>
      <point x="702" y="907"/>
      <point x="606" y="904" type="curve"/>
      <point x="606" y="824" type="line"/>
      <point x="722" y="814"/>
      <point x="725" y="804"/>
      <point x="725" y="696" type="curve" smooth="yes"/>
      <point x="725" y="327" type="line"/>
      <point x="650" y="204"/>
      <point x="571" y="160"/>
      <point x="513" y="160" type="curve" smooth="yes"/>
      <point x="450" y="160"/>
      <point x="420" y="183"/>
      <point x="420" y="337" type="curve" smooth="yes"/>
      <point x="420" y="911" type="line"/>
      <point x="382" y="960" type="line"/>
      <point x="284" y="928"/>
      <point x="122" y="909"/>
      <point x="31" y="904" type="curve"/>
      <point x="31" y="824" type="line"/>
      <point x="148" y="814"/>
      <point x="150" y="811"/>
      <point x="150" y="696" type="curve" smooth="yes"/>
      <point x="150" y="239" type="line" smooth="yes"/>
      <point x="150" y="69"/>
      <point x="235" y="-30"/>
      <point x="392" y="-30" type="curve" smooth="yes"/>
      <point x="520" y="-30"/>
      <point x="610" y="2"/>
      <point x="730" y="146" type="curve"/>
      <point x="742" y="112" type="line" smooth="yes"/>
      <point x="769" y="35"/>
      <point x="829" y="-30"/>
      <point x="957" y="-30" type="curve" smooth="yes"/>
      <point x="1050" y="-30"/>
      <point x="1183" y="22"/>
      <point x="1300" y="146" type="curve"/>
      <point x="1300" y="-55"/>
      <point x="1300" y="-256"/>
      <point x="1300" y="-457" type="curve"/>
      <point x="1316" y="-471"/>
      <point x="1331" y="-486"/>
      <point x="1347" y="-500" type="curve"/>
      <point x="1449" y="-457"/>
      <point x="1569" y="-438"/>
    </contour>
  </outline>
</glyph>
<glyph name="LtnSmBarredO" format="2">
  <advance width="1090"/>
  <unicode hex="0275"/>
  <anchor x="556" y="-100" name="L"/>
  <anchor x="1090" y="900" name="R"/>
  <anchor x="556" y="1050" name="U"/>
  <outline>
    <contour>
      <point x="1030" y="219"/>
      <point x="1030" y="485" type="curve" smooth="yes"/>
      <point x="1030" y="758"/>
      <point x="846" y="960"/>
      <point x="565" y="960" type="curve" smooth="yes"/>
      <point x="265" y="960"/>
      <point x="60" y="709"/>
      <point x="60" y="444" type="curve" smooth="yes"/>
      <point x="60" y="172"/>
      <point x="244" y="-30"/>
      <point x="526" y="-30" type="curve" smooth="yes"/>
      <point x="799" y="-30"/>
    </contour>
    <contour>
      <point x="717" y="711"/>
      <point x="739" y="530" type="curve"/>
      <point x="345" y="530" type="line"/>
      <point x="354" y="716"/>
      <point x="401" y="830"/>
      <point x="536" y="830" type="curve" smooth="yes"/>
      <point x="648" y="830"/>
    </contour>
    <contour>
      <point x="348" y="400" type="curve"/>
      <point x="745" y="400" type="line"/>
      <point x="738" y="194"/>
      <point x="691" y="100"/>
      <point x="554" y="100" type="curve" smooth="yes"/>
      <point x="448" y="100"/>
      <point x="366" y="214"/>
    </contour>
  </outline>
</glyph>
<glyph name="LtnSmSquatRevEsh" format="2">
  <advance width="903"/>
  <unicode hex="0285"/>
  <anchor x="642" y="-600" name="L"/>
  <anchor x="450" y="1050" name="U"/>
  <outline>
    <contour>
      <point x="764" y="-146" type="curve" smooth="yes"/>
      <point x="764" y="630" type="line" smooth="yes"/>
      <point x="764" y="900"/>
      <point x="634" y="960"/>
      <point x="466" y="960" type="curve" smooth="yes"/>
      <point x="299" y="960"/>
      <point x="153" y="900"/>
      <point x="39" y="795" type="curve"/>
      <point x="28" y="765"/>
      <point x="68" y="588"/>
      <point x="118" y="486" type="curve"/>
      <point x="201" y="486" type="line"/>
      <point x="204" y="611"/>
      <point x="264" y="810"/>
      <point x="374" y="810" type="curve" smooth="yes"/>
      <point x="443" y="810"/>
      <point x="492" y="765"/>
      <point x="494" y="541" type="curve" smooth="yes"/>
      <point x="494" y="-217" type="line" smooth="yes"/>
      <point x="494" y="-361"/>
      <point x="575" y="-500"/>
      <point x="797" y="-500" type="curve" smooth="yes"/>
      <point x="1079" y="-500"/>
      <point x="1243" y="-296"/>
      <point x="1243" y="-187" type="curve"/>
      <point x="1213" y="-126" type="line"/>
      <point x="1150" y="-120"/>
      <point x="937" y="-186"/>
      <point x="946" y="-202" type="curve" smooth="yes"/>
      <point x="953" y="-215"/>
      <point x="957" y="-232"/>
      <point x="957" y="-249" type="curve" smooth="yes"/>
      <point x="957" y="-307"/>
      <point x="918" y="-375"/>
      <point x="861" y="-375" type="curve" smooth="yes"/>
      <point x="795" y="-375"/>
      <point x="764" y="-299"/>
    </contour>
  </outline>
</glyph>
<glyph name="LtnSmUpsilon" format="2">
  <advance width="1055"/>
  <unicode hex="028A"/>
  <anchor x="527" y="0" name="H"/>
  <anchor x="527" y="-100" name="L"/>
  <anchor x="567" y="0" name="O"/>
  <anchor x="1055" y="900" name="R"/>
  <anchor x="527" y="1050" name="U"/>
  <outline>
    <contour>
      <point x="995" y="847"/>
      <point x="995" y="847" type="curve"/>
      <point x="995" y="930" type="line"/>
      <point x="611" y="930" type="line"/>
      <point x="581" y="798" type="line"/>
      <point x="708" y="722"/>
      <point x="734" y="584"/>
      <point x="734" y="383" type="curve" smooth="yes"/>
      <point x="734" y="228"/>
      <point x="666" y="100"/>
      <point x="540" y="100" type="curve" smooth="yes"/>
      <point x="416" y="100"/>
      <point x="335" y="240"/>
      <point x="335" y="418" type="curve" smooth="yes"/>
      <point x="335" y="617"/>
      <point x="353" y="701"/>
      <point x="480" y="798" type="curve"/>
      <point x="452" y="930" type="line"/>
      <point x="65" y="930" type="line"/>
      <point x="65" y="847" type="line"/>
      <point x="65" y="847"/>
      <point x="303" y="796"/>
      <point x="256" y="753" type="curve" smooth="yes"/>
      <point x="133" y="642"/>
      <point x="60" y="539"/>
      <point x="60" y="389" type="curve" smooth="yes"/>
      <point x="60" y="164"/>
      <point x="206" y="-30"/>
      <point x="521" y="-30" type="curve" smooth="yes"/>
      <point x="875" y="-30"/>
      <point x="989" y="236"/>
      <point x="989" y="424" type="curve" smooth="yes"/>
      <point x="989" y="559"/>
      <point x="920" y="650"/>
      <point x="803" y="753" type="curve"/>
      <point x="758" y="794"/>
    </contour>
  </outline>
</glyph>
<glyph name="LtnSmTurnedV" format="2">
  <advance width="1060"/>
  <unicode hex="028C"/>
  <anchor x="848" y="0" name="H"/>
  <anchor x="534" y="-100" name="L"/>
  <anchor x="763" y="0" name="O"/>
  <anchor x="824" y="900" name="R"/>
  <anchor x="534" y="1050" name="U"/>
  <outline>
    <contour>
      <point x="100" y="102"/>
      <point x="20" y="83" type="curve"/>
      <point x="20" y="0" type="line"/>
      <point x="343" y="0" type="line"/>
      <point x="343" y="83" type="line"/>
      <point x="255" y="98"/>
      <point x="252" y="111"/>
      <point x="269" y="151" type="curve" smooth="yes"/>
      <point x="463" y="608" type="line"/>
      <point x="666" y="151" type="line" smooth="yes"/>
      <point x="685" y="109"/>
      <point x="676" y="96"/>
      <point x="573" y="83" type="curve"/>
      <point x="573" y="0" type="line"/>
      <point x="1049" y="0" type="line"/>
      <point x="1049" y="83" type="line"/>
      <point x="983" y="98"/>
      <point x="964" y="115"/>
      <point x="948" y="151" type="curve" smooth="yes"/>
      <point x="588" y="960" type="line"/>
      <point x="513" y="942"/>
      <point x="427" y="900"/>
      <point x="403" y="841" type="curve" smooth="yes"/>
      <point x="120" y="151" type="line" smooth="yes"/>
      <point x="104" y="113"/>
    </contour>
  </outline>
</glyph>
<glyph name="LtnSmZCurl" format="2">
  <advance width="1068"/>
  <unicode hex="0291"/>
  <anchor x="498" y="-100" name="L"/>
  <anchor x="553" y="1050" name="U"/>
  <outline>
    <contour>
      <point x="985" y="433"/>
      <point x="863" y="433" type="curve" smooth="yes"/>
      <point x="645" y="433"/>
      <point x="516" y="195"/>
      <point x="474" y="-203" type="curve"/>
      <point x="579" y="-214" type="line"/>
      <point x="609" y="50"/>
      <point x="682" y="272"/>
      <point x="806" y="272" type="curve" smooth="yes"/>
      <point x="865" y="272"/>
      <point x="889" y="240"/>
      <point x="889" y="210" type="curve" smooth="yes"/>
      <point x="889" y="150"/>
      <point x="835" y="130"/>
      <point x="707" y="130" type="curve" smooth="yes"/>
      <point x="395" y="130" type="line"/>
      <point x="917" y="887" type="line"/>
      <point x="895" y="930" type="line"/>
      <point x="313" y="930" type="line" smooth="yes"/>
      <point x="227" y="930"/>
      <point x="195" y="930"/>
      <point x="137" y="946" type="curve"/>
      <point x="109" y="592" type="line"/>
      <point x="188" y="570" type="line"/>
      <point x="215" y="693"/>
      <point x="272" y="800"/>
      <point x="345" y="800" type="curve" smooth="yes"/>
      <point x="576" y="800" type="line"/>
      <point x="56" y="45" type="line"/>
      <point x="82" y="0" type="line"/>
      <point x="730" y="0" type="line"/>
      <point x="935" y="0"/>
      <point x="1032" y="140"/>
      <point x="1032" y="256" type="curve" smooth="yes"/>
      <point x="1032" y="350"/>
    </contour>
  </outline>
</glyph>
<glyph name="LtnSmEzh" format="2">
  <advance width="995"/>
  <unicode hex="0292"/>
  <anchor x="480" y="-600" name="L"/>
  <anchor x="480" y="1050" name="U"/>
  <outline>
    <contour>
      <point x="945" y="-318"/>
      <point x="945" y="-36" type="curve" smooth="yes"/>
      <point x="945" y="238"/>
      <point x="756" y="351"/>
      <point x="553" y="355" type="curve" smooth="yes"/>
      <point x="545" y="355"/>
      <point x="527" y="353"/>
      <point x="518" y="352" type="curve"/>
      <point x="928" y="887" type="line"/>
      <point x="905" y="930" type="line"/>
      <point x="291" y="930" type="line" smooth="yes"/>
      <point x="205" y="930"/>
      <point x="162" y="930"/>
      <point x="105" y="946" type="curve"/>
      <point x="79" y="592" type="line"/>
      <point x="158" y="570" type="line"/>
      <point x="195" y="723"/>
      <point x="249" y="800"/>
      <point x="315" y="800" type="curve" smooth="yes"/>
      <point x="601" y="800" type="line"/>
      <point x="186" y="270" type="line"/>
      <point x="189" y="259"/>
      <point x="212" y="210"/>
      <point x="221" y="196" type="curve"/>
      <point x="292" y="220"/>
      <point x="358" y="239"/>
      <point x="409" y="239" type="curve" smooth="yes"/>
      <point x="620" y="239"/>
      <point x="675" y="83"/>
      <point x="675" y="-97" type="curve" smooth="yes"/>
      <point x="675" y="-270"/>
      <point x="580" y="-340"/>
      <point x="481" y="-340" type="curve" smooth="yes"/>
      <point x="372" y="-340"/>
      <point x="304" y="-256"/>
      <point x="252" y="-110" type="curve"/>
      <point x="197" y="-118"/>
      <point x="15" y="-246"/>
      <point x="15" y="-281" type="curve" smooth="yes"/>
      <point x="15" y="-346"/>
      <point x="182" y="-490"/>
      <point x="422" y="-490" type="curve" smooth="yes"/>
      <point x="664" y="-490"/>
    </contour>
  </outline>
</glyph>
<glyph name="LtnSmCapGHook" format="2">
  <advance width="1136"/>
  <unicode hex="029B"/>
  <anchor x="524" y="-100" name="L"/>
  <anchor x="524" y="1050" name="U"/>
  <outline>
    <contour>
      <point x="1422" y="1366"/>
      <point x="1422" y="1407" type="curve"/>
      <point x="1422" y="1447"/>
      <point x="1294" y="1550"/>
      <point x="1156" y="1550" type="curve" smooth="yes"/>
      <point x="1054" y="1550"/>
      <point x="945" y="1488"/>
      <point x="882" y="1423" type="curve" smooth="yes"/>
      <point x="805" y="1344"/>
      <point x="748" y="1257"/>
      <point x="746" y="1042" type="curve" smooth="yes"/>
      <point x="746" y="953" type="line"/>
      <point x="714" y="958"/>
      <point x="685" y="960"/>
      <point x="655" y="960" type="curve" smooth="yes"/>
      <point x="323" y="960"/>
      <point x="70" y="759"/>
      <point x="70" y="444" type="curve" smooth="yes"/>
      <point x="70" y="125"/>
      <point x="286" y="-22"/>
      <point x="552" y="-22" type="curve" smooth="yes"/>
      <point x="651" y="-22"/>
      <point x="833" y="-6"/>
      <point x="996" y="115" type="curve"/>
      <point x="995" y="115"/>
      <point x="994" y="116"/>
      <point x="993" y="117" type="curve"/>
      <point x="994" y="118"/>
      <point x="996" y="119"/>
      <point x="996" y="119" type="curve"/>
      <point x="996" y="286" type="line" smooth="yes"/>
      <point x="996" y="319"/>
      <point x="1044" y="363"/>
      <point x="1106" y="377" type="curve"/>
      <point x="1106" y="460" type="line"/>
      <point x="586" y="460" type="line"/>
      <point x="586" y="377" type="line"/>
      <point x="720" y="358"/>
      <point x="746" y="317"/>
      <point x="746" y="286" type="curve" smooth="yes"/>
      <point x="746" y="131" type="line"/>
      <point x="698" y="122"/>
      <point x="679" y="119"/>
      <point x="612" y="119" type="curve" smooth="yes"/>
      <point x="449" y="119"/>
      <point x="340" y="258"/>
      <point x="340" y="474" type="curve" smooth="yes"/>
      <point x="340" y="773"/>
      <point x="498" y="849"/>
      <point x="575" y="849" type="curve" smooth="yes"/>
      <point x="683" y="849"/>
      <point x="754" y="789"/>
      <point x="818" y="664" type="curve"/>
      <point x="867" y="657" type="line"/>
      <point x="894" y="680"/>
      <point x="997" y="843"/>
      <point x="997" y="869" type="curve" smooth="yes"/>
      <point x="997" y="1091" type="line" smooth="yes"/>
      <point x="997" y="1313"/>
      <point x="1024" y="1385"/>
      <point x="1098" y="1385" type="curve" smooth="yes"/>
      <point x="1135" y="1385"/>
      <point x="1186" y="1370"/>
      <point x="1212" y="1214" type="curve"/>
      <point x="1261" y="1240"/>
    </contour>
  </outline>
</glyph>
<glyph name="LtnSmCapH" format="2">
  <advance width="1254"/>
  <unicode hex="029C"/>
  <anchor x="626" y="-100" name="L"/>
  <anchor x="626" y="1030" name="U"/>
  <outline>
    <contour>
      <point x="669" y="0" type="line"/>
      <point x="1219" y="0" type="line"/>
      <point x="1219" y="83" type="line"/>
      <point x="1129" y="102"/>
      <point x="1079" y="132"/>
      <point x="1079" y="144" type="curve" smooth="yes"/>
      <point x="1079" y="785" type="line" smooth="yes"/>
      <point x="1079" y="799"/>
      <point x="1135" y="827"/>
      <point x="1219" y="847" type="curve"/>
      <point x="1219" y="930" type="line"/>
      <point x="669" y="930" type="line"/>
      <point x="669" y="847" type="line"/>
      <point x="759" y="827"/>
      <point x="809" y="797"/>
      <point x="809" y="785" type="curve" smooth="yes"/>
      <point x="809" y="144" type="line" smooth="yes"/>
      <point x="809" y="131"/>
      <point x="754" y="102"/>
      <point x="669" y="83" type="curve"/>
    </contour>
    <contour>
      <point x="35" y="0" type="line"/>
      <point x="584" y="0" type="line"/>
      <point x="584" y="83" type="line"/>
      <point x="494" y="102"/>
      <point x="445" y="132"/>
      <point x="445" y="144" type="curve" smooth="yes"/>
      <point x="445" y="785" type="line" smooth="yes"/>
      <point x="445" y="799"/>
      <point x="500" y="827"/>
      <point x="584" y="847" type="curve"/>
      <point x="584" y="930" type="line"/>
      <point x="35" y="930" type="line"/>
      <point x="35" y="847" type="line"/>
      <point x="125" y="827"/>
      <point x="175" y="797"/>
      <point x="175" y="785" type="curve" smooth="yes"/>
      <point x="175" y="144" type="line" smooth="yes"/>
      <point x="175" y="131"/>
      <point x="119" y="102"/>
      <point x="35" y="83" type="curve"/>
    </contour>
    <contour>
      <point x="929" y="400" type="line"/>
      <point x="951" y="505" type="line"/>
      <point x="929" y="530" type="line"/>
      <point x="310" y="530" type="line"/>
      <point x="299" y="509"/>
      <point x="293" y="443"/>
      <point x="287" y="422" type="curve"/>
      <point x="310" y="400" type="line"/>
    </contour>
  </outline>
</glyph>
<glyph name="LtnSmQHook" format="2">
  <advance width="1216"/>
  <unicode hex="02A0"/>
  <anchor x="347" y="-100" name="L"/>
  <anchor x="597" y="1050" name="U"/>
  <outline>
    <contour>
      <point x="416" y="-30" type="curve" smooth="yes"/>
      <point x="584" y="-30"/>
      <point x="634" y="24"/>
      <point x="809" y="200" type="curve"/>
      <point x="803" y="210"/>
      <point x="779" y="289"/>
      <point x="762" y="297" type="curve"/>
      <point x="668" y="207"/>
      <point x="622" y="180"/>
      <point x="547" y="180" type="curve" smooth="yes"/>
      <point x="437" y="180"/>
      <point x="330" y="298"/>
      <point x="330" y="525" type="curve" smooth="yes"/>
      <point x="330" y="775"/>
      <point x="441" y="820"/>
      <point x="540" y="820" type="curve" smooth="yes"/>
      <point x="611" y="820"/>
      <point x="701" y="761"/>
      <point x="742" y="677" type="curve"/>
      <point x="785" y="703"/>
      <point x="801" y="760"/>
      <point x="801" y="840" type="curve"/>
      <point x="697" y="944"/>
      <point x="631" y="960"/>
      <point x="551" y="960" type="curve" smooth="yes"/>
      <point x="460" y="960"/>
      <point x="342" y="918"/>
      <point x="274" y="865" type="curve" smooth="yes"/>
      <point x="180" y="792"/>
      <point x="60" y="688"/>
      <point x="60" y="454" type="curve" smooth="yes"/>
      <point x="60" y="157"/>
      <point x="258" y="-30"/>
    </contour>
    <contour>
      <point x="565" y="-480" type="line"/>
      <point x="1134" y="-480" type="line"/>
      <point x="1134" y="-397" type="line"/>
      <point x="1032" y="-378"/>
      <point x="1005" y="-356"/>
      <point x="1005" y="-335" type="curve" smooth="yes"/>
      <point x="1005" y="574" type="line"/>
      <point x="938" y="616"/>
      <point x="825" y="642"/>
      <point x="735" y="628" type="curve"/>
      <point x="735" y="-335" type="line" smooth="yes"/>
      <point x="735" y="-358"/>
      <point x="690" y="-378"/>
      <point x="565" y="-397" type="curve"/>
    </contour>
    <contour>
      <point x="1005" y="470" type="curve"/>
      <point x="1005" y="967" type="line" smooth="yes"/>
      <point x="1005" y="1109"/>
      <point x="1016" y="1209"/>
      <point x="1079" y="1209" type="curve" smooth="yes"/>
      <point x="1126" y="1209"/>
      <point x="1168" y="1116"/>
      <point x="1185" y="1045" type="curve"/>
      <point x="1254" y="1079"/>
      <point x="1366" y="1223"/>
      <point x="1366" y="1255" type="curve" smooth="yes"/>
      <point x="1366" y="1300"/>
      <point x="1260" y="1376"/>
      <point x="1134" y="1376" type="curve" smooth="yes"/>
      <point x="1042" y="1376"/>
      <point x="948" y="1319"/>
      <point x="880" y="1249" type="curve" smooth="yes"/>
      <point x="784" y="1150"/>
      <point x="735" y="1025"/>
      <point x="735" y="912" type="curve" smooth="yes"/>
      <point x="735" y="488" type="line"/>
      <point x="816" y="452"/>
      <point x="911" y="440"/>
    </contour>
  </outline>
</glyph>
<glyph name="LtnBilabialPercussive" format="2">
  <advance width="1059"/>
  <unicode hex="02AC"/>
  <anchor x="545" y="-100" name="L"/>
  <anchor x="545" y="1370" name="U"/>
  <outline>
    <contour>
      <point x="287" y="662" type="line"/>
      <point x="311" y="667"/>
      <point x="373" y="679"/>
      <point x="387" y="715" type="curve"/>
      <point x="528" y="995" type="line"/>
      <point x="711" y="662" type="line"/>
      <point x="735" y="667"/>
      <point x="802" y="680"/>
      <point x="814" y="715" type="curve" smooth="yes"/>
      <point x="968" y="1151" type="line" smooth="yes"/>
      <point x="975" y="1170"/>
      <point x="988" y="1177"/>
      <point x="1039" y="1188" type="curve"/>
      <point x="1039" y="1238" type="line"/>
      <point x="811" y="1238" type="line"/>
      <point x="811" y="1188" type="line"/>
      <point x="875" y="1179"/>
      <point x="872" y="1169"/>
      <point x="865" y="1151" type="curve" smooth="yes"/>
      <point x="771" y="900" type="line"/>
      <point x="597" y="1238" type="line"/>
      <point x="541" y="1238" type="line"/>
      <point x="376" y="900" type="line"/>
      <point x="280" y="1151" type="line"/>
      <point x="273" y="1166"/>
      <point x="276" y="1180"/>
      <point x="353" y="1188" type="curve"/>
      <point x="353" y="1238" type="line"/>
      <point x="20" y="1238" type="line"/>
      <point x="20" y="1188" type="line"/>
      <point x="66" y="1179"/>
      <point x="91" y="1165"/>
      <point x="96" y="1151" type="curve" smooth="yes"/>
    </contour>
    <contour>
      <point x="287" y="-30" type="line"/>
      <point x="311" y="-25"/>
      <point x="373" y="-13"/>
      <point x="387" y="23" type="curve"/>
      <point x="528" y="303" type="line"/>
      <point x="711" y="-30" type="line"/>
      <point x="735" y="-25"/>
      <point x="802" y="-12"/>
      <point x="814" y="23" type="curve" smooth="yes"/>
      <point x="968" y="459" type="line" smooth="yes"/>
      <point x="975" y="478"/>
      <point x="988" y="485"/>
      <point x="1039" y="496" type="curve"/>
      <point x="1039" y="546" type="line"/>
      <point x="811" y="546" type="line"/>
      <point x="811" y="496" type="line"/>
      <point x="875" y="487"/>
      <point x="872" y="477"/>
      <point x="865" y="459" type="curve" smooth="yes"/>
      <point x="771" y="208" type="line"/>
      <point x="597" y="546" type="line"/>
      <point x="541" y="546" type="line"/>
      <point x="376" y="208" type="line"/>
      <point x="280" y="459" type="line"/>
      <point x="273" y="474"/>
      <point x="276" y="488"/>
      <point x="353" y="496" type="curve"/>
      <point x="353" y="546" type="line"/>
      <point x="20" y="546" type="line"/>
      <point x="20" y="496" type="line"/>
      <point x="66" y="487"/>
      <point x="91" y="473"/>
      <point x="96" y="459" type="curve" smooth="yes"/>
    </contour>
  </outline>
</glyph>
<glyph name="LtnSmTurnedHFishhook" format="2">
  <advance width="1439"/>
  <unicode hex="02AE"/>
  <anchor x="700" y="-100" name="L"/>
  <anchor x="768" y="1050" name="U"/>
  <outline>
    <contour>
      <point x="1309" y="-195" type="curve" smooth="yes"/>
      <point x="1309" y="915" type="line"/>
      <point x="1262" y="959" type="line"/>
      <point x="1156" y="920"/>
      <point x="1072" y="900"/>
      <point x="909" y="879" type="curve"/>
      <point x="909" y="799" type="line"/>
      <point x="1038" y="784"/>
      <point x="1039" y="778"/>
      <point x="1039" y="667" type="curve" smooth="yes"/>
      <point x="1039" y="261" type="line"/>
      <point x="940" y="205"/>
      <point x="873" y="170"/>
      <point x="802" y="170" type="curve" smooth="yes"/>
      <point x="724" y="170"/>
      <point x="694" y="215"/>
      <point x="694" y="377" type="curve" smooth="yes"/>
      <point x="694" y="630" type="line" smooth="yes"/>
      <point x="694" y="910"/>
      <point x="564" y="960"/>
      <point x="396" y="960" type="curve" smooth="yes"/>
      <point x="229" y="960"/>
      <point x="113" y="900"/>
      <point x="-1" y="795" type="curve"/>
      <point x="-3" y="790"/>
      <point x="-4" y="777"/>
      <point x="-4" y="770" type="curve" smooth="yes"/>
      <point x="-4" y="716"/>
      <point x="34" y="576"/>
      <point x="78" y="486" type="curve"/>
      <point x="161" y="486" type="line"/>
      <point x="164" y="611"/>
      <point x="214" y="810"/>
      <point x="324" y="810" type="curve" smooth="yes"/>
      <point x="383" y="810"/>
      <point x="424" y="765"/>
      <point x="424" y="541" type="curve" smooth="yes"/>
      <point x="424" y="239" type="line" smooth="yes"/>
      <point x="424" y="39"/>
      <point x="530" y="-30"/>
      <point x="645" y="-30" type="curve" smooth="yes"/>
      <point x="749" y="-30"/>
      <point x="874" y="6"/>
      <point x="1039" y="116" type="curve"/>
      <point x="1039" y="-455" type="line"/>
      <point x="1084" y="-500" type="line"/>
      <point x="1184" y="-467"/>
      <point x="1341" y="-442"/>
      <point x="1439" y="-430" type="curve"/>
      <point x="1439" y="-350" type="line"/>
      <point x="1323" y="-345"/>
      <point x="1309" y="-328"/>
    </contour>
  </outline>
</glyph>
<glyph name="LtnSmTurnedHFishhookTail" format="2">
  <advance width="1448"/>
  <unicode hex="02AF"/>
  <anchor x="700" y="-100" name="L"/>
  <anchor x="848" y="1050" name="U"/>
  <outline>
    <contour>
      <point x="1309" y="915" type="line"/>
      <point x="1262" y="959" type="line"/>
      <point x="1156" y="920"/>
      <point x="1072" y="900"/>
      <point x="909" y="879" type="curve"/>
      <point x="909" y="799" type="line"/>
      <point x="1038" y="784"/>
      <point x="1039" y="778"/>
      <point x="1039" y="667" type="curve" smooth="yes"/>
      <point x="1039" y="261" type="line"/>
      <point x="940" y="205"/>
      <point x="873" y="170"/>
      <point x="802" y="170" type="curve" smooth="yes"/>
      <point x="724" y="170"/>
      <point x="694" y="215"/>
      <point x="694" y="377" type="curve" smooth="yes"/>
      <point x="694" y="630" type="line" smooth="yes"/>
      <point x="694" y="910"/>
      <point x="564" y="960"/>
      <point x="396" y="960" type="curve" smooth="yes"/>
      <point x="229" y="960"/>
      <point x="113" y="900"/>
      <point x="-1" y="795" type="curve"/>
      <point x="-3" y="790"/>
      <point x="-4" y="777"/>
      <point x="-4" y="770" type="curve" smooth="yes"/>
      <point x="-4" y="716"/>
      <point x="34" y="576"/>
      <point x="78" y="486" type="curve"/>
      <point x="161" y="486" type="line"/>
      <point x="164" y="611"/>
      <point x="214" y="810"/>
      <point x="324" y="810" type="curve" smooth="yes"/>
      <point x="383" y="810"/>
      <point x="424" y="765"/>
      <point x="424" y="541" type="curve" smooth="yes"/>
      <point x="424" y="239" type="line" smooth="yes"/>
      <point x="424" y="39"/>
      <point x="530" y="-30"/>
      <point x="645" y="-30" type="curve" smooth="yes"/>
      <point x="749" y="-30"/>
      <point x="874" y="6"/>
      <point x="1039" y="116" type="curve"/>
      <point x="1039" y="-217" type="line" smooth="yes"/>
      <point x="1039" y="-361"/>
      <point x="1120" y="-500"/>
      <point x="1342" y="-500" type="curve" smooth="yes"/>
      <point x="1624" y="-500"/>
      <point x="1788" y="-296"/>
      <point x="1788" y="-187" type="curve"/>
      <point x="1758" y="-126" type="line"/>
      <point x="1695" y="-120"/>
      <point x="1482" y="-186"/>
      <point x="1491" y="-202" type="curve" smooth="yes"/>
      <point x="1498" y="-215"/>
      <point x="1502" y="-232"/>
      <point x="1502" y="-249" type="curve" smooth="yes"/>
      <point x="1502" y="-307"/>
      <point x="1463" y="-375"/>
      <point x="1406" y="-375" type="curve" smooth="yes"/>
      <point x="1340" y="-375"/>
      <point x="1309" y="-299"/>
      <point x="1309" y="-146" type="curve" smooth="yes"/>
    </contour>
  </outline>
</glyph>
<glyph name="ModSmTrndR" format="2">
  <advance width="653"/>
  <unicode hex="02B4"/>
  <anchor x="335" y="560" name="L"/>
  <anchor x="335" y="1250" name="U"/>
  <outline>
    <contour>
      <point x="144" y="602" type="curve" smooth="yes"/>
      <point x="224" y="602"/>
      <point x="304" y="646"/>
      <point x="355" y="699" type="curve"/>
      <point x="364" y="629" type="line"/>
      <point x="396" y="602" type="line"/>
      <point x="484" y="624"/>
      <point x="517" y="631"/>
      <point x="634" y="644" type="curve"/>
      <point x="634" y="692" type="line"/>
      <point x="582" y="694"/>
      <point x="571" y="697"/>
      <point x="559" y="708" type="curve" smooth="yes"/>
      <point x="550" y="715"/>
      <point x="542" y="732"/>
      <point x="542" y="785" type="curve" smooth="yes"/>
      <point x="542" y="1170" type="line"/>
      <point x="510" y="1196" type="line"/>
      <point x="432" y="1170"/>
      <point x="366" y="1159"/>
      <point x="264" y="1148" type="curve"/>
      <point x="264" y="1100" type="line"/>
      <point x="342" y="1092"/>
      <point x="355" y="1092"/>
      <point x="355" y="1020" type="curve" smooth="yes"/>
      <point x="355" y="820" type="line"/>
      <point x="296" y="726"/>
      <point x="251" y="722"/>
      <point x="216" y="722" type="curve" smooth="yes"/>
      <point x="167" y="722"/>
      <point x="143" y="786"/>
      <point x="139" y="850" type="curve"/>
      <point x="80" y="850" type="line"/>
      <point x="57" y="807"/>
      <point x="12" y="639"/>
      <point x="29" y="630" type="curve" smooth="yes"/>
      <point x="64" y="613"/>
      <point x="106" y="602"/>
    </contour>
  </outline>
</glyph>
<glyph name="ModSmTrndRHook" format="2">
  <advance width="604"/>
  <unicode hex="02B5"/>
  <anchor x="440" y="260" name="L"/>
  <anchor x="440" y="1250" name="U"/>
  <outline>
    <contour>
      <point x="567" y="320" type="curve" smooth="yes"/>
      <point x="764" y="320"/>
      <point x="886" y="442"/>
      <point x="886" y="508" type="curve"/>
      <point x="865" y="544" type="line"/>
      <point x="821" y="548"/>
      <point x="672" y="508"/>
      <point x="678" y="499" type="curve" smooth="yes"/>
      <point x="701" y="463"/>
      <point x="671" y="395"/>
      <point x="619" y="395" type="curve" smooth="yes"/>
      <point x="566" y="395"/>
      <point x="544" y="441"/>
      <point x="544" y="532" type="curve" smooth="yes"/>
      <point x="544" y="745"/>
      <point x="544" y="957"/>
      <point x="544" y="1170" type="curve"/>
      <point x="512" y="1196" type="line"/>
      <point x="433" y="1170"/>
      <point x="366" y="1159"/>
      <point x="264" y="1148" type="curve"/>
      <point x="264" y="1100" type="line"/>
      <point x="342" y="1092"/>
      <point x="355" y="1092"/>
      <point x="355" y="1020" type="curve" smooth="yes"/>
      <point x="355" y="820" type="line"/>
      <point x="296" y="726"/>
      <point x="251" y="722"/>
      <point x="216" y="722" type="curve" smooth="yes"/>
      <point x="167" y="722"/>
      <point x="143" y="786"/>
      <point x="139" y="850" type="curve"/>
      <point x="80" y="850" type="line"/>
      <point x="57" y="807"/>
      <point x="12" y="639"/>
      <point x="29" y="630" type="curve" smooth="yes"/>
      <point x="64" y="613"/>
      <point x="106" y="602"/>
      <point x="144" y="602" type="curve" smooth="yes"/>
      <point x="224" y="602"/>
      <point x="304" y="646"/>
      <point x="355" y="699" type="curve"/>
      <point x="355" y="490" type="line" smooth="yes"/>
      <point x="355" y="403"/>
      <point x="412" y="320"/>
    </contour>
  </outline>
</glyph>
<glyph name="ModApos" format="2">
  <advance width="461"/>
  <unicode hex="02BC"/>
  <outline>
    <contour>
      <point x="158" y="982" type="line"/>
      <point x="287" y="1064"/>
      <point x="401" y="1192"/>
      <point x="401" y="1354" type="curve" smooth="yes"/>
      <point x="401" y="1446"/>
      <point x="367" y="1517"/>
      <point x="291" y="1571" type="curve"/>
      <point x="244" y="1576"/>
      <point x="25" y="1494"/>
      <point x="0" y="1461" type="curve"/>
      <point x="16" y="1376" type="line"/>
      <point x="113" y="1374"/>
      <point x="179" y="1322"/>
      <point x="179" y="1244" type="curve" smooth="yes"/>
      <point x="179" y="1147"/>
      <point x="131" y="1101"/>
      <point x="85" y="1037" type="curve"/>
    </contour>
  </outline>
</glyph>
<glyph name="ModRevGlottalStop" format="2">
  <advance width="698"/>
  <unicode hex="02C1"/>
  <anchor x="360" y="750" name="L"/>
  <anchor x="360" y="1620" name="U"/>
  <outline>
    <contour>
      <point x="441" y="757"/>
      <point x="466" y="770" type="curve"/>
      <point x="466" y="918" type="line" smooth="yes"/>
      <point x="466" y="1103"/>
      <point x="235" y="1210"/>
      <point x="235" y="1328" type="curve" smooth="yes"/>
      <point x="235" y="1396"/>
      <point x="282" y="1422"/>
      <point x="325" y="1422" type="curve" smooth="yes"/>
      <point x="420" y="1422"/>
      <point x="450" y="1352"/>
      <point x="453" y="1250" type="curve"/>
      <point x="499" y="1249"/>
      <point x="657" y="1275"/>
      <point x="673" y="1298" type="curve"/>
      <point x="660" y="1414"/>
      <point x="587" y="1550"/>
      <point x="363" y="1550" type="curve" smooth="yes"/>
      <point x="158" y="1550"/>
      <point x="10" y="1451"/>
      <point x="10" y="1303" type="curve" smooth="yes"/>
      <point x="10" y="1137"/>
      <point x="241" y="1053"/>
      <point x="241" y="898" type="curve" smooth="yes"/>
      <point x="241" y="763" type="line"/>
      <point x="294" y="719" type="line"/>
      <point x="320" y="725"/>
    </contour>
  </outline>
</glyph>
<glyph name="ModLowVertLine" format="2">
  <advance width="455"/>
  <unicode hex="02CC"/>
  <outline>
    <contour>
      <point x="278" y="-489"/>
      <point x="315" y="-468" type="curve"/>
      <point x="315" y="132" type="line"/>
      <point x="278" y="162" type="line"/>
      <point x="237" y="152"/>
      <point x="179" y="132"/>
      <point x="140" y="109" type="curve"/>
      <point x="140" y="-487" type="line"/>
      <point x="178" y="-519" type="line"/>
      <point x="211" y="-508"/>
    </contour>
  </outline>
</glyph>
<glyph name="ModHalfTriangularColon" format="2">
  <advance width="572"/>
  <unicode hex="02D1"/>
  <outline>
    <contour>
      <point x="286" y="549" type="line"/>
      <point x="482" y="930" type="line"/>
      <point x="90" y="930" type="line"/>
    </contour>
  </outline>
</glyph>
<glyph name="ModUpTack" format="2">
  <advance width="727"/>
  <unicode hex="02D4"/>
  <outline>
    <contour>
      <point x="41" y="240"/>
      <point x="34" y="211" type="curve"/>
      <point x="59" y="187" type="line"/>
      <point x="657" y="187" type="line"/>
      <point x="667" y="209"/>
      <point x="685" y="253"/>
      <point x="693" y="282" type="curve"/>
      <point x="668" y="306" type="line"/>
      <point x="71" y="306" type="line"/>
      <point x="59" y="280"/>
    </contour>
    <contour>
      <point x="324" y="730"/>
      <point x="302" y="720" type="curve"/>
      <point x="302" y="230" type="line"/>
      <point x="326" y="205" type="line"/>
      <point x="355" y="212"/>
      <point x="395" y="220"/>
      <point x="421" y="232" type="curve"/>
      <point x="421" y="721" type="line"/>
      <point x="397" y="746" type="line"/>
      <point x="368" y="738"/>
    </contour>
  </outline>
</glyph>
<glyph name="ModDwnTack" format="2">
  <advance width="727"/>
  <unicode hex="02D5"/>
  <outline>
    <contour>
      <point x="686" y="671"/>
      <point x="693" y="700" type="curve"/>
      <point x="668" y="724" type="line"/>
      <point x="70" y="724" type="line"/>
      <point x="60" y="702"/>
      <point x="42" y="658"/>
      <point x="34" y="629" type="curve"/>
      <point x="59" y="605" type="line"/>
      <point x="656" y="605" type="line"/>
      <point x="668" y="631"/>
    </contour>
    <contour>
      <point x="403" y="181"/>
      <point x="425" y="191" type="curve"/>
      <point x="425" y="681" type="line"/>
      <point x="401" y="706" type="line"/>
      <point x="372" y="699"/>
      <point x="332" y="691"/>
      <point x="306" y="679" type="curve"/>
      <point x="306" y="190" type="line"/>
      <point x="330" y="165" type="line"/>
      <point x="359" y="173"/>
    </contour>
  </outline>
</glyph>
<glyph name="Breve" format="2">
  <advance width="730"/>
  <unicode hex="02D8"/>
  <anchor x="365" y="1370" name="U"/>
  <outline>
    <contour>
      <point x="650" y="1155"/>
      <point x="730" y="1370" type="curve"/>
      <point x="714" y="1394"/>
      <point x="670" y="1435"/>
      <point x="647" y="1445" type="curve"/>
      <point x="579" y="1332"/>
      <point x="457" y="1272"/>
      <point x="363" y="1272" type="curve" smooth="yes"/>
      <point x="274" y="1272"/>
      <point x="149" y="1333"/>
      <point x="83" y="1445" type="curve"/>
      <point x="61" y="1435"/>
      <point x="16" y="1394"/>
      <point x="0" y="1370" type="curve"/>
      <point x="80" y="1155"/>
      <point x="216" y="1060"/>
      <point x="367" y="1060" type="curve" smooth="yes"/>
      <point x="507" y="1060"/>
    </contour>
  </outline>
</glyph>
<glyph name="SmTilde" format="2">
  <advance width="822"/>
  <unicode hex="02DC"/>
  <outline>
    <contour>
      <point x="775" y="1279"/>
      <point x="822" y="1387" type="curve"/>
      <point x="738" y="1420" type="line"/>
      <point x="693" y="1342"/>
      <point x="654" y="1307"/>
      <point x="593" y="1307" type="curve" smooth="yes"/>
      <point x="499" y="1307"/>
      <point x="400" y="1410"/>
      <point x="269" y="1410" type="curve" smooth="yes"/>
      <point x="141" y="1410"/>
      <point x="47" y="1219"/>
      <point x="0" y="1110" type="curve"/>
      <point x="83" y="1080" type="line"/>
      <point x="132" y="1154"/>
      <point x="163" y="1193"/>
      <point x="226" y="1193" type="curve" smooth="yes"/>
      <point x="334" y="1193"/>
      <point x="430" y="1090"/>
      <point x="552" y="1090" type="curve" smooth="yes"/>
      <point x="681" y="1090"/>
    </contour>
  </outline>
</glyph>
<glyph name="ModRhoticHook" format="2">
  <advance width="316"/>
  <unicode hex="02DE"/>
  <anchor x="535" y="900" name="R"/>
  <anchor x="15" y="900" name="R_"/>
  <outline>
    <contour>
      <point x="204" y="920" type="curve"/>
      <point x="153" y="960" type="line"/>
      <point x="25" y="867"/>
      <point x="-140" y="808"/>
      <point x="-260" y="770" type="curve"/>
      <point x="-216" y="652" type="line"/>
      <point x="-140" y="696"/>
      <point x="-27" y="737"/>
      <point x="19" y="746" type="curve"/>
      <point x="9" y="723"/>
      <point x="2" y="686"/>
      <point x="2" y="656" type="curve" smooth="yes"/>
      <point x="2" y="568"/>
      <point x="51" y="536"/>
      <point x="105" y="536" type="curve" smooth="yes"/>
      <point x="177" y="536"/>
      <point x="259" y="595"/>
      <point x="351" y="686" type="curve"/>
      <point x="329" y="749" type="line"/>
      <point x="262" y="709"/>
      <point x="226" y="701"/>
      <point x="198" y="701" type="curve" smooth="yes"/>
      <point x="161" y="701"/>
      <point x="145" y="722"/>
      <point x="145" y="767" type="curve" smooth="yes"/>
      <point x="145" y="800"/>
      <point x="166" y="875"/>
    </contour>
  </outline>
</glyph>
<glyph name="ModYinDepartingTnMrk" format="2">
  <advance width="833"/>
  <unicode hex="02EA"/>
  <outline>
    <contour>
      <point x="550" y="247"/>
      <point x="557" y="273" type="curve"/>
      <point x="532" y="300" type="line"/>
      <point x="129" y="300" type="line"/>
      <point x="115" y="273"/>
      <point x="93" y="236"/>
      <point x="85" y="209" type="curve"/>
      <point x="110" y="180" type="line"/>
      <point x="516" y="180" type="line"/>
      <point x="528" y="202"/>
    </contour>
    <contour>
      <point x="178" y="212"/>
      <point x="205" y="228" type="curve"/>
      <point x="205" y="742" type="line"/>
      <point x="178" y="766" type="line"/>
      <point x="152" y="758"/>
      <point x="108" y="739"/>
      <point x="85" y="726" type="curve"/>
      <point x="85" y="209" type="line"/>
      <point x="112" y="182" type="line"/>
      <point x="138" y="190"/>
    </contour>
  </outline>
</glyph>
<glyph name="ModUnaspd" format="2">
  <advance width="1060"/>
  <unicode hex="02ED"/>
  <outline>
    <contour>
      <point x="1002" y="1149"/>
      <point x="1010" y="1178" type="curve"/>
      <point x="975" y="1212" type="line"/>
      <point x="101" y="1212" type="line"/>
      <point x="89" y="1186"/>
      <point x="47" y="1101"/>
      <point x="40" y="1072" type="curve"/>
      <point x="75" y="1038" type="line"/>
      <point x="949" y="1038" type="line"/>
      <point x="959" y="1060"/>
    </contour>
    <contour>
      <point x="1002" y="829"/>
      <point x="1010" y="858" type="curve"/>
      <point x="975" y="892" type="line"/>
      <point x="101" y="892" type="line"/>
      <point x="89" y="866"/>
      <point x="47" y="781"/>
      <point x="40" y="752" type="curve"/>
      <point x="75" y="718" type="line"/>
      <point x="949" y="718" type="line"/>
      <point x="959" y="740"/>
    </contour>
  </outline>
</glyph>
<glyph name="ModLowUpArrwhd" format="2">
  <advance width="515"/>
  <unicode hex="02F0"/>
  <outline>
    <contour>
      <point x="475" y="-518" type="curve"/>
      <point x="290" y="-144" type="line"/>
      <point x="273" y="-152"/>
      <point x="235" y="-169"/>
      <point x="219" y="-183" type="curve"/>
      <point x="50" y="-541" type="line"/>
      <point x="64" y="-557" type="line"/>
      <point x="76" y="-552"/>
      <point x="132" y="-530"/>
      <point x="144" y="-518" type="curve"/>
      <point x="253" y="-284" type="line"/>
      <point x="386" y="-545" type="line"/>
      <point x="407" y="-558" type="line"/>
      <point x="427" y="-551"/>
      <point x="461" y="-530"/>
    </contour>
  </outline>
</glyph>
<glyph name="ModLowRtArrwhd" format="2">
  <advance width="568"/>
  <unicode hex="02F2"/>
  <outline>
    <contour>
      <point x="519" y="-355"/>
      <point x="523" y="-339" type="curve"/>
      <point x="507" y="-319" type="line"/>
      <point x="125" y="-175" type="line"/>
      <point x="111" y="-186"/>
      <point x="76" y="-213"/>
      <point x="60" y="-226" type="curve"/>
      <point x="70" y="-253" type="line"/>
      <point x="496" y="-412" type="line"/>
      <point x="503" y="-397"/>
      <point x="520" y="-362"/>
      <point x="523" y="-339" type="curve"/>
      <point x="488" y="-322" type="line"/>
      <point x="76" y="-476" type="line"/>
      <point x="71" y="-489"/>
      <point x="60" y="-529"/>
      <point x="55" y="-543" type="curve"/>
      <point x="78" y="-568" type="line"/>
      <point x="496" y="-412" type="line"/>
      <point x="505" y="-398"/>
    </contour>
  </outline>
</glyph>
<glyph name="ModShelf" format="2">
  <advance width="1205"/>
  <unicode hex="02FD"/>
  <outline>
    <contour>
      <point x="1017" y="-35"/>
      <point x="995" y="-45" type="curve"/>
      <point x="995" y="-227" type="line"/>
      <point x="210" y="-227" type="line"/>
      <point x="210" y="-29" type="line"/>
      <point x="174" y="6" type="line"/>
      <point x="147" y="0"/>
      <point x="72" y="-35"/>
      <point x="50" y="-45" type="curve"/>
      <point x="50" y="-347" type="line"/>
      <point x="85" y="-378" type="line"/>
      <point x="1025" y="-378" type="line"/>
      <point x="1091" y="-361"/>
      <point x="1126" y="-339"/>
      <point x="1155" y="-326" type="curve"/>
      <point x="1155" y="-301"/>
      <point x="1154" y="-270"/>
      <point x="1155" y="-29" type="curve"/>
      <point x="1119" y="6" type="line"/>
      <point x="1092" y="0"/>
    </contour>
  </outline>
</glyph>
<glyph name="CombAcute" format="2">
  <unicode hex="0301"/>
  <anchor x="-630" y="1500" name="U"/>
  <anchor x="-540" y="1050" name="_U"/>
  <outline>
    <contour>
      <point x="-606" y="1037" type="curve"/>
      <point x="-211" y="1417" type="line"/>
      <point x="-244" y="1476" type="line"/>
      <point x="-274" y="1485"/>
      <point x="-468" y="1517"/>
      <point x="-499" y="1519" type="curve"/>
      <point x="-703" y="1085" type="line"/>
      <point x="-688" y="1073"/>
      <point x="-630" y="1041"/>
    </contour>
  </outline>
</glyph>
<glyph name="CombCircum" format="2">
  <unicode hex="0302"/>
  <anchor x="-547" y="1520" name="U"/>
  <anchor x="-547" y="1050" name="_U"/>
  <outline>
    <contour>
      <point x="-217" y="1087"/>
      <point x="-201" y="1112" type="curve"/>
      <point x="-473" y="1501" type="line"/>
      <point x="-620" y="1501" type="line"/>
      <point x="-904" y="1112" type="line"/>
      <point x="-885" y="1087"/>
      <point x="-851" y="1047"/>
      <point x="-829" y="1037" type="curve"/>
      <point x="-548" y="1245" type="line"/>
      <point x="-264" y="1037" type="line"/>
      <point x="-241" y="1047"/>
    </contour>
  </outline>
</glyph>
<glyph name="CombCandrabindu" format="2">
  <unicode hex="0310"/>
  <anchor x="-548" y="1690" name="U"/>
  <anchor x="-548" y="1050" name="_U"/>
  <outline>
    <contour>
      <point x="-253" y="1165"/>
      <point x="-183" y="1380" type="curve"/>
      <point x="-199" y="1404"/>
      <point x="-238" y="1455"/>
      <point x="-261" y="1465" type="curve"/>
      <point x="-329" y="1352"/>
      <point x="-433" y="1272"/>
      <point x="-557" y="1272" type="curve" smooth="yes"/>
      <point x="-646" y="1272"/>
      <point x="-769" y="1353"/>
      <point x="-835" y="1465" type="curve"/>
      <point x="-857" y="1455"/>
      <point x="-887" y="1434"/>
      <point x="-913" y="1380" type="curve"/>
      <point x="-833" y="1165"/>
      <point x="-702" y="1060"/>
      <point x="-541" y="1060" type="curve" smooth="yes"/>
      <point x="-411" y="1060"/>
    </contour>
    <contour>
      <point x="-426" y="1416"/>
      <point x="-426" y="1503" type="curve" smooth="yes"/>
      <point x="-426" y="1563"/>
      <point x="-463" y="1602"/>
      <point x="-527" y="1602" type="curve" smooth="yes"/>
      <point x="-608" y="1602"/>
      <point x="-664" y="1526"/>
      <point x="-664" y="1447" type="curve" smooth="yes"/>
      <point x="-664" y="1379"/>
      <point x="-620" y="1347"/>
      <point x="-563" y="1347" type="curve" smooth="yes"/>
      <point x="-489" y="1347"/>
    </contour>
  </outline>
</glyph>
<glyph name="CombInvBreve" format="2">
  <unicode hex="0311"/>
  <anchor x="-548" y="1400" name="U"/>
  <anchor x="-548" y="1050" name="_U"/>
  <outline>
    <contour>
      <point x="-833" y="1310"/>
      <point x="-913" y="1095" type="curve"/>
      <point x="-897" y="1071"/>
      <point x="-853" y="1030"/>
      <point x="-830" y="1020" type="curve"/>
      <point x="-762" y="1133"/>
      <point x="-640" y="1193"/>
      <point x="-546" y="1193" type="curve" smooth="yes"/>
      <point x="-457" y="1193"/>
      <point x="-332" y="1132"/>
      <point x="-266" y="1020" type="curve"/>
      <point x="-244" y="1030"/>
      <point x="-199" y="1071"/>
      <point x="-183" y="1095" type="curve"/>
      <point x="-263" y="1310"/>
      <point x="-399" y="1405"/>
      <point x="-550" y="1405" type="curve" smooth="yes"/>
      <point x="-690" y="1405"/>
    </contour>
  </outline>
</glyph>
<glyph name="CombTrndCommaAbv" format="2">
  <unicode hex="0312"/>
  <anchor x="-524" y="1370" name="U"/>
  <anchor x="-524" y="1050" name="_U"/>
  <outline>
    <contour>
      <point x="-715" y="1361"/>
      <point x="-715" y="1239" type="curve" smooth="yes"/>
      <point x="-715" y="1171"/>
      <point x="-689" y="1091"/>
      <point x="-616" y="1060" type="curve"/>
      <point x="-544" y="1055"/>
      <point x="-393" y="1109"/>
      <point x="-333" y="1165" type="curve"/>
      <point x="-351" y="1237" type="line"/>
      <point x="-466" y="1238"/>
      <point x="-520" y="1286"/>
      <point x="-520" y="1347" type="curve" smooth="yes"/>
      <point x="-520" y="1408"/>
      <point x="-491" y="1450"/>
      <point x="-435" y="1501" type="curve"/>
      <point x="-494" y="1557" type="line"/>
      <point x="-623" y="1476"/>
    </contour>
  </outline>
</glyph>
<glyph name="CombCommaAbv" format="2">
  <unicode hex="0313"/>
  <anchor x="-548" y="1410" name="U"/>
  <anchor x="-548" y="1050" name="_U"/>
  <outline>
    <contour>
      <point x="-370" y="1231"/>
      <point x="-370" y="1353" type="curve" smooth="yes"/>
      <point x="-370" y="1421"/>
      <point x="-396" y="1501"/>
      <point x="-469" y="1532" type="curve"/>
      <point x="-541" y="1537"/>
      <point x="-692" y="1483"/>
      <point x="-752" y="1427" type="curve"/>
      <point x="-734" y="1355" type="line"/>
      <point x="-619" y="1354"/>
      <point x="-565" y="1306"/>
      <point x="-565" y="1245" type="curve" smooth="yes"/>
      <point x="-565" y="1184"/>
      <point x="-594" y="1142"/>
      <point x="-650" y="1091" type="curve"/>
      <point x="-591" y="1035" type="line"/>
      <point x="-462" y="1116"/>
    </contour>
  </outline>
</glyph>
<glyph name="CombAcuteBlw" format="2">
  <unicode hex="0317"/>
  <anchor x="-533" y="-600" name="L"/>
  <anchor x="-533" y="-100" name="_L"/>
  <outline>
    <contour>
      <point x="-769" y="-507" type="curve"/>
      <point x="-261" y="-293" type="line"/>
      <point x="-267" y="-226" type="line"/>
      <point x="-286" y="-203"/>
      <point x="-441" y="-107"/>
      <point x="-468" y="-89" type="curve"/>
      <point x="-843" y="-427" type="line"/>
      <point x="-827" y="-454"/>
      <point x="-791" y="-496"/>
    </contour>
  </outline>
</glyph>
<glyph name="CombUpTackBlw" format="2">
  <unicode hex="031D"/>
  <anchor x="-548" y="-600" name="L"/>
  <anchor x="-548" y="-100" name="_L"/>
  <outline>
    <contour>
      <point x="-315" y="-429"/>
      <point x="-307" y="-400" type="curve"/>
      <point x="-332" y="-376" type="line"/>
      <point x="-749" y="-376" type="line"/>
      <point x="-761" y="-402"/>
      <point x="-779" y="-442"/>
      <point x="-786" y="-471" type="curve"/>
      <point x="-761" y="-495" type="line"/>
      <point x="-343" y="-495" type="line"/>
      <point x="-333" y="-473"/>
    </contour>
    <contour>
      <point x="-515" y="-462"/>
      <point x="-489" y="-450" type="curve"/>
      <point x="-489" y="-126" type="line"/>
      <point x="-513" y="-101" type="line"/>
      <point x="-542" y="-109"/>
      <point x="-586" y="-117"/>
      <point x="-608" y="-127" type="curve"/>
      <point x="-608" y="-452" type="line"/>
      <point x="-584" y="-477" type="line"/>
      <point x="-555" y="-470"/>
    </contour>
  </outline>
</glyph>
<glyph name="CombPalHook" format="2">
  <unicode hex="0321"/>
  <outline>
    <contour>
      <point x="-322" y="-149" type="curve"/>
      <point x="-376" y="-166"/>
      <point x="-507" y="-242"/>
      <point x="-540" y="-280" type="curve"/>
      <point x="-541" y="-286"/>
      <point x="-541" y="-291"/>
      <point x="-541" y="-296" type="curve" smooth="yes"/>
      <point x="-541" y="-407"/>
      <point x="-427" y="-500"/>
      <point x="-308" y="-500" type="curve" smooth="yes"/>
      <point x="-186" y="-500"/>
      <point x="-20" y="-442"/>
      <point x="-20" y="-147" type="curve" smooth="yes"/>
      <point x="-20" y="37" type="line"/>
      <point x="-51" y="23"/>
      <point x="-114" y="15"/>
      <point x="-150" y="3" type="curve"/>
      <point x="-150" y="-176" type="line" smooth="yes"/>
      <point x="-150" y="-318"/>
      <point x="-178" y="-365"/>
      <point x="-244" y="-365" type="curve" smooth="yes"/>
      <point x="-269" y="-365"/>
      <point x="-305" y="-330"/>
      <point x="-305" y="-272" type="curve" smooth="yes"/>
      <point x="-305" y="-247"/>
      <point x="-298" y="-219"/>
      <point x="-283" y="-187" type="curve"/>
      <point x="-290" y="-174"/>
      <point x="-312" y="-160"/>
    </contour>
  </outline>
</glyph>
<glyph name="CombRingBlw" format="2">
  <unicode hex="0325"/>
  <anchor x="-548" y="-650" name="L"/>
  <anchor x="-548" y="-100" name="_L"/>
  <outline>
    <contour>
      <point x="-331" y="-431"/>
      <point x="-331" y="-286" type="curve"/>
      <point x="-332" y="-175"/>
      <point x="-400" y="-100"/>
      <point x="-516" y="-100" type="curve" smooth="yes"/>
      <point x="-649" y="-100"/>
      <point x="-763" y="-220"/>
      <point x="-763" y="-366" type="curve" smooth="yes"/>
      <point x="-763" y="-480"/>
      <point x="-688" y="-550"/>
      <point x="-578" y="-550" type="curve" smooth="yes"/>
      <point x="-447" y="-550"/>
    </contour>
    <contour>
      <point x="-481" y="-263"/>
      <point x="-481" y="-327" type="curve" smooth="yes"/>
      <point x="-481" y="-373"/>
      <point x="-504" y="-414"/>
      <point x="-557" y="-414" type="curve" smooth="yes"/>
      <point x="-580" y="-414"/>
      <point x="-613" y="-386"/>
      <point x="-613" y="-325" type="curve" smooth="yes"/>
      <point x="-613" y="-284"/>
      <point x="-592" y="-236"/>
      <point x="-537" y="-236" type="curve" smooth="yes"/>
      <point x="-514" y="-236"/>
    </contour>
  </outline>
</glyph>
<glyph name="CombCedilla" format="2">
  <unicode hex="0327"/>
  <anchor x="-546" y="-600" name="L"/>
  <anchor x="-546" y="0" name="_H"/>
  <outline>
    <contour>
      <point x="-316" y="-328"/>
      <point x="-316" y="-229" type="curve" smooth="yes"/>
      <point x="-316" y="-154"/>
      <point x="-373" y="-104"/>
      <point x="-486" y="-84" type="curve"/>
      <point x="-434" y="50" type="line"/>
      <point x="-572" y="52" type="line"/>
      <point x="-643" y="-171"/>
      <point x="-668" y="-199"/>
      <point x="-668" y="-199" type="curve"/>
      <point x="-617" y="-203"/>
      <point x="-584" y="-221"/>
      <point x="-584" y="-266" type="curve" smooth="yes"/>
      <point x="-584" y="-309"/>
      <point x="-628" y="-350"/>
      <point x="-736" y="-365" type="curve"/>
      <point x="-694" y="-444" type="line"/>
      <point x="-489" y="-425"/>
    </contour>
  </outline>
</glyph>
<glyph name="CombOgonek" format="2">
  <unicode hex="0328"/>
  <anchor x="-547" y="-600" name="L"/>
  <anchor x="-497" y="0" name="_O"/>
  <outline>
    <contour>
      <point x="-356" y="-369"/>
      <point x="-288" y="-299" type="curve"/>
      <point x="-322" y="-222" type="line"/>
      <point x="-378" y="-273"/>
      <point x="-419" y="-286"/>
      <point x="-452" y="-286" type="curve" smooth="yes"/>
      <point x="-493" y="-286"/>
      <point x="-528" y="-263"/>
      <point x="-528" y="-214" type="curve" smooth="yes"/>
      <point x="-528" y="-151"/>
      <point x="-494" y="-89"/>
      <point x="-374" y="24" type="curve"/>
      <point x="-469" y="43" type="line"/>
      <point x="-690" y="-59"/>
      <point x="-797" y="-180"/>
      <point x="-797" y="-299" type="curve" smooth="yes"/>
      <point x="-797" y="-410"/>
      <point x="-684" y="-444"/>
      <point x="-611" y="-444" type="curve" smooth="yes"/>
      <point x="-484" y="-444"/>
    </contour>
  </outline>
</glyph>
<glyph name="CombDblLowLine" format="2">
  <unicode hex="0333"/>
  <anchor x="-548" y="-600" name="L"/>
  <anchor x="-548" y="-100" name="_L"/>
  <outline>
    <contour>
      <point x="52" y="-521"/>
      <point x="60" y="-492" type="curve"/>
      <point x="25" y="-458" type="line"/>
      <point x="-1086" y="-458" type="line"/>
      <point x="-1098" y="-484"/>
      <point x="-1140" y="-569"/>
      <point x="-1147" y="-598" type="curve"/>
      <point x="-1112" y="-632" type="line"/>
      <point x="-1" y="-632" type="line"/>
      <point x="9" y="-610"/>
    </contour>
    <contour>
      <point x="52" y="-251"/>
      <point x="60" y="-222" type="curve"/>
      <point x="25" y="-188" type="line"/>
      <point x="-1086" y="-188" type="line"/>
      <point x="-1098" y="-214"/>
      <point x="-1140" y="-299"/>
      <point x="-1147" y="-328" type="curve"/>
      <point x="-1112" y="-362" type="line"/>
      <point x="-1" y="-362" type="line"/>
      <point x="9" y="-340"/>
    </contour>
  </outline>
</glyph>
<glyph name="CombTildeOverlay" format="2">
  <unicode hex="0334"/>
  <outline>
    <contour>
      <point x="-194" y="482"/>
      <point x="-147" y="590" type="curve"/>
      <point x="-240" y="629" type="line"/>
      <point x="-285" y="551"/>
      <point x="-335" y="500"/>
      <point x="-376" y="500" type="curve" smooth="yes"/>
      <point x="-450" y="500"/>
      <point x="-519" y="603"/>
      <point x="-630" y="603" type="curve" smooth="yes"/>
      <point x="-774" y="603"/>
      <point x="-863" y="427"/>
      <point x="-910" y="318" type="curve"/>
      <point x="-817" y="284" type="line"/>
      <point x="-771" y="358"/>
      <point x="-726" y="408"/>
      <point x="-683" y="408" type="curve" smooth="yes"/>
      <point x="-605" y="408"/>
      <point x="-529" y="305"/>
      <point x="-427" y="305" type="curve" smooth="yes"/>
      <point x="-283" y="305"/>
    </contour>
  </outline>
</glyph>
<glyph name="CombShortStrkOverlay" format="2">
  <unicode hex="0335"/>
  <outline>
    <contour>
      <point x="-842" y="373" type="line"/>
      <point x="-210" y="373" type="line"/>
      <point x="-198" y="399"/>
      <point x="-156" y="487"/>
      <point x="-149" y="513" type="curve"/>
      <point x="-184" y="547" type="line"/>
      <point x="-816" y="547" type="line"/>
      <point x="-829" y="520"/>
      <point x="-870" y="434"/>
      <point x="-877" y="407" type="curve"/>
    </contour>
  </outline>
</glyph>
<glyph name="CombShortSolidusOverlay" format="2">
  <unicode hex="0337"/>
  <outline>
    <contour>
      <point x="-138" y="744" type="line"/>
      <point x="-163" y="791" type="line"/>
      <point x="-202" y="788"/>
      <point x="-299" y="761"/>
      <point x="-338" y="744" type="curve"/>
      <point x="-936" y="171" type="line"/>
      <point x="-911" y="119" type="line"/>
      <point x="-876" y="124"/>
      <point x="-763" y="157"/>
      <point x="-735" y="172" type="curve"/>
    </contour>
  </outline>
</glyph>
<glyph name="CombLngSolidusOverlay" format="2">
  <unicode hex="0338"/>
  <outline>
    <contour>
      <point x="-44" y="1269" type="line"/>
      <point x="-91" y="1305" type="line"/>
      <point x="-125" y="1289"/>
      <point x="-200" y="1233"/>
      <point x="-231" y="1204" type="curve"/>
      <point x="-984" y="-340" type="line"/>
      <point x="-939" y="-377" type="line"/>
      <point x="-909" y="-360"/>
      <point x="-817" y="-297"/>
      <point x="-796" y="-274" type="curve"/>
    </contour>
  </outline>
</glyph>
<glyph name="CombInvBridgeBlw" format="2">
  <unicode hex="033A"/>
  <anchor x="-554" y="-600" name="L"/>
  <anchor x="-554" y="-100" name="_L"/>
  <outline>
    <contour>
      <point x="-371" y="-180"/>
      <point x="-388" y="-197" type="curve"/>
      <point x="-388" y="-355" type="line"/>
      <point x="-717" y="-355" type="line"/>
      <point x="-717" y="-165" type="line"/>
      <point x="-741" y="-141" type="line"/>
      <point x="-768" y="-149"/>
      <point x="-818" y="-179"/>
      <point x="-836" y="-199" type="curve"/>
      <point x="-836" y="-450" type="line"/>
      <point x="-813" y="-474" type="line"/>
      <point x="-354" y="-474" type="line"/>
      <point x="-328" y="-460"/>
      <point x="-287" y="-428"/>
      <point x="-269" y="-410" type="curve"/>
      <point x="-269" y="-166" type="line"/>
      <point x="-294" y="-141" type="line"/>
      <point x="-319" y="-154"/>
    </contour>
  </outline>
</glyph>
<glyph name="CombXAbv" format="2">
  <unicode hex="033D"/>
  <anchor x="-549" y="1370" name="U"/>
  <anchor x="-549" y="1050" name="_U"/>
  <outline>
    <contour>
      <point x="-202" y="1090"/>
      <point x="-191" y="1112" type="curve"/>
      <point x="-453" y="1331" type="line"/>
      <point x="-640" y="1331" type="line"/>
      <point x="-894" y="1102" type="line"/>
      <point x="-881" y="1081"/>
      <point x="-851" y="1042"/>
      <point x="-833" y="1027" type="curve"/>
      <point x="-548" y="1165" type="line"/>
      <point x="-254" y="1027" type="line"/>
      <point x="-234" y="1043"/>
    </contour>
    <contour>
      <point x="-453" y="1205" type="line"/>
      <point x="-191" y="1424" type="line"/>
      <point x="-202" y="1446"/>
      <point x="-234" y="1493"/>
      <point x="-254" y="1509" type="curve"/>
      <point x="-548" y="1371" type="line"/>
      <point x="-833" y="1509" type="line"/>
      <point x="-851" y="1494"/>
      <point x="-881" y="1455"/>
      <point x="-894" y="1434" type="curve"/>
      <point x="-640" y="1205" type="line"/>
    </contour>
  </outline>
</glyph>
<glyph name="CombDblOverline" format="2">
  <unicode hex="033F"/>
  <anchor x="-515" y="1680" name="U"/>
  <anchor x="-515" y="1050" name="_U"/>
  <outline>
    <contour>
      <point x="52" y="1263"/>
      <point x="60" y="1292" type="curve"/>
      <point x="25" y="1326" type="line"/>
      <point x="-1086" y="1326" type="line"/>
      <point x="-1098" y="1300"/>
      <point x="-1140" y="1215"/>
      <point x="-1147" y="1186" type="curve"/>
      <point x="-1112" y="1152" type="line"/>
      <point x="-1" y="1152" type="line"/>
      <point x="9" y="1174"/>
    </contour>
    <contour>
      <point x="52" y="1533"/>
      <point x="60" y="1562" type="curve"/>
      <point x="25" y="1596" type="line"/>
      <point x="-1086" y="1596" type="line"/>
      <point x="-1098" y="1570"/>
      <point x="-1140" y="1485"/>
      <point x="-1147" y="1456" type="curve"/>
      <point x="-1112" y="1422" type="line"/>
      <point x="-1" y="1422" type="line"/>
      <point x="9" y="1444"/>
    </contour>
  </outline>
</glyph>
<glyph name="CombGrKoronis" format="2">
  <unicode hex="0343"/>
  <anchor x="-559" y="1050" name="_U"/>
  <outline>
    <contour>
      <point x="-389" y="1295"/>
      <point x="-382" y="1389" type="curve" smooth="yes"/>
      <point x="-375" y="1482"/>
      <point x="-410" y="1558"/>
      <point x="-493" y="1591" type="curve"/>
      <point x="-539" y="1594"/>
      <point x="-743" y="1537"/>
      <point x="-774" y="1502" type="curve"/>
      <point x="-752" y="1421" type="line"/>
      <point x="-644" y="1422"/>
      <point x="-593" y="1363"/>
      <point x="-596" y="1290" type="curve" smooth="yes"/>
      <point x="-598" y="1245"/>
      <point x="-609" y="1194"/>
      <point x="-654" y="1149" type="curve"/>
      <point x="-584" y="1090" type="line"/>
      <point x="-444" y="1175"/>
    </contour>
  </outline>
</glyph>
<glyph name="CombGrDialTonos" format="2">
  <unicode hex="0344"/>
  <anchor x="-555" y="1050" name="_U"/>
  <outline>
    <contour>
      <point x="-47" y="1165"/>
      <point x="-47" y="1270" type="curve" smooth="yes"/>
      <point x="-47" y="1357"/>
      <point x="-97" y="1400"/>
      <point x="-177" y="1400" type="curve" smooth="yes"/>
      <point x="-265" y="1400"/>
      <point x="-347" y="1316"/>
      <point x="-347" y="1210" type="curve" smooth="yes"/>
      <point x="-347" y="1125"/>
      <point x="-300" y="1080"/>
      <point x="-217" y="1080" type="curve" smooth="yes"/>
      <point x="-125" y="1080"/>
    </contour>
    <contour>
      <point x="-571" y="1090" type="curve"/>
      <point x="-199" y="1548" type="line"/>
      <point x="-250" y="1613" type="line"/>
      <point x="-301" y="1601"/>
      <point x="-470" y="1568"/>
      <point x="-513" y="1552" type="curve"/>
      <point x="-659" y="1139" type="line"/>
      <point x="-636" y="1119"/>
      <point x="-593" y="1095"/>
    </contour>
    <contour>
      <point x="-685" y="1165"/>
      <point x="-685" y="1270" type="curve" smooth="yes"/>
      <point x="-685" y="1357"/>
      <point x="-735" y="1400"/>
      <point x="-815" y="1400" type="curve" smooth="yes"/>
      <point x="-903" y="1400"/>
      <point x="-985" y="1316"/>
      <point x="-985" y="1210" type="curve" smooth="yes"/>
      <point x="-985" y="1125"/>
      <point x="-938" y="1080"/>
      <point x="-855" y="1080" type="curve" smooth="yes"/>
      <point x="-763" y="1080"/>
    </contour>
  </outline>
</glyph>
<glyph name="CombHomotheticAbv" format="2">
  <unicode hex="034B"/>
  <anchor x="-548" y="1620" name="U"/>
  <anchor x="-548" y="1050" name="_U"/>
  <outline>
    <contour>
      <point x="-227" y="1358"/>
      <point x="-180" y="1466" type="curve"/>
      <point x="-273" y="1505" type="line"/>
      <point x="-318" y="1427"/>
      <point x="-368" y="1376"/>
      <point x="-409" y="1376" type="curve" smooth="yes"/>
      <point x="-483" y="1376"/>
      <point x="-552" y="1479"/>
      <point x="-663" y="1479" type="curve" smooth="yes"/>
      <point x="-807" y="1479"/>
      <point x="-896" y="1303"/>
      <point x="-943" y="1194" type="curve"/>
      <point x="-850" y="1160" type="line"/>
      <point x="-804" y="1234"/>
      <point x="-759" y="1284"/>
      <point x="-716" y="1284" type="curve" smooth="yes"/>
      <point x="-638" y="1284"/>
      <point x="-562" y="1181"/>
      <point x="-460" y="1181" type="curve" smooth="yes"/>
      <point x="-316" y="1181"/>
    </contour>
    <contour>
      <point x="-352" y="1507"/>
      <point x="-352" y="1572" type="curve" smooth="yes"/>
      <point x="-352" y="1625"/>
      <point x="-383" y="1652"/>
      <point x="-433" y="1652" type="curve" smooth="yes"/>
      <point x="-487" y="1652"/>
      <point x="-538" y="1600"/>
      <point x="-538" y="1534" type="curve" smooth="yes"/>
      <point x="-538" y="1482"/>
      <point x="-509" y="1454"/>
      <point x="-458" y="1454" type="curve" smooth="yes"/>
      <point x="-400" y="1454"/>
    </contour>
    <contour>
      <point x="-592" y="1067"/>
      <point x="-592" y="1132" type="curve" smooth="yes"/>
      <point x="-592" y="1185"/>
      <point x="-623" y="1212"/>
      <point x="-673" y="1212" type="curve" smooth="yes"/>
      <point x="-727" y="1212"/>
      <point x="-778" y="1160"/>
      <point x="-778" y="1094" type="curve" smooth="yes"/>
      <point x="-778" y="1042"/>
      <point x="-749" y="1014"/>
      <point x="-698" y="1014" type="curve" smooth="yes"/>
      <point x="-640" y="1014"/>
    </contour>
  </outline>
</glyph>
<glyph name="CombRtArrwhdAbv" format="2">
  <unicode hex="0350"/>
  <anchor x="-551" y="1450" name="U"/>
  <anchor x="-551" y="1050" name="_U"/>
  <outline>
    <contour>
      <point x="-219" y="1295"/>
      <point x="-214" y="1318" type="curve"/>
      <point x="-253" y="1352" type="line"/>
      <point x="-797" y="1556" type="line"/>
      <point x="-826" y="1540"/>
      <point x="-860" y="1508"/>
      <point x="-884" y="1489" type="curve"/>
      <point x="-861" y="1440" type="line"/>
      <point x="-247" y="1213" type="line"/>
      <point x="-237" y="1234"/>
    </contour>
    <contour>
      <point x="-219" y="1295"/>
      <point x="-214" y="1318" type="curve"/>
      <point x="-253" y="1352" type="line"/>
      <point x="-857" y="1129" type="line"/>
      <point x="-865" y="1110"/>
      <point x="-880" y="1040"/>
      <point x="-887" y="1019" type="curve"/>
      <point x="-854" y="989" type="line"/>
      <point x="-247" y="1213" type="line"/>
      <point x="-237" y="1234"/>
    </contour>
  </outline>
</glyph>
<glyph name="CombRtArrwhdUpArrwhdBlw" format="2">
  <unicode hex="0356"/>
  <anchor x="-548" y="-600" name="L"/>
  <anchor x="-548" y="-100" name="_L"/>
  <outline>
    <contour>
      <point x="-439" y="-370"/>
      <point x="-435" y="-337" type="curve"/>
      <point x="-458" y="-308" type="line"/>
      <point x="-1004" y="-103" type="line"/>
      <point x="-1023" y="-119"/>
      <point x="-1073" y="-157"/>
      <point x="-1097" y="-176" type="curve"/>
      <point x="-1082" y="-214" type="line"/>
      <point x="-474" y="-441" type="line"/>
      <point x="-464" y="-420"/>
    </contour>
    <contour>
      <point x="-440" y="-360"/>
      <point x="-435" y="-337" type="curve"/>
      <point x="-485" y="-313" type="line"/>
      <point x="-1073" y="-533" type="line"/>
      <point x="-1081" y="-552"/>
      <point x="-1097" y="-608"/>
      <point x="-1104" y="-629" type="curve"/>
      <point x="-1070" y="-664" type="line"/>
      <point x="-474" y="-441" type="line"/>
      <point x="-460" y="-422"/>
    </contour>
    <contour>
      <point x="32" y="-637" type="curve"/>
      <point x="-232" y="-102" type="line"/>
      <point x="-256" y="-113"/>
      <point x="-311" y="-138"/>
      <point x="-333" y="-158" type="curve"/>
      <point x="-575" y="-670" type="line"/>
      <point x="-554" y="-692" type="line"/>
      <point x="-537" y="-685"/>
      <point x="-458" y="-654"/>
      <point x="-440" y="-637" type="curve"/>
      <point x="-285" y="-302" type="line"/>
      <point x="-94" y="-675" type="line"/>
      <point x="-65" y="-694" type="line"/>
      <point x="-36" y="-683"/>
      <point x="12" y="-653"/>
    </contour>
  </outline>
</glyph>
<glyph name="CombZigZagAbv" format="2">
  <unicode hex="035B"/>
  <anchor x="-545" y="1556" name="U"/>
  <anchor x="-545" y="1050" name="_U"/>
  <outline>
    <contour>
      <point x="-345" y="1379" type="line"/>
      <point x="-715" y="1379" type="line"/>
      <point x="-724" y="1240" type="line"/>
      <point x="-404" y="1240" type="line"/>
    </contour>
    <contour>
      <point x="-521" y="1565" type="line"/>
      <point x="-542" y="1592" type="line"/>
      <point x="-561" y="1592"/>
      <point x="-657" y="1575"/>
      <point x="-676" y="1571" type="curve"/>
      <point x="-764" y="1265" type="line"/>
      <point x="-744" y="1240" type="line"/>
      <point x="-725" y="1239"/>
      <point x="-631" y="1242"/>
      <point x="-612" y="1244" type="curve"/>
    </contour>
    <contour>
      <point x="-477" y="1375" type="line"/>
      <point x="-566" y="1054" type="line"/>
      <point x="-531" y="1027" type="line"/>
      <point x="-514" y="1027"/>
      <point x="-428" y="1045"/>
      <point x="-409" y="1048" type="curve"/>
      <point x="-322" y="1354" type="line"/>
      <point x="-345" y="1379" type="line"/>
    </contour>
  </outline>
</glyph>
<glyph name="CombDblBreveBlw" format="2">
  <unicode hex="035C"/>
  <anchor x="0" y="-990" name="L"/>
  <anchor x="0" y="1560" name="U"/>
  <outline>
    <contour>
      <point x="671" y="-880"/>
      <point x="848" y="-665" type="curve"/>
      <point x="821" y="-641"/>
      <point x="775" y="-610"/>
      <point x="737" y="-600" type="curve"/>
      <point x="604" y="-712"/>
      <point x="316" y="-790"/>
      <point x="4" y="-793" type="curve" smooth="yes"/>
      <point x="-308" y="-796"/>
      <point x="-607" y="-712"/>
      <point x="-737" y="-600" type="curve"/>
      <point x="-776" y="-610"/>
      <point x="-821" y="-641"/>
      <point x="-848" y="-665" type="curve"/>
      <point x="-671" y="-880"/>
      <point x="-359" y="-995"/>
      <point x="-3" y="-995" type="curve" smooth="yes"/>
      <point x="382" y="-995"/>
    </contour>
  </outline>
</glyph>
<glyph name="CombDblBreve" format="2">
  <unicode hex="035D"/>
  <anchor x="0" y="-490" name="L"/>
  <anchor x="0" y="2010" name="U"/>
  <outline>
    <contour>
      <point x="671" y="1762"/>
      <point x="848" y="1977" type="curve"/>
      <point x="821" y="2001"/>
      <point x="775" y="2032"/>
      <point x="737" y="2042" type="curve"/>
      <point x="604" y="1930"/>
      <point x="316" y="1852"/>
      <point x="4" y="1849" type="curve" smooth="yes"/>
      <point x="-308" y="1846"/>
      <point x="-607" y="1930"/>
      <point x="-737" y="2042" type="curve"/>
      <point x="-776" y="2032"/>
      <point x="-821" y="2001"/>
      <point x="-848" y="1977" type="curve"/>
      <point x="-671" y="1762"/>
      <point x="-359" y="1647"/>
      <point x="-3" y="1647" type="curve" smooth="yes"/>
      <point x="382" y="1647"/>
    </contour>
  </outline>
</glyph>
<glyph name="CombDblMacron" format="2">
  <unicode hex="035E"/>
  <anchor x="0" y="-490" name="L"/>
  <anchor x="0" y="2020" name="U"/>
  <outline>
    <contour>
      <point x="847" y="1824"/>
      <point x="855" y="1853" type="curve"/>
      <point x="820" y="1887" type="line"/>
      <point x="-784" y="1887" type="line"/>
      <point x="-796" y="1861"/>
      <point x="-838" y="1776"/>
      <point x="-845" y="1747" type="curve"/>
      <point x="-810" y="1713" type="line"/>
      <point x="794" y="1713" type="line"/>
      <point x="804" y="1735"/>
    </contour>
  </outline>
</glyph>
